<?xml version="1.0" encoding="UTF-8" standalone="no"?>
<svg width="14px" height="14px" viewBox="0 0 14 14" version="1.1" xmlns="http://www.w3.org/2000/svg" xmlns:xlink="http://www.w3.org/1999/xlink" xmlns:sketch="http://www.bohemiancoding.com/sketch/ns">
    <!-- Generator: Sketch 3.3.2 (12043) - http://www.bohemiancoding.com/sketch -->
    <title>edit</title>
    <desc>Created with Sketch.</desc>
    <defs></defs>
    <g id="Page-1" stroke="none" stroke-width="1" fill="none" fill-rule="evenodd" sketch:type="MSPage">
        <path d="M12,5.03067429 L12,12.2857143 C12,13.2321829 11.2321829,14 10.2857143,14 L1.71428571,14 C0.767817143,14 0,13.2321829 0,12.2857143 L0,3.71428571 C0,2.76781714 0.767817143,2 1.71428571,2 L8.96932571,2 L7.25577143,3.71428571 L1.71428571,3.71428571 L1.71428571,12.2857143 L10.2857143,12.2857143 L10.2857143,6.74496 L12,5.03067429 Z M10.5005281,1 L10,1.49962287 L11.5002263,3 L12,2.50022628 L10.5005281,1 Z M12.5003771,0 L12,0.499622869 L13.4997737,2 L14,1.49962287 L12.5003771,0 Z M5,7.25057194 L6.74977998,9 L12,3.75013199 L10.25022,2 L5,7.25057194 Z M4,10 L6,10 L4,8 L4,10 Z" id="edit" fill="#000000" sketch:type="MSShapeGroup"></path>
    </g>
</svg>