<svg xmlns="http://www.w3.org/2000/svg" width="15" height="15" viewBox="0 0 15 15">
    <g fill="none" fill-rule="evenodd">
        <path fill="#006233" fill-rule="nonzero" d="M7.5 0a7.5 7.5 0 1 0 0 15 7.5 7.5 0 1 0 0-15z"/>
        <path fill="#FFF" stroke="#FFF" stroke-width=".5" d="M5.747 7.913c-.29.4-.08.66.219.678.197.013.608-.256.607-.573l-.112-.057c.063.162-.002.214-.136.325-.264.219-.802.234-.578-.373zM8.05 8.961c1.637.042 2.157-1.408 1.147-2.65l-.1.137c.066.578.16 1.149.169 1.742-.198.213-.485.134-.542-.103.003-.32-.111-.592-.256-.85l-.08.136c.094.213.196.452.217.714-.467.513-.983.617-.791-.057-.37.59.19 1.007.822.097.136.621.661.236.693.102.057-.407.028-1.063-.088-1.581.456.723.472 1.244.23 1.593-.27.387-.856.568-1.42.72z"/>
        <path fill="#FFF" stroke="#FFF" stroke-width=".5" d="M8.979 7.321c-.35.024-.53-.042-.34-.28.187-.232.362-.046.41.264.043.29-.616.662-.843.662-.345 0-.504-.406-.187-.771-.408 1.065.882.447.96.125zm-.243-.246c-.042-.002-.074.067-.052.08.061.039.159.015.169-.004.021-.043-.057-.074-.117-.076z"/>
        <path fill="#FFF" stroke="#FFF" stroke-width=".5" d="M7.078 7.824c-.337.607-.001.858.43.788a1.35 1.35 0 0 0 .755-.429c.003-.491-.005-.979-.052-1.455.169-.184-.014-.183-.078-.38-.03.115-.1.24-.032.329.048.48.075.966.074 1.462-.339.25-.593.342-.775.34-.376-.003-.457-.293-.322-.655z"/>
        <path fill="#FFF" stroke="#FFF" stroke-width=".5" d="M8.036 7.985c-.014-.458-.033-.977-.14-1.297.42-.178-.022-.182-.159-.381-.08.113-.258.236-.102.328.07.49.137.978.15 1.468.097-.024.208-.033.25-.118zM6.46 7.963c-.043-.05-.073-.105-.108-.153-.006-.07.045-.133.052-.168.057.081.09.143.136.183l-.08.138zm.141-.106c.084.03.187.03.283.033.368.006.755-.05.713.407-.035.405-.402.64-.731.636-.468-.004-.868-.477-.146-1.347.07-.01.16.007.236.013a.571.571 0 0 0 .413-.113c-.018-.287-.018-.558-.057-.817-.065-.092.01-.214.043-.328.057.2.24.203.066.382.042.288.046.581.046.756-.087.122-.156.252-.412.301-.261-.035-.379-.37-.651-.26.075-.301.767-.37.837-.132-.046.25-.693.15-.864.953-.053.248.232.476.525.458.286-.018.591-.2.621-.506.024-.256-.37-.226-.535-.223-.24.005-.391-.029-.482-.077l.095-.136zm.15-.418c.043-.037.192-.063.246-.003a.624.624 0 0 0-.112.083c-.056-.027-.093-.054-.134-.08z"/>
        <path fill="#FFF" stroke="#FFF" stroke-width=".5" d="M7.117 6.588a.47.47 0 0 1 .06.216c-.025.107-.125.207-.228.21a.188.188 0 0 1-.186-.106c-.006-.011-.033-.038-.059-.026-.113.171-.197.243-.3.242-.204-.003-.143-.17-.331-.221-.079-.002-.208.071-.274.214-.252.653-.48-.002-.383-.307.015.291.091.464.17.459.057-.005.107-.126.18-.254.056-.098.191-.273.333-.273.13.003.049.222.309.219.126-.002.241-.09.358-.268.026-.004.033.038.038.053.018.06.133.227.287.075-.007-.033-.004-.088-.043-.099l.07-.134zM7.935 6.048a.252.252 0 0 1-.296-.05c.1-.02.177-.052.2-.124-.045-.093-.152-.133-.302-.134-.201.005-.304.08-.317.181.094.003.178-.02.214.062-.165.074-.36.1-.57.1-.346.016-.396-.127-.487-.252a.085.085 0 0 0-.053-.02c-.107 0-.185.342-.305.34-.12-.014-.093-.22-.128-.337-.03.184.037.869.408.126.011-.025.027-.018.037.003.1.207.303.28.522.29.183.009.416-.064.666-.194.067.067.12.143.259.158.162.007.336-.101.375-.235.02-.069.024-.204-.056-.206-.11-.003-.192.243-.166.465.003-.003.015-.055.015-.055l-.016-.118zm-.476-.175c.073-.035.144-.05.2.025a.305.305 0 0 0-.094.046c-.032-.025-.074-.038-.106-.071zm.537.15c.018-.073.028-.132.093-.17.014.077.016.12-.093.17zM8.433 6.136c-.02-.063-.042-.117-.049-.185-.016-.138.113-.216.23-.205.12.012.2.053.314.089.09.028.211.05.327.079.065.027 0 .097-.017.106-.29.104-.495.268-.679.275-.11.006-.208-.06-.296-.195a7.295 7.295 0 0 0-.044-.76c.043-.039.052-.068.072-.1.022.255.031.522.037.791.023.046.053.086.105.105zm.186.02c-.155.04-.136-.08-.15-.154-.018-.086-.006-.184.114-.159.156.038.298.088.436.142l-.4.172z"/>
        <path fill="#FFF" stroke="#FFF" stroke-width=".5" d="M8.467 6.284l.064.287h.051l-.02-.268"/>
        <path fill="#FFF" stroke="#FFF" stroke-linecap="round" stroke-linejoin="round" stroke-width=".5" d="M5.997 7.431l.232-.222.268.213-.248.207z"/>
        <path fill="#FFF" stroke="#FFF" stroke-linecap="round" stroke-linejoin="round" stroke-width=".5" d="M6.197 7.407l.234-.222.266.213-.247.206-.253-.197zM5.642 6.64l.233-.222.267.213-.247.206-.253-.197z"/>
        <path fill="#FFF" stroke="#FFF" stroke-linecap="round" stroke-linejoin="round" stroke-width=".5" d="M5.678 6.858l.235-.222.265.213-.249.206zM7.12 7.184l.22-.164.203.2-.23.149zM6.157 5.776l.156-.145.18.14-.167.135-.17-.13z"/>
        <path fill="#FFF" stroke="#FFF" stroke-linecap="round" stroke-linejoin="round" stroke-width=".5" d="M6.288 5.763l.156-.148.18.142-.167.132-.169-.126zM9.239 6.299l-.15.114-.142-.133.156-.105.136.124z"/>
        <path fill="#FFF" stroke="#FFF" stroke-width=".5" d="M6.727 7.58l-.012.244.278.037.222-.234-.488-.046zM7.916 6.08l.126-.025-.014.318-.078.027z"/>
        <path fill="#FFF" fill-rule="nonzero" d="M7.606 10.326c1.593 0 2.89-1.188 2.89-2.647 0-.803-.392-1.52-1.007-2.003.37.398.594.922.594 1.492 0 1.268-1.108 2.296-2.477 2.296-1.368 0-2.476-1.028-2.476-2.296 0-.57.225-1.094.594-1.492-.616.484-1.007 1.2-1.007 2.003 0 1.46 1.297 2.647 2.89 2.647z"/>
        <path fill="#FFF" fill-rule="nonzero" stroke="#000" stroke-width=".5" d="M7.215 11.798c-.637.292-1.433.213-2.106-.185-.03-.014-.044.006-.015.08.072.192.13.344-.087.63-.094.125.015.145.174.132.81-.073 1.607-.239 1.991-.378l.043-.279zM7.2 12.143c-.252.1-.687.22-1.172.305-.195.029-.188.15.16.192.354.035.81-.213 1.085-.433l-.072-.064z"/>
        <path fill="#FFF" fill-rule="nonzero" stroke="#000" stroke-width=".5" d="M7.606 11.506c.087 0 .247-.033.406-.053.297-.046.08.372-.406.372v.14c.493 0 1.007-.492.898-.71-.152-.319-.572-.047-.898-.047-.325 0-.745-.272-.897.046-.109.22.405.71.897.71v-.14c-.485 0-.702-.417-.405-.37.16.02.319.052.405.052z"/>
        <path fill="#FFF" fill-rule="nonzero" stroke="#000" stroke-width=".5" d="M7.997 11.798c.637.292 1.434.213 2.107-.185.03-.014.044.006.015.08-.073.192-.13.344.087.63.094.125-.015.145-.174.132-.811-.073-1.607-.239-1.991-.378l-.044-.279zM8.012 12.143c.253.1.68.22 1.173.305.195.029.188.15-.16.192-.354.035-.81-.213-1.086-.433l.073-.064z"/>
        <path fill="#FFF" fill-rule="nonzero" stroke="#000" stroke-width=".5" d="M7.628 12.077c.015.113.036.358.203.252.224-.14.275-.245.275-.444 0-.126-.167-.312-.5-.312-.333 0-.5.186-.5.312 0 .199.052.305.276.444.166.106.18-.14.203-.252.007-.04.043-.027.043 0zM7.396 3.58c-.094-.492-.883-.525-1.006-.604-.145-.087-.123 0-.072.132.144.345.637.484.861.524.181.027.24.04.217-.053z"/>
        <path fill="#FFF" fill-rule="nonzero" stroke="#000" stroke-width=".5" d="M7.635 3.592c.08-.504-.702-.743-.796-.855-.109-.12-.123-.047-.072.093.094.298.434.65.637.743.166.08.217.112.231.02z"/>
        <path fill="#FFF" fill-rule="nonzero" stroke="#000" stroke-width=".5" d="M8.28 3.884c.072-.603-.565-.696-.732-.889-.108-.119-.115-.053-.08.087.073.305.392.663.587.776.152.086.217.12.225.026z"/>
        <path fill="#FFF" fill-rule="nonzero" stroke="#000" stroke-width=".5" d="M8.084 3.786c-.659-.448-1.122-.198-1.31-.22-.181-.023-.24.098.072.28.384.221.92.191 1.13.107.217-.09.152-.137.108-.167zM9.076 4.017c-.203-.65-.673-.544-.81-.624-.138-.08-.153-.06-.124.087.058.258.543.544.782.63.087.026.196.066.152-.093z"/>
        <path fill="#FFF" fill-rule="nonzero" stroke="#000" stroke-width=".5" d="M8.982 4.17c-.565-.494-1.006-.125-1.18-.18-.13-.04-.073.055-.022.094.362.274.811.424 1.159.25.137-.062.144-.078.043-.164zM10.206 4.554c.007-.411-.92-.583-1.115-.836-.116-.152-.218-.072-.16.173.087.318.724.67 1.072.736.21.04.203-.026.203-.073z"/>
        <path fill="#FFF" fill-rule="nonzero" stroke="#000" stroke-width=".5" d="M10.177 4.627c-.587-.484-1.08-.325-1.26-.371-.181-.04-.254.06.029.259.347.238.883.285 1.108.238.224-.046.166-.093.123-.126zM11.226 5.337c-.166-.703-.695-.849-.825-.982-.123-.132-.253-.093-.145.226.13.378.558.71.782.79.217.086.203.02.188-.034z"/>
        <path fill="#FFF" fill-rule="nonzero" stroke="#000" stroke-width=".5" d="M11.22 5.43c-.428-.63-.985-.61-1.16-.697-.166-.092-.282-.013-.057.26.26.33.796.517 1.042.53.247.013.203-.047.174-.093z"/>
        <path fill="#FFF" fill-rule="nonzero" stroke="#000" stroke-width=".5" d="M11.77 6.18c.246-.717-.32-.982-.377-1.102-.065-.119-.13-.119-.167.007-.159.51.355 1.008.435 1.108.08.093.094.046.108-.013z"/>
        <path fill="#FFF" fill-rule="nonzero" stroke="#000" stroke-width=".5" d="M11.654 6.379c-.196-.803-.71-.757-.826-.87-.123-.112-.137-.033-.116.113.058.392.572.657.804.79.072.04.16.086.138-.033zM12.146 7.32c.355-.756-.065-1.266-.196-1.38-.13-.105-.21-.152-.166 0 .058.233-.145.83.166 1.268.102.146.116.285.196.113z"/>
        <path fill="#FFF" fill-rule="nonzero" stroke="#000" stroke-width=".5" d="M11.958 7.473c.08-.464-.21-.889-.522-1.055-.18-.1-.188-.073-.188.067.015.43.456.79.587.988.123.186.115.047.123 0z"/>
        <path fill="#FFF" fill-rule="nonzero" stroke="#000" stroke-width=".5" d="M11.878 8.68c-.26-.875.282-1.38.449-1.479.16-.106.26-.146.188.02-.108.246.007.929-.405 1.36-.13.146-.181.299-.232.1z"/>
        <path fill="#FFF" fill-rule="nonzero" stroke="#000" stroke-width=".5" d="M11.936 8.488c.217-.763-.253-1.194-.398-1.28-.138-.086-.225-.12-.16.02.087.212-.007.809.355 1.18.116.127.16.253.203.08z"/>
        <path fill="#FFF" fill-rule="nonzero" stroke="#000" stroke-width=".5" d="M11.673 8.13a1.114 1.114 0 0 0-.228 1.28c.11.193.125.18.228.04.279-.405.11-.988.125-1.247.007-.246-.081-.113-.125-.073z"/>
        <path fill="#FFF" fill-rule="nonzero" stroke="#000" stroke-width=".5" d="M12.312 8.74c0 .53-.354.962-.73 1.095-.218.073-.218.053-.19-.106.102-.597.602-.816.783-1.009.174-.185.137-.033.137.02z"/>
        <path fill="#FFF" fill-rule="nonzero" stroke="#000" stroke-width=".5" d="M10.966 10.319c.637-.53.297-.902.326-1.247.014-.186-.066-.14-.138-.073-.405.365-.427 1.015-.34 1.267.036.113.094.1.152.053z"/>
        <path fill="#FFF" fill-rule="nonzero" stroke="#000" stroke-width=".5" d="M11.82 9.974c-.21.584-.767.942-1.238.962-.275.013-.268-.007-.174-.18.355-.623.985-.696 1.267-.855.26-.146.167.013.145.073z"/>
        <path fill="#FFF" fill-rule="nonzero" stroke="#000" stroke-width=".5" d="M10.09 11.069c.825-.378.659-1.009.81-1.168.11-.113-.021-.1-.086-.06-.485.26-.876.67-.884 1.108 0 .166.015.186.16.12z"/>
        <path fill="#FFF" fill-rule="nonzero" stroke="#000" stroke-width=".5" d="M8.96 11.772c1.043.152 1.528-.57 1.832-.637.16-.033.043-.093-.036-.1-.695-.073-1.579.226-1.846.558-.109.132-.109.159.05.179z"/>
        <path fill="#FFF" fill-rule="nonzero" stroke="#000" stroke-width=".5" d="M10.017 10.637c-.21.63-.992 1.148-1.578 1.188-.275.02-.275-.007-.174-.173.47-.782 1.289-.915 1.579-1.114.246-.173.195.04.173.1zM7.816 3.58c.094-.492.884-.525 1.007-.604.145-.087.123 0 .072.132-.145.345-.637.484-.861.524-.181.027-.24.04-.218-.053z"/>
        <path fill="#FFF" fill-rule="nonzero" stroke="#000" stroke-width=".5" d="M7.577 3.592c-.08-.504.703-.743.797-.855.108-.12.123-.047.072.093-.094.298-.434.65-.637.743-.166.08-.217.112-.232.02z"/>
        <path fill="#FFF" fill-rule="nonzero" stroke="#000" stroke-width=".5" d="M6.933 3.884c-.072-.603.565-.696.731-.889.109-.119.116-.053.08.087-.072.305-.391.663-.586.776-.153.086-.218.12-.225.026z"/>
        <path fill="#FFF" fill-rule="nonzero" stroke="#000" stroke-width=".5" d="M7.129 3.786c.658-.448 1.122-.198 1.31-.22.181-.023.239.098-.072.28-.384.221-.92.191-1.13.107-.217-.09-.152-.137-.108-.167zM6.137 4.017c.202-.65.673-.544.81-.624.138-.08.153-.06.124.087-.058.258-.543.544-.782.63-.087.026-.196.066-.152-.093z"/>
        <path fill="#FFF" fill-rule="nonzero" stroke="#000" stroke-width=".5" d="M6.23 4.17c.566-.494 1.007-.125 1.18-.18.131-.04.073.055.023.094-.362.274-.811.424-1.159.25-.137-.062-.145-.078-.043-.164zM5.007 4.554c-.007-.411.92-.583 1.115-.836.116-.152.217-.072.16.173-.087.318-.725.67-1.072.736-.21.04-.203-.026-.203-.073z"/>
        <path fill="#FFF" fill-rule="nonzero" stroke="#000" stroke-width=".5" d="M5.036 4.627c.587-.484 1.079-.325 1.26-.371.18-.04.253.06-.029.259-.348.238-.883.285-1.108.238-.224-.046-.166-.093-.123-.126zM3.986 5.337c.167-.703.695-.849.826-.982.123-.132.253-.093.145.226-.13.378-.558.71-.782.79-.218.086-.203.02-.189-.034z"/>
        <path fill="#FFF" fill-rule="nonzero" stroke="#000" stroke-width=".5" d="M3.994 5.43c.427-.63.984-.61 1.158-.697.167-.092.282-.013.058.26-.26.33-.796.517-1.043.53-.246.013-.202-.047-.173-.093z"/>
        <path fill="#FFF" fill-rule="nonzero" stroke="#000" stroke-width=".5" d="M3.443 6.18c-.246-.717.319-.982.377-1.102.065-.119.13-.119.166.007.16.51-.354 1.008-.434 1.108-.08.093-.094.046-.109-.013z"/>
        <path fill="#FFF" fill-rule="nonzero" stroke="#000" stroke-width=".5" d="M3.56 6.379c.195-.803.709-.757.825-.87.123-.112.137-.033.115.113-.058.392-.572.657-.803.79-.073.04-.16.086-.138-.033zM3.067 7.32c-.355-.756.065-1.266.195-1.38.13-.105.21-.152.167 0-.058.233.145.83-.167 1.268-.101.146-.115.285-.195.113z"/>
        <path fill="#FFF" fill-rule="nonzero" stroke="#000" stroke-width=".5" d="M3.255 7.473c-.08-.464.21-.889.521-1.055.181-.1.189-.073.189.067-.015.43-.456.79-.587.988-.123.186-.116.047-.123 0z"/>
        <path fill="#FFF" fill-rule="nonzero" stroke="#000" stroke-width=".5" d="M3.335 8.68c.26-.875-.283-1.38-.45-1.479-.158-.106-.26-.146-.187.02.108.246-.008.929.405 1.36.13.146.174.299.232.1z"/>
        <path fill="#FFF" fill-rule="nonzero" stroke="#000" stroke-width=".5" d="M3.277 8.488c-.217-.763.253-1.194.398-1.28.138-.086.224-.12.16.02-.088.212.007.809-.355 1.18-.116.127-.16.253-.203.08z"/>
        <path fill="#FFF" fill-rule="nonzero" stroke="#000" stroke-width=".5" d="M3.547 8.13c.396.385.404.949.228 1.28-.11.193-.125.18-.228.04-.279-.405-.11-.988-.125-1.247-.007-.246.08-.113.125-.073z"/>
        <path fill="#FFF" fill-rule="nonzero" stroke="#000" stroke-width=".5" d="M2.9 8.74c0 .53.355.962.732 1.095.217.073.217.053.188-.106-.102-.597-.601-.816-.782-1.009-.174-.185-.138-.033-.138.02z"/>
        <path fill="#FFF" fill-rule="nonzero" stroke="#000" stroke-width=".5" d="M4.247 10.319c-.637-.53-.297-.902-.326-1.247-.014-.186.065-.14.138-.073.405.365.427 1.015.34 1.267-.036.113-.094.1-.152.053z"/>
        <path fill="#FFF" fill-rule="nonzero" stroke="#000" stroke-width=".5" d="M3.393 9.974c.21.584.767.942 1.238.962.275.013.268-.007.173-.18-.354-.623-.984-.696-1.267-.855-.26-.146-.166.013-.144.073z"/>
        <path fill="#FFF" fill-rule="nonzero" stroke="#000" stroke-width=".5" d="M5.123 11.069c-.825-.378-.659-1.009-.81-1.168-.11-.113.02-.1.086-.06.485.26.876.67.883 1.108 0 .166-.014.186-.159.12z"/>
        <path fill="#FFF" fill-rule="nonzero" stroke="#000" stroke-width=".5" d="M6.252 11.772c-1.042.152-1.527-.57-1.831-.637-.16-.033-.044-.093.036-.1.695-.073 1.578.226 1.846.558.109.132.109.159-.05.179z"/>
        <path fill="#FFF" fill-rule="nonzero" stroke="#000" stroke-width=".5" d="M5.195 10.637c.21.63.992 1.148 1.579 1.188.275.02.275-.007.174-.173-.471-.782-1.29-.915-1.579-1.114-.246-.173-.195.04-.174.1z"/>
        <path fill="#006233" fill-rule="nonzero" d="M8.83 4.388c-.138-.278-.644-.119-.739-.298.181.418.587.12.739.298zM10.054 4.47c-.11-.195-.753-.326-.848-.5.167.334.667.29.848.5zM9.96 4.882c-.24-.421-.797-.25-.964-.5.391.645.609.145.963.5zM8.564 3.692c.164.115.368.23.47.5-.118-.208-.329-.292-.5-.469.007 0 .023-.02.03-.031zM10.98 5.068c-.102-.203-.468-.426-.5-.5.104.263.405.324.5.5zM11.024 5.41c-.29-.418-.746-.371-.927-.53.138.152.659.251.927.53zM11.84 6.054c.031-.445-.477-.61-.498-.863-.01.299.52.703.499.863zM11.516 6.292c-.072-.384-.565-.41-.652-.636 0 .212.58.43.652.636zM11.921 6.073c.693.292.212.737.5 1.062-.346-.239-.173-.836-.5-1.062zM11.494 7.32c.5.385.297.817.5 1.002-.25-.258-.213-.763-.5-1.001zM12.501 7.374c-.548.338-.214.849-.5 1.088.322-.206.274-.836.5-1.088zM11.904 7.374c-.045-.392-.459-.597-.496-.81-.046.213.398.544.496.81z"/>
        <path fill="#006233" fill-rule="nonzero" d="M11.983 8.309c.197.272-.525.856-.306 1.035-.481-.312.415-.902.306-1.035zM12.197 8.933c-.16.484-.478.45-.58.743.073-.28.493-.531.58-.743z"/>
        <path fill="#006233" fill-rule="nonzero" d="M11.451 9.158c-.5.325-.086.697-.5.929.587-.232.276-.664.5-.929zM11.668 10.047c-.253.431-.775.391-.985.703.21-.391.855-.458.985-.703zM10.749 9.994c-.45.285-.312.584-.652.902.427-.318.39-.67.652-.902zM10.539 11.148c-.435-.014-1.057.534-1.434.492.377.077 1.072-.415 1.434-.492zM9.836 10.684c-.029.405-1.158.663-1.281.935.137-.358 1.13-.623 1.281-.935zM7.411 3.355c-.196-.16-.431-.292-.5-.452.05.207.245.358.442.5.02-.01.039-.038.058-.048zM7.034 3.546c-.224-.188-.485-.175-.6-.438.072.263.318.363.528.5a.323.323 0 0 1 .072-.062zM6.383 4.388c.137-.278.644-.119.738-.298-.18.418-.586.12-.738.298zM5.16 4.47c.108-.195.752-.326.846-.5-.166.334-.666.29-.847.5zM5.253 4.882c.24-.421.797-.25.963-.5-.39.645-.608.145-.963.5zM6.216 4.053c.138-.29.529-.326.63-.5-.152.26-.485.304-.63.5zM7.331 3.99c.398-.517.79-.08.978-.318-.232.338-.782.18-.978.318zM4.276 5.068c.103-.203.468-.426.5-.5-.103.263-.405.324-.5.5zM4.19 5.41c.289-.418.745-.371.926-.53-.138.152-.659.251-.927.53zM3.516 6.054c-.03-.445.478-.61.499-.863.01.299-.52.703-.499.863zM3.697 6.292c.072-.384.564-.41.651-.636 0 .212-.579.43-.651.636zM3.603 6.073c-.692.292-.211.737-.5 1.062.346-.239.173-.836.5-1.062zM3.828 7.32c-.5.385-.297.817-.5 1.002.25-.258.212-.763.5-1.001z"/>
        <path fill="#006233" fill-rule="nonzero" d="M2.908 7.374c.547.338.214.849.5 1.088-.322-.206-.274-.836-.5-1.088zM3.328 7.374c.045-.392.459-.597.496-.81.045.213-.399.544-.496.81zM3.553 8.309c-.197.272.525.856.306 1.035.482-.312-.415-.902-.306-1.035zM3.016 8.933c.16.484.478.45.58.743-.073-.28-.493-.531-.58-.743z"/>
        <path fill="#006233" fill-rule="nonzero" d="M4.052 9.158c.5.325.086.697.5.929-.587-.232-.276-.664-.5-.929zM3.545 10.047c.253.431.774.391.984.703-.21-.391-.854-.458-.984-.703z"/>
        <path fill="#006233" fill-rule="nonzero" d="M4.464 9.994c.45.285.312.584.652.902-.427-.318-.391-.67-.652-.902zM4.674 11.148c.435-.014 1.057.534 1.434.492-.377.077-1.072-.415-1.434-.492zM5.376 10.684c.03.405 1.159.663 1.282.935-.138-.358-1.13-.623-1.282-.935zM7.02 3.791c.087-.358.521-.424.58-.636-.023.225-.537.477-.58.636zM8.301 2.903c-.065.272-.535.424-.6.63.021-.279.506-.438.6-.63zM7.932 3.608c.225-.379.688-.28.847-.5-.116.258-.688.265-.847.5z"/>
        <path stroke="#F7C608" stroke-linecap="round" stroke-linejoin="round" stroke-width=".5" d="M10.996 7.646c0 1.723-1.524 3.12-3.404 3.12s-3.404-1.397-3.404-3.12 1.524-3.12 3.404-3.12 3.404 1.397 3.404 3.12z"/>
        <path fill="#F7C608" fill-rule="nonzero" d="M6.876 10.919l-.023.071c-.015.048-.047.077-.078.08-.068-.022-.161-.038-.244-.064l.144-.453c.09.028.182.045.248.052.027.01.036.051.021.1l-.019.059m-.579-.171l.023-.072c.015-.048.047-.077.074-.068.065.034.143.072.232.1l-.144.453c-.082-.026-.164-.053-.236-.089-.023-.02-.017-.11-.002-.158"/>
        <path fill="#006233" fill-rule="nonzero" d="M6.815 10.94l-.023.072c-.015.049-.044.078-.07.083-.057-.018-.135-.03-.203-.052l.144-.453a.988.988 0 0 0 .207.04c.022.007.028.048.013.096l-.019.06m-.482-.14l.022-.072c.016-.049.044-.078.067-.07.053.029.118.062.192.086l-.144.453c-.069-.022-.137-.043-.196-.075-.02-.019-.01-.108.006-.156"/>
        <path fill="#F7C608" fill-rule="nonzero" d="M5.905 10.597l-.042.062c-.027.042-.066.061-.096.056-.059-.04-.142-.08-.212-.127l.263-.395c.077.051.16.092.22.117.023.015.02.058-.008.1l-.035.052m-.5-.32l.042-.061c.028-.042.067-.061.09-.046.052.05.115.107.191.158l-.263.395c-.07-.047-.141-.094-.199-.147-.016-.027.015-.111.043-.153"/>
        <path fill="#006233" fill-rule="nonzero" d="M5.846 10.607l-.042.062c-.028.042-.063.063-.09.06-.05-.033-.12-.066-.18-.106l.265-.395a.979.979 0 0 0 .186.095c.02.013.015.054-.013.096l-.035.052m-.423-.267l.042-.063c.028-.042.063-.063.083-.05.043.044.095.094.16.137l-.265.395c-.059-.04-.118-.08-.166-.126-.013-.023.02-.106.049-.148"/>
        <path fill="#F7C608" fill-rule="nonzero" d="M5.082 10.032l-.057.05c-.037.033-.08.042-.107.03-.045-.052-.113-.111-.168-.173l.357-.313c.059.067.127.126.178.164.018.02.003.06-.034.094l-.047.04m-.39-.425l.056-.049c.037-.033.079-.042.097-.022.036.06.081.13.14.198l-.357.313c-.054-.062-.109-.124-.15-.189-.008-.029.044-.102.082-.135"/>
        <path fill="#006233" fill-rule="nonzero" d="M5.03 10.038l-.056.05c-.038.033-.077.043-.102.034-.04-.045-.1-.095-.147-.149l.357-.314a.979.979 0 0 0 .156.14c.016.019 0 .056-.038.09l-.047.041m-.34-.367l.057-.05c.038-.033.078-.044.093-.026.03.052.068.114.12.172l-.358.314a1.157 1.157 0 0 1-.128-.164c-.007-.026.047-.097.085-.13"/>
        <path fill="#F7C608" fill-rule="nonzero" d="M4.465 9.278l-.068.033c-.045.022-.087.02-.11.001-.03-.06-.079-.133-.114-.205l.427-.208c.038.079.088.151.125.2.012.024-.013.059-.058.08l-.056.028m-.257-.5l.067-.034c.045-.021.088-.02.1.004.017.066.041.144.08.222l-.428.208a1.434 1.434 0 0 1-.091-.216c0-.03.07-.086.114-.108"/>
        <path fill="#006233" fill-rule="nonzero" d="M4.42 9.282l-.068.033c-.046.022-.087.022-.108.006-.026-.053-.071-.118-.102-.182l.427-.208c.034.07.079.134.113.177.01.021-.014.053-.06.075l-.057.028m-.23-.444l.068-.033c.046-.022.087-.022.097-.001.015.059.035.129.07.198l-.428.208c-.032-.064-.063-.128-.08-.193 0-.026.071-.08.117-.103"/>
        <path fill="#F7C608" fill-rule="nonzero" d="M4.097 8.395l-.074.012c-.049.007-.09-.006-.106-.03-.01-.066-.036-.148-.048-.227l.47-.074c.013.085.038.168.06.225.004.026-.03.051-.08.059l-.061.01m-.099-.546l.074-.012c.05-.007.09.006.094.032-.002.067-.002.148.011.232l-.469.074a1.39 1.39 0 0 1-.024-.23c.009-.028.092-.06.141-.069"/>
        <path fill="#006233" fill-rule="nonzero" d="M4.053 8.393l-.074.012c-.05.008-.09-.004-.105-.026-.01-.058-.033-.133-.044-.203L4.3 8.1a.979.979 0 0 0 .056.202c.004.024-.03.047-.08.055l-.062.01m-.09-.492l.074-.012c.05-.008.09.004.093.028a1.03 1.03 0 0 0 .008.21l-.47.074c-.01-.07-.022-.141-.02-.208.008-.026.092-.057.142-.065"/>
        <path fill="#F7C608" fill-rule="nonzero" d="M4.011 7.45l-.074-.011c-.05-.008-.083-.033-.092-.061.01-.065.012-.152.024-.23l.469.074a1.173 1.173 0 0 0-.011.232c-.004.026-.044.04-.094.032l-.061-.01m.073-.55l.074.012c.05.008.084.033.08.06-.023.063-.048.139-.061.224l-.47-.074c.013-.078.025-.157.049-.226.016-.024.106-.03.155-.023"/>
        <path fill="#006233" fill-rule="nonzero" d="M3.97 7.436l-.075-.012c-.05-.008-.083-.031-.092-.057.01-.058.01-.137.02-.207l.47.073a.979.979 0 0 0-.008.21c-.004.024-.043.036-.093.028l-.062-.01m.066-.496l.074.012c.05.008.083.03.08.054a1.03 1.03 0 0 0-.057.202l-.47-.073c.012-.07.023-.141.045-.204.016-.022.105-.026.155-.018"/>
        <path fill="#F7C608" fill-rule="nonzero" d="M4.218 6.527l-.067-.033c-.045-.022-.07-.056-.07-.086.03-.06.056-.144.091-.217L4.6 6.4a1.21 1.21 0 0 0-.08.222c-.012.024-.054.026-.1.004l-.056-.027m.235-.512l.067.032c.045.022.07.057.059.08-.04.056-.087.123-.125.2l-.428-.207c.036-.072.07-.144.114-.205.023-.019.11.001.155.023"/>
        <path fill="#006233" fill-rule="nonzero" d="M4.187 6.493l-.068-.033c-.045-.022-.07-.054-.071-.08.026-.054.048-.13.08-.193l.427.207a.979.979 0 0 0-.069.198c-.01.022-.05.022-.096 0l-.057-.028m.207-.455l.068.033c.046.022.07.054.06.076a1.03 1.03 0 0 0-.113.176l-.427-.207c.03-.065.062-.129.102-.182.021-.017.108.006.153.028"/>
        <path fill="#F7C608" fill-rule="nonzero" d="M4.7 5.7l-.057-.05c-.038-.033-.052-.073-.044-.102.046-.052.095-.127.15-.19l.357.314a1.27 1.27 0 0 0-.14.197c-.018.02-.06.012-.098-.021l-.047-.042m.372-.442l.056.05c.038.033.052.073.034.094a1.336 1.336 0 0 0-.177.164l-.357-.313c.054-.062.108-.124.168-.173.027-.012.107.03.144.063"/>
        <path fill="#006233" fill-rule="nonzero" d="M4.687 5.65l-.056-.05c-.038-.034-.054-.071-.048-.097.04-.045.081-.111.129-.165l.357.314a.979.979 0 0 0-.12.172c-.015.018-.054.008-.092-.026l-.048-.041m.321-.384l.057.05c.038.033.053.07.038.088a1.03 1.03 0 0 0-.156.14l-.357-.313c.047-.054.094-.107.146-.148.025-.01.103.034.14.067"/>
        <path fill="#F7C608" fill-rule="nonzero" d="M5.41 5.03l-.041-.063c-.028-.041-.031-.084-.015-.11.059-.04.128-.1.199-.148l.264.395a1.338 1.338 0 0 0-.192.158c-.023.016-.061-.004-.09-.045l-.034-.052m.485-.34l.042.062c.028.042.031.085.008.1a1.407 1.407 0 0 0-.22.117l-.263-.395c.07-.047.14-.094.212-.127.03-.005.096.056.124.097"/>
        <path fill="#006233" fill-rule="nonzero" d="M5.424 4.972l-.042-.063c-.028-.042-.033-.082-.02-.106.049-.033.106-.086.166-.126l.264.395a.979.979 0 0 0-.16.136c-.019.014-.054-.007-.082-.049l-.035-.052m.408-.289l.042.063c.028.042.034.083.014.096a1.03 1.03 0 0 0-.187.095l-.264-.395c.06-.04.119-.08.18-.106.026-.003.09.06.118.102"/>
        <path fill="#F7C608" fill-rule="nonzero" d="M6.298 4.561l-.023-.071c-.015-.048-.006-.09.018-.11.069-.022.154-.063.236-.089l.144.453c-.089.028-.174.068-.232.1-.027.009-.06-.02-.074-.068l-.02-.06m.572-.195l.023.071c.015.048.006.09-.021.099a1.46 1.46 0 0 0-.248.053L6.53 4.29c.082-.026.164-.052.244-.064.03.003.078.08.093.127"/>
        <path fill="#006233" fill-rule="nonzero" d="M6.335 4.508l-.022-.072c-.016-.048-.01-.089.01-.108.056-.018.126-.053.195-.075l.144.453a.988.988 0 0 0-.192.087c-.023.007-.05-.022-.066-.07l-.02-.06m.476-.165l.022.072c.016.048.01.089-.013.096-.06.007-.133.017-.207.04l-.144-.453c.068-.022.137-.043.203-.052.026.005.07.083.085.13"/>
        <path fill="#F7C608" fill-rule="nonzero" d="M7.3 4.333v-.075c0-.05.021-.087.05-.1.073 0 .167-.012.254-.012v.475c-.094 0-.188.012-.253.025-.03 0-.051-.038-.051-.088v-.062m.608-.013v.075c0 .05-.022.087-.05.087a1.48 1.48 0 0 0-.254-.024v-.475c.087 0 .173 0 .253.012.03.012.05.1.05.15"/>
        <path fill="#006233" fill-rule="nonzero" d="M7.352 4.294v-.075c0-.051.018-.088.042-.1.06 0 .138-.012.21-.012v.475c-.077 0-.156.012-.21.025-.024 0-.042-.037-.042-.088v-.063m.506-.012v.075c0 .05-.018.087-.042.087a1.053 1.053 0 0 0-.211-.024v-.475c.072 0 .144 0 .21.012.024.012.043.1.043.15"/>
        <path fill="#F7C608" fill-rule="nonzero" d="M8.268 4.373L8.29 4.3c.015-.048.046-.077.077-.08.07.02.162.036.245.061l-.14.454a1.39 1.39 0 0 0-.248-.05c-.028-.008-.037-.05-.022-.098l.018-.06m.581.166l-.022.072c-.015.047-.046.077-.074.068a1.462 1.462 0 0 0-.233-.098l.14-.454c.082.026.165.051.237.087.023.02.018.11.004.158"/>
        <path fill="#006233" fill-rule="nonzero" d="M8.329 4.35l.022-.072c.015-.048.043-.078.07-.083.057.018.135.029.203.05l-.14.454a.989.989 0 0 0-.207-.038c-.023-.007-.03-.047-.014-.096l.018-.06m.484.136l-.022.072c-.015.049-.043.079-.066.072a1.04 1.04 0 0 0-.193-.086l.14-.454c.069.021.137.042.197.073.019.02.01.108-.005.156"/>
        <path fill="#F7C608" fill-rule="nonzero" d="M9.242 4.686l.041-.062c.028-.042.066-.062.096-.057.06.039.143.079.214.125l-.26.397a1.34 1.34 0 0 0-.221-.114c-.024-.016-.02-.059.007-.1l.034-.053m.502.315l-.04.063c-.028.042-.067.061-.09.046a1.409 1.409 0 0 0-.193-.157l.26-.397c.072.047.142.093.2.146.017.026-.013.111-.04.153"/>
        <path fill="#006233" fill-rule="nonzero" d="M9.301 4.676l.041-.062c.028-.043.063-.064.09-.06.05.032.121.064.18.103l-.26.398a.979.979 0 0 0-.188-.094c-.02-.013-.014-.054.013-.096l.035-.053m.425.265l-.042.062c-.028.043-.063.064-.083.05a1.03 1.03 0 0 0-.16-.134l.26-.398c.06.04.12.079.168.125.013.023-.02.106-.047.148"/>
        <path fill="#F7C608" fill-rule="nonzero" d="M10.071 5.244l.056-.05c.037-.033.079-.043.107-.03.045.051.114.11.17.17l-.355.317a1.273 1.273 0 0 0-.18-.163c-.017-.02-.003-.06.034-.094l.047-.042m.394.423l-.056.05c-.037.033-.08.043-.097.022a1.339 1.339 0 0 0-.142-.196l.354-.316c.055.061.11.123.151.188.01.029-.042.102-.08.136"/>
        <path fill="#006233" fill-rule="nonzero" d="M10.122 5.239l.056-.05c.038-.034.077-.045.102-.036.04.045.1.094.148.148l-.355.316a.979.979 0 0 0-.157-.139c-.015-.017 0-.055.038-.089L10 5.347m.342.365l-.056.05c-.038.034-.077.045-.093.027a1.03 1.03 0 0 0-.12-.172l.354-.316c.048.053.095.106.13.163.006.026-.047.098-.085.132"/>
        <path fill="#F7C608" fill-rule="nonzero" d="M10.694 5.994l.068-.034c.044-.022.087-.02.11-.002.03.06.08.132.116.204l-.426.212a1.211 1.211 0 0 0-.127-.2c-.011-.023.013-.058.058-.08l.056-.028m.262.499l-.067.033c-.045.022-.088.021-.1-.003a1.274 1.274 0 0 0-.082-.221l.426-.212c.035.072.071.144.093.216 0 .03-.069.087-.114.109"/>
        <path fill="#006233" fill-rule="nonzero" d="M10.74 5.99l.067-.034c.046-.023.087-.023.108-.007.027.053.072.117.104.181l-.426.212a.979.979 0 0 0-.115-.176c-.01-.021.015-.054.06-.076l.057-.028m.233.442l-.067.034c-.046.022-.087.022-.097.001a1.03 1.03 0 0 0-.07-.197l.425-.212c.032.064.064.128.082.192 0 .027-.071.082-.116.104"/>
        <path fill="#F7C608" fill-rule="nonzero" d="M11.07 6.874l.074-.013c.05-.008.09.005.106.03.011.064.037.147.05.225l-.468.078a1.174 1.174 0 0 0-.063-.223c-.004-.026.03-.052.079-.06l.062-.01m.103.544l-.074.012c-.049.009-.09-.005-.093-.03.001-.068 0-.148-.014-.233l.469-.078c.013.078.026.156.025.23-.008.028-.09.062-.14.07"/>
        <path fill="#006233" fill-rule="nonzero" d="M11.114 6.875l.074-.013c.05-.008.09.004.105.025.01.059.035.133.047.203l-.47.079a.979.979 0 0 0-.058-.201c-.004-.024.03-.048.08-.056l.062-.01m.094.49l-.074.013c-.05.009-.089-.003-.093-.027a1.03 1.03 0 0 0-.01-.209l.469-.079c.012.07.023.141.022.208-.008.025-.091.057-.141.066"/>
        <path fill="#F7C608" fill-rule="nonzero" d="M11.165 7.817l.074.011c.05.007.084.032.093.06-.01.065-.01.152-.022.23l-.47-.069c.013-.085.013-.171.01-.232.003-.026.043-.04.093-.033l.061.01m-.068.55l-.074-.012c-.05-.007-.084-.032-.08-.058.022-.064.046-.14.058-.225l.47.07c-.011.078-.023.156-.046.226-.016.024-.105.031-.155.024"/>
        <path fill="#006233" fill-rule="nonzero" d="M11.207 7.831l.074.011c.05.008.084.03.093.056-.009.059-.008.137-.018.208l-.47-.07a.979.979 0 0 0 .005-.209c.004-.024.043-.036.093-.028l.062.009m-.06.496l-.075-.01c-.05-.008-.084-.031-.08-.055a1.03 1.03 0 0 0 .054-.202l.47.07c-.01.07-.02.14-.042.203-.016.022-.105.027-.155.02"/>
        <path fill="#F7C608" fill-rule="nonzero" d="M10.967 8.743l.068.032c.045.022.07.056.07.086-.028.06-.054.144-.089.217l-.429-.204c.037-.079.063-.163.078-.222.011-.025.054-.027.1-.005l.056.027m-.23.513l-.068-.032c-.045-.022-.07-.056-.06-.08a1.27 1.27 0 0 0 .124-.201l.43.204c-.035.072-.07.145-.113.206-.023.019-.11 0-.155-.022"/>
        <path fill="#006233" fill-rule="nonzero" d="M11 8.776l.067.032c.046.022.071.054.072.08-.025.054-.047.13-.078.194l-.43-.204a.979.979 0 0 0 .068-.199c.01-.021.05-.021.097 0l.056.027m-.203.457l-.068-.032c-.046-.022-.071-.054-.061-.075a1.03 1.03 0 0 0 .111-.178l.43.204c-.03.065-.061.13-.1.183-.022.016-.108-.005-.154-.027"/>
        <path fill="#F7C608" fill-rule="nonzero" d="M10.494 9.574l.057.05c.037.032.052.072.044.1-.045.053-.094.129-.148.191l-.36-.31c.06-.068.108-.144.139-.199.018-.02.06-.012.098.021l.047.04m-.368.446l-.056-.05c-.038-.032-.053-.072-.035-.093.054-.044.117-.098.176-.166l.36.311a1.505 1.505 0 0 1-.167.174c-.028.012-.107-.03-.145-.062"/>
        <path fill="#006233" fill-rule="nonzero" d="M10.506 9.624l.057.049c.039.033.055.07.049.096-.04.045-.08.112-.127.166l-.36-.31a.979.979 0 0 0 .117-.174c.016-.018.055-.008.094.025l.047.041m-.317.387l-.057-.05c-.038-.033-.054-.07-.039-.088a1.03 1.03 0 0 0 .155-.142l.36.311c-.047.054-.094.108-.146.15-.025.01-.102-.034-.14-.067"/>
        <path fill="#F7C608" fill-rule="nonzero" d="M9.789 10.25l.042.061c.028.041.032.084.015.11-.058.04-.127.102-.197.15l-.267-.393c.076-.051.145-.113.19-.16.023-.015.062.004.09.045l.035.052m-.482.343l-.042-.062c-.029-.04-.032-.084-.009-.1.065-.029.142-.066.218-.118l.267.393c-.07.047-.14.095-.21.128-.03.006-.098-.055-.126-.096"/>
        <path fill="#006233" fill-rule="nonzero" d="M9.776 10.307l.042.062c.029.042.035.082.022.106-.05.034-.106.087-.165.127l-.268-.393a.979.979 0 0 0 .158-.137c.02-.014.055.007.084.049l.035.052m-.406.291l-.042-.062c-.029-.042-.035-.082-.015-.096a1.03 1.03 0 0 0 .186-.097l.268.393c-.06.04-.118.08-.18.108-.026.003-.09-.06-.119-.101"/>
        <path fill="#F7C608" fill-rule="nonzero" d="M8.906 10.724l.023.071c.016.048.007.09-.017.111-.068.022-.153.064-.235.09l-.148-.45c.089-.03.174-.071.231-.103.028-.009.06.02.075.067l.02.06m-.57.2l-.023-.071c-.016-.048-.007-.09.02-.099a1.46 1.46 0 0 0 .247-.055l.148.451a1.649 1.649 0 0 1-.243.067c-.03-.003-.079-.08-.094-.127"/>
        <path fill="#006233" fill-rule="nonzero" d="M8.869 10.778l.023.072c.016.048.01.088-.008.107-.057.019-.127.055-.195.077l-.149-.451a.987.987 0 0 0 .191-.09c.023-.007.052.023.068.07l.02.06m-.474.17l-.023-.072c-.016-.048-.01-.089.012-.096.06-.007.133-.018.206-.042l.149.451c-.068.023-.136.045-.203.054-.026-.004-.07-.082-.086-.13"/>
        <path fill="#F7C608" fill-rule="nonzero" d="M7.906 10.96l.001.076c0 .05-.02.088-.05.1-.072.001-.166.015-.253.016l-.005-.475c.094-.001.188-.015.253-.028.03 0 .051.037.052.087v.062m-.607.02l-.001-.076c0-.05.02-.088.05-.088.072.012.16.024.253.023l.005.475c-.087 0-.174.001-.253-.01-.03-.013-.052-.1-.053-.15"/>
        <path fill="#006233" fill-rule="nonzero" d="M7.855 11.001v.075c.001.05-.017.088-.04.1-.06 0-.139.014-.211.015l-.005-.476c.078 0 .156-.014.21-.026.024 0 .043.036.043.086l.001.063m-.506.018v-.075c-.001-.051.017-.088.04-.088.061.011.134.023.212.022l.005.476c-.073 0-.145.001-.211-.01-.024-.012-.043-.1-.044-.15"/>
    </g>
</svg>
