<svg xmlns="http://www.w3.org/2000/svg" width="15" height="15" viewBox="0 0 15 15">
    <g fill="none" fill-rule="evenodd">
        <path fill="#E42E1C" d="M7.384 14.67a7.287 7.287 0 0 0 6.624-4.251H.76a7.288 7.288 0 0 0 6.624 4.25"/>
        <path fill="#FEFEFE" d="M7.384.096A7.288 7.288 0 0 0 .76 4.346h13.248A7.287 7.287 0 0 0 7.384.096"/>
        <path fill="#009A71" d="M.097 7.383c0 1.083.238 2.112.663 3.036h13.248a7.257 7.257 0 0 0 .663-3.036 7.259 7.259 0 0 0-.663-3.037H.76a7.259 7.259 0 0 0-.663 3.037"/>
    </g>
</svg>
