<svg xmlns="http://www.w3.org/2000/svg" width="15" height="15" viewBox="0 0 15 15">
    <g fill="none" fill-rule="evenodd">
        <path fill="#DE2B14" d="M14.67 7.384a7.287 7.287 0 1 1-14.573 0 7.287 7.287 0 0 1 14.574 0"/>
        <path fill="#FEDD08" d="M3.348 2.976l.47 1.452h1.528l-1.235.898.47 1.453-1.233-.898-1.237.898.472-1.453-1.236-.898h1.528zM7.327 2.217l-.032.503.466.185-.487.124-.032.502-.269-.424-.487.124.32-.388-.267-.424.467.185zM9.042 3.845l-.23.447.355.356-.495-.08-.23.449-.077-.498-.497-.079.448-.227-.076-.497.354.356zM8.527 5.882l.153.478h.503l-.407.295.156.48-.407-.297-.407.295.156-.478-.406-.295h.502zM7.323 7.416l-.032.501.467.187-.488.123-.032.502-.269-.425-.487.125.32-.387-.266-.425.467.186z"/>
    </g>
</svg>
