<svg xmlns="http://www.w3.org/2000/svg" width="15" height="15" viewBox="0 0 15 15">
    <g fill="none" fill-rule="evenodd">
        <path fill="#FECF09" d="M7.384 14.67a7.287 7.287 0 0 0 6.624-4.25H.76a7.286 7.286 0 0 0 6.624 4.25"/>
        <path fill="#020203" d="M7.384.097A7.287 7.287 0 0 0 .76 4.347h13.248A7.287 7.287 0 0 0 7.384.097"/>
        <path fill="#E4251D" d="M.097 7.384c0 1.083.239 2.111.663 3.036h13.248a7.248 7.248 0 0 0 .663-3.036 7.249 7.249 0 0 0-.663-3.037H.76a7.26 7.26 0 0 0-.663 3.037"/>
    </g>
</svg>
