<svg xmlns="http://www.w3.org/2000/svg" width="15" height="15" viewBox="0 0 15 15">
    <g fill="none" fill-rule="evenodd">
        <path fill="#E42034" d="M.179 8.476a7.295 7.295 0 0 0 5.02 5.86v-5.86H.178zM5.198.43a7.298 7.298 0 0 0-5.02 5.86h5.02V.43zM7.384 14.67h.014a7.288 7.288 0 0 0 7.191-6.194H7.384v6.194zM7.384 6.29h7.205A7.29 7.29 0 0 0 7.393.096h-.01V6.29z"/>
        <path fill="#FEFEFE" d="M7.384 8.476h7.205a7.343 7.343 0 0 0 0-2.186H7.384V.096A7.3 7.3 0 0 0 5.198.43v5.86H.178a7.484 7.484 0 0 0 0 2.186h5.02v5.86c.69.217 1.425.334 2.186.334V8.476z"/>
    </g>
</svg>
