<svg xmlns="http://www.w3.org/2000/svg" width="15" height="15" viewBox="0 0 15 15">
    <g fill="none" fill-rule="evenodd">
        <path fill="#FEFEFE" d="M13.443 11.432H1.325c.41.612.91 1.158 1.481 1.62h9.155a7.304 7.304 0 0 0 1.482-1.62M14.625 8.194H.143c.062.562.188 1.104.37 1.62h13.742a7.245 7.245 0 0 0 .37-1.62M8.193 6.574h6.432a7.28 7.28 0 0 0-.37-1.618H8.193v1.618zM8.193 3.336h5.25a7.325 7.325 0 0 0-1.48-1.62h-3.77v1.62z"/>
        <path fill="#0C62AA" d="M2.806 13.052a7.256 7.256 0 0 0 4.578 1.619 7.253 7.253 0 0 0 4.577-1.62H2.806zM14.254 9.813H.514c.203.577.477 1.12.811 1.619h12.118a7.27 7.27 0 0 0 .811-1.619M3.336 4.956H.513a7.276 7.276 0 0 0-.37 3.238h3.193V4.956zM8.193 4.956h6.062a7.256 7.256 0 0 0-.812-1.62h-5.25v1.62zM8.193 4.956H4.955v3.238h9.67a7.317 7.317 0 0 0 0-1.62H8.193V4.956zM4.955 3.336h3.238v-1.62h3.77A7.255 7.255 0 0 0 7.383.098c-.852 0-1.669.148-2.429.416v2.823zM3.336 1.325a7.324 7.324 0 0 0-2.01 2.01h2.01v-2.01z"/>
        <path fill="#FEFEFE" d="M3.336 8.194h1.62V4.956h3.237v-1.62H4.955V.514a7.265 7.265 0 0 0-1.62.811v2.01h-2.01a7.28 7.28 0 0 0-.812 1.62h2.823v3.24z"/>
    </g>
</svg>
