<svg xmlns="http://www.w3.org/2000/svg" width="15" height="15" viewBox="0 0 15 15">
    <g fill="none" fill-rule="evenodd">
        <path fill="#FEFEFE" d="M7.384 14.67a7.285 7.285 0 0 0 6.624-4.25H.76a7.286 7.286 0 0 0 6.624 4.25"/>
        <path fill="#2A71B7" d="M7.384.096A7.287 7.287 0 0 0 .76 4.347h13.248A7.287 7.287 0 0 0 7.384.097"/>
        <path fill="#020203" d="M.097 7.383c0 1.084.239 2.112.663 3.036h13.248a7.258 7.258 0 0 0 .663-3.036 7.258 7.258 0 0 0-.663-3.036H.76a7.257 7.257 0 0 0-.663 3.036"/>
    </g>
</svg>
