<svg xmlns="http://www.w3.org/2000/svg" width="15" height="15" viewBox="0 0 15 15">
    <g fill="none" fill-rule="evenodd">
        <path fill="#E4241D" d="M12.492 10.25h1.315v-.1h-1.315v.1zm.91.405h-.504v-.203h-.305v.203h-.1v-.303h.505v.202h.304v-.102h-.203v-.1h.304v.303zm-.707 0h.102v-.1h-.102v.1zm-.304 0h-.505v-.203h-.305v.102h.204v.1h-.304v-.302h.405v-.203h.1v.405h.102v-.405h.102v.405h.1v-.405h.101v.506zm-1.011 0h-.506v-.203h-.304v.203h-.1v-.303h.506v.202h.303v-.102h-.202v-.1h.303v.303zm-.708 0h.101v-.1h-.1v.1zm-.203-.405h1.316v-.1h-1.316v.1zm-.101.405h-.505v-.203h-.304v.102h.202v.1h-.303v-.302h.405v-.203h.101v.405h.101v-.405h.101v.405h.101v-.405h.101v.506zm-1.011 0h-.505v-.203h-.305v.203h-.1v-.303h.506v.202h.303v-.102h-.202v-.1h.303v.303zm-.708 0h.1v-.1h-.1v.1zm-.203-.405h1.315v-.1H8.446v.1zm-.101.405H7.84v-.203h-.304v.102h.202v.1h-.304v-.302h.406v-.203h.1v.405h.102v-.405h.101v.405h.102v-.405h.1v.506zm-1.921-.405h1.314v-.1H6.424v.1zm.91.405h-.506v-.203h-.304v.203h-.1v-.303h.506v.202h.302v-.102h-.201v-.1h.302v.303zm-.708 0h.1v-.1h-.1v.1zm-.304 0h-.505v-.203h-.305v.102h.202v.1h-.302v-.302h.405v-.203h.1v.405h.102v-.405h.101v.405h.1v-.405h.102v.506zm-1.011 0h-.506v-.203h-.304v.203H4.4v-.303h.506v.202h.304v-.102h-.203v-.1h.304v.303zm-.708 0h.1v-.1h-.1v.1zM4.4 10.25h1.314v-.1H4.4v.1zm-.1.405h-.506v-.203H3.49v.102h.202v.1h-.304v-.302h.406v-.203h.1v.405h.102v-.405h.101v.405h.101v-.405h.101v.506zm-1.013 0h-.505v-.203h-.304v.203h-.1v-.303h.506v.202h.303v-.102h-.202v-.1h.302v.303zm-.708 0h.101v-.1h-.101v.1zm-.202-.405h1.315v-.1H2.377v.1zm-.1.405H1.77v-.203h-.304v.102h.201v.1h-.302v-.302h.405v-.203h.1v.405h.102v-.405h.1v.405h.102v-.405h.101v.506zm11.126-.607h-.91v-.202h-.102v.202h-.91v-.202h-.101v.202h-.91v-.202h-.102v.202h-.91v-.202h-.101v.202h-.91v-.202h-.102v.202h-.91v-.202h-.102v.202h-.91v-.202h-.101v.202h-.91v-.202H5.31v.202H4.4v-.202h-.1v.202h-.912v-.202h-.1v.202h-.91v-.202h-.102v.202h-.91v-.202h-.101v.202H.607c.013.033.023.068.036.101h1.025v.101H.684c.015.035.034.067.049.102H.86v.202h.304v-.102H.96v-.1h.304v.303H.879a7.281 7.281 0 0 0 6.505 4.016 7.28 7.28 0 0 0 6.525-4.058v-.16h-.304v.101h.202v.1h-.303v-.302h.405v-.203h.101v.254c.034-.073.07-.144.101-.218v-.036h.013c.014-.033.024-.068.037-.1h-.657v-.203h-.101v.202z"/>
        <path fill="#FEFEFE" d="M.533 9.846H14.235a7.26 7.26 0 0 0 .436-2.462 7.26 7.26 0 0 0-.436-2.462H.533a7.26 7.26 0 0 0-.436 2.462c0 .865.159 1.692.436 2.462"/>
        <path fill="#00A43D" d="M13.403 4.618h-.506v-.202h-.304v.202h-.1v-.304h.505v.202h.303v-.1H13.1v-.102h.304v.304zm-.709 0h.101v-.102h-.1v.102zm-.202.303h.91V4.72h-.91v.202zm0-.708h1.315v-.101h-1.315v.1zm-.1.405h-.506v-.202h-.305v.1h.204v.102h-.303v-.304h.404v-.202h.1v.404h.102v-.404h.101v.404h.101v-.404h.101v.506zm-.91.303h.91V4.72h-.91v.202zm-.102-.303h-.506v-.202h-.304v.202h-.1v-.304h.506v.202h.303v-.1h-.202v-.102h.303v.304zm-.708 0h.1v-.102h-.1v.102zm.708.303h-.91V4.72h.91v.201zm-1.012-.303h-.505v-.202H9.56v.1h.203v.102h-.304v-.304h.405v-.202h.101v.405h.101v-.405h.101v.405h.101v-.405h.101v.506zm-.91.304h.91V4.72h-.91v.202zm-.101-.304h-.505v-.202h-.305v.202h-.1v-.304h.505v.203h.304v-.1h-.202v-.103h.303v.304zm-.709 0h.102v-.101h-.102v.101zm-.202.304h.91V4.72h-.91v.202zm-.1-.304H7.84v-.202h-.305v.1h.204v.102h-.305v-.304h.406v-.202h.1v.405h.102v-.405h.101v.405h.101v-.405h.101v.506zm-.912.304h.911V4.72h-.91v.202zm-.1-.304h-.506v-.202h-.304v.202h-.1v-.304h.506v.203h.302v-.1h-.201v-.103h.302v.304zm-.709 0h.102v-.101h-.102v.101zm-.201.304h.91V4.72h-.91v.202zm-.102-.304h-.505v-.202h-.305v.1h.204v.102H5.41v-.304h.406v-.202h.1v.405h.102v-.405h.1v.405h.102v-.405h.1v.506zm-.91.304h.91V4.72h-.91v.202zm-.101-.304h-.506v-.202h-.304v.202H4.4v-.304h.506v.203h.304v-.1h-.203v-.103h.304v.304zm-.708 0h.101v-.101h-.1v.101zm-.203.304h.91V4.72H4.4v.202zm-.1-.304h-.506v-.201H3.49v.1h.202v.102h-.304v-.304h.406v-.202h.1v.404h.102v-.404h.101v.404h.101v-.405H4.3v.506zm0 .304h-.912V4.72H4.3v.202zm-1.013-.303h-.505v-.202h-.304v.202h-.1v-.304h.505v.202h.304v-.1h-.202v-.102h.302v.304zm-.707 0h.101v-.102H2.58v.102zm-.203.303h.91V4.72h-.91v.202zm0-.708h1.315v-.101H2.377v.1zm2.023 0h1.316v-.102H4.4v.101zm2.024 0h1.315v-.102H6.424v.101zm2.022 0h1.316v-.102H8.446v.101zm2.023-.102h1.316v.1l-1.316.001v-.1zm-8.193.507h-.505v-.202h-.305v.1h.204v.102h-.304v-.304h.405v-.202h.1v.404h.102v-.404h.1v.404h.101v-.404h.102v.506zm-.91.303h.91V4.72h-.91v.202zm12.87 0h-.73v-.203h.655l-.037-.101h-.215v-.202h-.304v.1h.202v.102h-.302v-.304h.404v-.158A7.28 7.28 0 0 0 7.384.097 7.28 7.28 0 0 0 .879 4.113h.791v.1H.83a4.046 4.046 0 0 0-.048.102H.86v.202h.304v-.1H.96v-.102h.304v.304H.759v-.202H.733c-.025.054-.052.107-.075.162v.04H.644c-.014.033-.024.068-.037.1h.658v.203H.533h13.702z"/>
        <path fill="#D90F15" d="M6.22 10.554h-.1v-.405h-.1v.405h-.102v-.405h-.101v.203H5.41v.303h.303v-.1h-.202v-.103h.305v.203h.505v-.506H6.22zM2.175 10.554h-.101v-.405h-.101v.405h-.101v-.405H1.77v.203h-.405v.303h.302v-.1h-.201v-.103h.304v.203h.506v-.506h-.102zM2.378 10.15h.91v-.304h-.91zM2.58 10.705h.15v-.15h-.15z"/>
        <path fill="#D90F15" d="M1.366 10.15h.91v-.304h-.91zM4.603 10.705h.15v-.15h-.15zM4.4 10.3h1.314v-.15H4.4zM4.198 10.554h-.101v-.405h-.1v.405h-.103v-.405h-.1v.203h-.406v.303h.304v-.1H3.49v-.103h.304v.203h.505v-.506h-.101zM2.985 10.503h.201v.153h-.303v-.304h-.506v.454h.101v-.303h.304v.303h.505v-.454h-.302z"/>
        <path fill="#D90F15" d="M2.377 10.3h1.315v-.15H2.377zM10.47 10.15h.91v-.304h-.91zM3.389 10.15h.91v-.304h-.91zM8.447 10.15h.91v-.304h-.91zM11.48 10.15h.911v-.304h-.91zM12.492 10.15h.91v-.304h-.91zM9.458 10.15h.91v-.304h-.91zM5.412 10.15h.91v-.304h-.91zM4.4 10.15h.91v-.304H4.4zM6.424 10.15h.91v-.304h-.91zM7.434 10.15h.911v-.304h-.91zM5.007 10.503h.203v.153h-.304v-.304H4.4v.454h.1v-.303h.305v.303h.506v-.454h-.304zM10.47 10.3h1.315v-.15H10.47z"/>
        <path fill="#D90F15" d="M12.29 10.554h-.1v-.405h-.102v.405h-.101v-.405h-.101v.203h-.406v.303h.305v-.1h-.204v-.103h.305v.203h.505v-.506h-.1zM11.077 10.503h.202v.153h-.303v-.304h-.506v.454h.1v-.303h.304v.303h.506v-.454h-.303z"/>
        <path fill="#D90F15" d="M10.672 10.705h.151v-.15h-.15zM12.695 10.705h.152v-.15h-.152z"/>
        <path fill="#D90F15" d="M13.1 10.503h.201v.153h-.303v-.304h-.506v.454h.101v-.303h.305v.303h.505v-.454h-.304zM12.492 10.3h1.315v-.15h-1.315zM6.626 10.705h.15v-.15h-.15zM8.245 10.554h-.102v-.405h-.101v.405H7.94v-.405H7.84v.203h-.406v.303h.304v-.1h-.202v-.103h.304v.203h.505v-.506h-.1z"/>
        <path fill="#D90F15" d="M6.424 10.3h1.314v-.15H6.424zM7.03 10.503h.202v.153H6.93v-.304h-.506v.454h.1v-.303h.304v.303h.505v-.454h-.302zM8.446 10.3h1.315v-.15H8.446z"/>
        <path fill="#D90F15" d="M10.267 10.554h-.101v-.405h-.1v.405h-.102v-.405h-.101v.203h-.405v.303h.303v-.1H9.56v-.103h.304v.203h.505v-.506h-.101zM9.054 10.503h.202v.153h-.304v-.304h-.506v.454h.101v-.303h.305v.303h.505v-.454h-.303z"/>
        <path fill="#D90F15" d="M8.65 10.705h.15v-.15h-.15z"/>
        <path fill="#239E40" d="M5.007 4.467h.203v.152h-.304v-.305H4.4v.456h.1v-.303h.305v.303h.506v-.456h-.304z"/>
        <path fill="#239E40" d="M4.603 4.669h.152v-.152h-.152zM3.388 5.023H4.3V4.72h-.91zM4.198 4.517h-.101v-.404h-.1v.404h-.103v-.404h-.1v.202h-.406v.304h.304v-.102H3.49v-.1h.304v.202h.505v-.507h-.101zM4.4 5.023h.91V4.72H4.4zM5.412 5.023h.91V4.72h-.91zM6.424 5.023h.91V4.72h-.91zM6.22 4.517h-.1v-.405h-.1v.405h-.102v-.405h-.101v.202H5.41v.304h.305v-.101h-.204v-.101h.305v.202h.505v-.506H6.22z"/>
        <path fill="#239E40" d="M7.03 4.467h.202v.152H6.93v-.305h-.506v.456h.1v-.303h.304v.303h.505v-.456h-.302z"/>
        <path fill="#239E40" d="M6.625 4.669h.153v-.152h-.153zM11.785 4.112H10.47v.152h1.315zM2.175 4.517h-.101v-.404h-.101v.404h-.101v-.404H1.77v.202h-.405v.304h.304v-.102h-.203v-.1h.304v.202h.506v-.506h-.102zM1.366 5.023h.91V4.72h-.91zM2.58 4.67h.152v-.153H2.58zM8.446 4.264h1.316v-.152H8.446zM6.424 4.264h1.315v-.152H6.424zM2.377 5.023h.91V4.72h-.91zM2.377 4.265h1.315v-.152H2.377zM4.4 4.264h1.316v-.152H4.4z"/>
        <path fill="#239E40" d="M2.985 4.468h.201v.15h-.303v-.303h-.506v.455h.101v-.302h.304v.302h.505v-.455h-.302zM12.492 4.264h1.315v-.152h-1.315zM7.434 5.023h.911V4.72h-.91zM11.482 5.022h.91V4.72h-.91zM12.492 5.022h.91V4.72h-.91zM11.077 4.467h.202v.15h-.303v-.303h-.506v.456h.1v-.303h.304v.302h.506v-.455h-.303zM12.694 4.668h.152v-.152h-.152z"/>
        <path fill="#239E40" d="M13.1 4.467h.201v.15h-.303v-.303h-.506v.455h.101v-.302h.305v.302h.505v-.455h-.304zM12.29 4.516h-.1v-.404h-.102v.404h-.101v-.404h-.101v.202h-.404v.304h.303v-.102h-.204v-.1h.305v.202h.505v-.506h-.1zM8.648 4.669h.154v-.152h-.154zM8.446 5.023h.91V4.72h-.91zM10.672 4.668h.15v-.152h-.15zM8.245 4.517h-.102v-.405h-.101v.405H7.94v-.405H7.84v.202h-.406v.304h.305v-.101h-.203v-.101h.304v.202h.505v-.506h-.1z"/>
        <path fill="#239E40" d="M9.054 4.467h.202v.152h-.304v-.305h-.506v.456h.101v-.303h.305v.303h.505v-.456h-.303zM10.47 5.023h.91v-.304h-.91zM9.458 5.023h.91V4.72h-.91zM10.267 4.517h-.101v-.405h-.1v.405h-.102v-.405h-.101v.202h-.405v.304h.304v-.101h-.203v-.101h.304v.202h.505v-.506h-.101z"/>
        <path fill="#FEFEFE" d="M2.175 4.517h-.101v-.404h-.101v.404h-.101v-.404H1.77v.202h-.405v.304h.304v-.102h-.203v-.1h.304v.202h.506v-.506h-.102z"/>
        <path fill="#FEFEFE" d="M1.67 4.113H.88c-.018.05-.033.1-.05.152h.84v-.152zM.665 4.58c-.008.019-.013.04-.021.058h.021V4.58zM.76 4.77h.505v-.455H.96v.153h.203v.15H.86v-.303H.782l-.049.153H.76v.302zM2.377 4.265h1.315v-.152H2.377z"/>
        <path fill="#FEFEFE" d="M4.198 4.517h-.101v-.404h-.1v.404h-.103v-.404h-.1v.202h-.406v.304h.304v-.102H3.49v-.1h.304v.202h.505v-.507h-.101zM2.478 4.468h.304v.302h.505v-.455h-.302v.153h.202v.15h-.303v-.303h-.507v.455h.101z"/>
        <path fill="#FEFEFE" d="M2.58 4.67h.152v-.153H2.58zM4.4 4.264h1.316v-.152H4.4zM4.603 4.67h.152v-.153h-.152z"/>
        <path fill="#FEFEFE" d="M4.501 4.467h.304v.303h.506v-.456h-.304v.153h.203v.152h-.304v-.305H4.4v.456H4.5zM6.22 4.517h-.1v-.405h-.1v.405h-.102v-.405h-.101v.202H5.41v.304h.305v-.101h-.204v-.101h.305v.202h.505v-.506H6.22zM6.625 4.67h.153v-.153h-.153z"/>
        <path fill="#FEFEFE" d="M6.524 4.467h.304v.303h.505v-.456h-.302v.153h.201v.152H6.93v-.305h-.506v.456h.1zM8.245 4.517h-.102v-.405h-.101v.405H7.94v-.405H7.84v.202h-.406v.304h.305v-.101h-.203v-.101h.304v.202h.505v-.506h-.1z"/>
        <path fill="#FEFEFE" d="M6.424 4.264h1.315v-.152H6.424zM8.648 4.67h.154v-.153h-.154z"/>
        <path fill="#FEFEFE" d="M8.547 4.467h.305v.303h.505v-.456h-.303v.153h.202v.152h-.303v-.305h-.507v.456h.101zM10.267 4.517h-.101v-.405h-.1v.405h-.102v-.405h-.101v.202h-.405v.304h.304v-.101h-.203v-.101h.304v.202h.505v-.506h-.101z"/>
        <path fill="#FEFEFE" d="M8.446 4.264h1.316v-.152H8.446zM10.57 4.467h.304v.302h.506v-.455h-.303v.153h.202v.15h-.303v-.303h-.507v.456h.101zM12.29 4.516h-.1v-.404h-.102v.404h-.101v-.404h-.101v.202h-.404v.304h.303v-.102h-.204v-.1h.305v.202h.505v-.506h-.1z"/>
        <path fill="#FEFEFE" d="M10.672 4.668h.15v-.152h-.15zM11.785 4.112H10.47v.152h1.315zM12.694 4.668h.152v-.152h-.152zM12.492 4.264h1.315v-.152h-1.315z"/>
        <path fill="#FEFEFE" d="M13.505 4.327v.329h.302v-.11h-.201v-.109h.303v.219h.215l-.041-.11h-.073v-.164c-.032-.076-.067-.151-.1-.226v.17h-.405zM12.593 4.467h.305v.302h.505v-.455H13.1v.153h.202v.15h-.303v-.303h-.507v.455h.101zM1.366 5.023h.91V4.72h-.91zM1.265 4.72H.607c-.027.1-.05.201-.074.303h.732V4.72zM2.378 5.023h.91V4.72h-.91zM3.388 5.023H4.3V4.72h-.91zM5.412 5.023h.91V4.72h-.91zM4.4 5.023h.91v-.304H4.4zM7.434 5.023h.911V4.72h-.91zM6.424 5.023h.91v-.304h-.91zM8.447 5.023h.91v-.304h-.91zM9.458 5.023h.91V4.72h-.91zM11.38 4.72h-.91v.303h.91zM11.482 5.022h.91V4.72h-.91z"/>
        <path fill="#FEFEFE" d="M12.492 5.022h.91V4.72h-.91zM13.505 5.022h.73c-.024-.101-.048-.203-.074-.303h-.656v.303zM2.175 10.554h-.101v-.405h-.101v.405h-.101v-.405H1.77v.203h-.405v.303h.302v-.1h-.201v-.103h.304v.203h.506v-.506h-.102zM1.265 10.352H.96v.15h.203v.153H.86v-.303H.733c.046.154.095.305.146.454h.386v-.454z"/>
        <path fill="#FEFEFE" d="M1.668 10.15H.643l.041.15h.984v-.15zM2.985 10.503h.201v.153h-.303v-.304h-.506v.454h.101v-.303h.304v.303h.505v-.454h-.302z"/>
        <path fill="#FEFEFE" d="M2.58 10.705h.15v-.15h-.15zM2.377 10.3h1.315v-.15H2.377z"/>
        <path fill="#FEFEFE" d="M4.198 10.554h-.101v-.405h-.1v.405h-.103v-.405h-.1v.203h-.406v.303h.304v-.1H3.49v-.103h.304v.203h.505v-.506h-.101zM4.4 10.3h1.314v-.15H4.4zM5.007 10.503h.203v.153h-.304v-.304H4.4v.454h.1v-.303h.305v.303h.506v-.454h-.304z"/>
        <path fill="#FEFEFE" d="M6.22 10.554h-.1v-.405h-.1v.405h-.102v-.405h-.101v.203H5.41v.303h.303v-.1h-.202v-.103h.305v.203h.505v-.506H6.22zM4.603 10.705h.15v-.15h-.15zM7.03 10.503h.202v.153H6.93v-.304h-.506v.454h.1v-.303h.304v.303h.505v-.454h-.302zM6.424 10.3h1.314v-.15H6.424z"/>
        <path fill="#FEFEFE" d="M8.245 10.554h-.102v-.405h-.101v.405H7.94v-.405H7.84v.203h-.406v.303h.304v-.1h-.202v-.103h.304v.203h.505v-.506h-.1zM6.626 10.705h.15v-.15h-.15zM9.054 10.503h.202v.153h-.304v-.304h-.506v.454h.101v-.303h.305v.303h.505v-.454h-.303zM10.267 10.554h-.101v-.405h-.1v.405h-.102v-.405h-.101v.203h-.405v.303h.303v-.1H9.56v-.103h.304v.203h.505v-.506h-.101z"/>
        <path fill="#FEFEFE" d="M8.446 10.3h1.315v-.15H8.446zM8.65 10.705h.15v-.15h-.15zM10.672 10.705h.151v-.15h-.15zM10.47 10.3h1.315v-.15H10.47z"/>
        <path fill="#FEFEFE" d="M12.29 10.554h-.1v-.405h-.102v.405h-.101v-.405h-.101v.203h-.406v.303h.305v-.1h-.204v-.103h.305v.203h.505v-.506h-.1zM11.077 10.503h.202v.153h-.303v-.304h-.506v.454h.1v-.303h.304v.303h.506v-.454h-.303zM14.111 10.203c.007-.018.012-.036.02-.054h-.02v.054zM13.1 10.503h.201v.153h-.303v-.304h-.506v.454h.101v-.303h.305v.303h.505v-.454h-.304zM14.01 10.15h-.1v.201h-.406v.304h.303v-.1h-.202v-.103h.304v.16c.034-.069.069-.139.101-.209v-.254z"/>
        <path fill="#FEFEFE" d="M12.695 10.705h.152v-.15h-.152zM12.492 10.3h1.315v-.15h-1.315zM1.366 10.15h.91v-.304h-.91zM1.265 9.846H.533c.024.101.047.204.074.303h.658v-.303zM2.378 10.15h.91v-.304h-.91zM3.388 10.15H4.3v-.304h-.91zM4.4 10.15h.91v-.304H4.4zM5.412 10.15h.91v-.304h-.91zM7.434 10.15h.911v-.304h-.91zM6.424 10.15h.91v-.304h-.91zM9.458 10.15h.91v-.304h-.91zM8.447 10.15h.91v-.304h-.91zM10.47 10.15h.91v-.304h-.91zM11.48 10.15h.911v-.304h-.91zM13.504 9.846v.303h.657c.027-.1.05-.202.074-.303h-.731zM12.492 10.15h.91v-.304h-.91z"/>
        <path fill="#D90F15" d="M7.919 5.228s.007.035.008.052a.45.45 0 0 1-.124.367.27.27 0 0 1-.236.077.307.307 0 0 1-.183-.115.307.307 0 0 1-.183.115.27.27 0 0 1-.229-.07.46.46 0 0 1-.123-.426.65.65 0 0 0 .054.086.336.336 0 0 0 .234.132.325.325 0 0 0 .247-.09.414.414 0 0 0 .117.073c.089.035.188.022.27-.032a.408.408 0 0 0 .148-.169"/>
        <path fill="#E4241D" d="M7.117 5.812l.267-.217c.09.074.18.145.268.218l-.013.863c0 .123-.004.245-.006.368-.003.331-.01.662-.013.992-.003.13-.002.259-.006.386l-.004.308c.03-.02.055-.043.081-.064.155-.127.29-.277.403-.441.183-.27.306-.58.355-.902a2.159 2.159 0 0 0-.395-1.609c.204.161.375.365.5.59a2.022 2.022 0 0 1-.298 2.369 2.063 2.063 0 0 1-.494.38c.309.105.639.139.96.102a2.023 2.023 0 0 1-1.119.11c0 .012 0 .025-.008.032-.07.08-.14.16-.21.243h-.002l-.212-.247c-.007-.007-.005-.018-.006-.028a2.013 2.013 0 0 1-1.12-.11 2.22 2.22 0 0 0 .958-.103c-.041-.026-.086-.05-.128-.077a2.016 2.016 0 0 1-.16-3.263c-.017.027-.037.053-.054.08a2.178 2.178 0 0 0 .496 2.939c.001-.088-.001-.175-.001-.26-.006-.113-.003-.226-.007-.34l-.014-1c0-.124-.005-.248-.005-.372-.005-.316-.01-.632-.013-.947"/>
        <path fill="#E4241D" d="M5.697 6.092a1.72 1.72 0 0 1 .767-.446l-.066.05a2.167 2.167 0 0 0-.826 1.61 2.163 2.163 0 0 0 .522 1.513c-.045-.022-.088-.051-.132-.078a1.725 1.725 0 0 1-.768-1.389v-.094a1.716 1.716 0 0 1 .503-1.166M8.302 5.646c.028.005.055.016.082.023a1.735 1.735 0 0 1 1.19 1.595v.084a1.7 1.7 0 0 1-.209.78 1.705 1.705 0 0 1-.694.692c.18-.21.321-.452.409-.715a2.148 2.148 0 0 0-.136-1.72 2.159 2.159 0 0 0-.642-.739"/>
    </g>
</svg>
