<svg xmlns="http://www.w3.org/2000/svg" width="15" height="15" viewBox="0 0 15 15">
    <g fill="none" fill-rule="evenodd">
        <path fill="#FEFEFE" d="M.235 9.442c.504 1.914 1.783 3.522 3.492 4.488V9.442H.235zM3.727 1.31C2.018 2.277.739 3.886.235 5.799h3.492V1.311zM7.453 5.798h7.217C13.844 2.66 10.933.34 7.467.333h-.014v5.465zM7.453 14.907h.009c3.469-.005 6.381-2.325 7.208-5.465H7.453v5.465z"/>
        <path fill="#2A3281" d="M7.453 9.442h7.217a7.129 7.129 0 0 0 .235-1.822c0-.629-.081-1.24-.235-1.822H7.453V.333a7.54 7.54 0 0 0-3.726.978v4.487H.235A7.14 7.14 0 0 0 0 7.62c0 .629.082 1.24.235 1.822h3.492v4.488a7.55 7.55 0 0 0 3.716.977h.01V9.442z"/>
    </g>
</svg>
