<svg xmlns="http://www.w3.org/2000/svg" width="15" height="15" viewBox="0 0 15 15">
    <g fill="none" fill-rule="evenodd">
        <path fill="#363189" d="M0 7.452a7.452 7.452 0 0 0 4.347 6.775V.677A7.453 7.453 0 0 0 0 7.453"/>
        <path fill="#E7423A" d="M14.905 7.452A7.454 7.454 0 0 0 10.558.678v13.549a7.453 7.453 0 0 0 4.347-6.775"/>
        <path stroke="#69676A" stroke-width=".1" d="M14.905 7.452A7.454 7.454 0 0 0 10.558.678v13.549a7.453 7.453 0 0 0 4.347-6.775z"/>
        <path fill="#FEFEFE" d="M7.453 0c-1.109 0-2.16.244-3.106.678v13.548a7.421 7.421 0 0 0 3.106.679 7.42 7.42 0 0 0 3.105-.679V.678A7.425 7.425 0 0 0 7.453 0"/>
    </g>
</svg>
