<svg xmlns="http://www.w3.org/2000/svg" width="15" height="15" viewBox="0 0 15 15">
    <g fill="none" fill-rule="evenodd">
        <path fill="#26346C" d="M.655 4.585c-.084.2-.159.404-.224.612h1.144l-.92-.612zM14.109 10.193c.085-.203.16-.41.228-.623h-1.164l.936.623zM2.213 12.517a7.284 7.284 0 0 0 2.985 1.82v-3.81l-2.985 1.99zM5.198.431A7.279 7.279 0 0 0 2.205 2.26l2.993 1.995V.43zM14.336 5.197a7.18 7.18 0 0 0-.224-.612l-.92.612h1.144zM9.57 14.337a7.281 7.281 0 0 0 2.985-1.82l-2.985-1.99v3.81zM.431 9.57c.067.212.143.42.228.623l.935-.623H.431zM12.562 2.259A7.281 7.281 0 0 0 9.57.43v3.823l2.992-1.995z"/>
        <path fill="#FEFEFE" d="M14.557 8.659H8.659v5.898a7.34 7.34 0 0 0 .91-.22v-3.81l2.986 1.99c.338-.34.642-.714.907-1.115L10.708 9.57h1.73l1.502.998c.059-.123.116-.248.169-.375l-.935-.623h1.163c.093-.296.165-.6.22-.911M5.198.431v3.823L2.205 2.259a7.286 7.286 0 0 0-.885 1.084l2.788 1.854h-1.73L.84 4.176c-.066.134-.128.27-.186.409l.92.612H.431c-.093.297-.165.6-.22.912h5.898V.21a7.245 7.245 0 0 0-.911.221M.21 8.659c.056.311.128.615.221.91h1.163l-.935.624c.178.426.396.83.647 1.21L4.062 9.57h1.136v.395l-3.31 2.201c.105.12.213.238.325.35l2.985-1.989v3.81c.296.093.6.165.91.22V8.659H.212zM14.336 5.197h-1.143l.92-.612a7.275 7.275 0 0 0-.67-1.248l-2.796 1.86H9.57v-.434l3.287-2.187a7.593 7.593 0 0 0-.295-.317L9.57 4.254V.43a7.283 7.283 0 0 0-.91-.22v5.898h5.897a7.206 7.206 0 0 0-.22-.912"/>
        <path fill="#E31B13" d="M14.557 6.109H8.659V.21a7.302 7.302 0 0 0-2.55 0v5.898H.21a7.278 7.278 0 0 0 0 2.55h5.898v5.898c.414.074.84.114 1.275.114.435 0 .86-.04 1.275-.114V8.66h5.898a7.244 7.244 0 0 0 0-2.55"/>
        <path fill="#E31B13" d="M10.708 9.57l2.754 1.832c.177-.267.337-.545.478-.834l-1.501-.998h-1.73zM9.57 5.197h1.077l2.797-1.86a7.303 7.303 0 0 0-.586-.76L9.57 4.762v.434zM5.198 9.57H4.062l-2.756 1.833c.177.268.372.522.582.763l3.31-2.2V9.57zM4.109 5.197L1.32 3.343a7.235 7.235 0 0 0-.48.833l1.538 1.021h1.73z"/>
    </g>
</svg>
