<svg xmlns="http://www.w3.org/2000/svg" width="15" height="15" viewBox="0 0 15 15">
    <g fill="none" fill-rule="evenodd">
        <path fill="#FEFEFE" d="M8.923 6.837l.293-.506h-.584zM8.631 8.435h.585l-.292-.505zM6.767 6.331L6.16 7.384l.607 1.051h1.234l.607-1.051-.607-1.053zM3.047 13.24a7.253 7.253 0 0 0 4.337 1.43 7.253 7.253 0 0 0 4.337-1.43H3.047z"/>
        <path fill="#FEFEFE" d="M7.384 10.598l-.933-1.616H4.606l.923-1.598-.687-1.19-.236-.409h1.845l.933-1.616.933 1.616h1.844L9.24 7.383l.923 1.599H8.317l-.933 1.616zm7.287-3.214a7.25 7.25 0 0 0-.993-3.67H1.09a7.259 7.259 0 0 0-.992 3.67c0 1.338.363 2.591.992 3.67h12.59a7.252 7.252 0 0 0 .992-3.67z"/>
        <path fill="#FEFEFE" d="M7.384 5.262l-.302.523h.604zM7.384.097a7.258 7.258 0 0 0-4.337 1.431h8.674A7.257 7.257 0 0 0 7.384.098M5.844 6.837l.292-.506h-.583zM5.553 8.435h.583l-.292-.505zM7.384 9.504l.302-.522h-.604z"/>
        <path fill="#3A4898" d="M11.72 1.528H3.048a7.33 7.33 0 0 0-1.958 2.186h12.59a7.32 7.32 0 0 0-1.958-2.186M13.678 11.053H1.09a7.335 7.335 0 0 0 1.958 2.187h8.674a7.334 7.334 0 0 0 1.957-2.187M8.923 6.837l-.29-.506h.583l-.293.506zm-.292 1.598l.292-.505.293.505H8.63zm-.63 0H6.766L6.16 7.384l.607-1.053H8l.608 1.053L8 8.435zm-.617 1.07l-.302-.523h.604l-.302.522zm-1.54-2.668l-.291-.506h.583l-.292.506zm-.291 1.598l.291-.505.292.505h-.583zm1.831-3.173l.302.524h-.604l.302-.524zM9.24 7.383l.922-1.597H8.317l-.933-1.617-.933 1.617H4.606l.236.409.686 1.189-.922 1.598H6.451l.933 1.616.933-1.616h1.845L9.24 7.383z"/>
    </g>
</svg>
