<svg xmlns="http://www.w3.org/2000/svg" width="15" height="15" viewBox="0 0 15 15">
    <g fill="none" fill-rule="evenodd">
        <path fill="#020203" d="M14.768 7.384a7.384 7.384 0 1 1-14.769 0 7.384 7.384 0 0 1 14.769 0"/>
        <path fill="#178937" d="M7.384 14.671a7.286 7.286 0 0 0 6.624-4.251H.76a7.286 7.286 0 0 0 6.624 4.251"/>
        <path fill="#F3973A" d="M7.384.097A7.287 7.287 0 0 0 .76 4.347h13.248A7.287 7.287 0 0 0 7.384.098"/>
        <path fill="#FEFEFE" d="M.097 7.384c0 1.084.239 2.112.663 3.036h13.248a7.25 7.25 0 0 0 .663-3.036 7.252 7.252 0 0 0-.663-3.036H.76a7.257 7.257 0 0 0-.663 3.036"/>
        <path fill="#232856" d="M9.564 6.71a.161.161 0 1 1-.085-.311.16.16 0 1 1 .085.311M9.679 7.285a.16.16 0 0 1-.16-.161c0-.09.07-.16.16-.16.088 0 .16.07.16.16a.16.16 0 0 1-.16.16M9.643 7.87a.16.16 0 0 1-.115-.198.16.16 0 0 1 .197-.112.16.16 0 1 1-.083.31M9.454 8.426a.162.162 0 0 1-.058-.22.16.16 0 0 1 .219-.058.161.161 0 0 1-.161.278"/>
        <path fill="#232856" d="M9.564 6.71a.161.161 0 1 1-.085-.311.16.16 0 1 1 .085.311M9.679 7.285a.16.16 0 0 1-.16-.161c0-.09.07-.16.16-.16.088 0 .16.07.16.16a.16.16 0 0 1-.16.16M9.643 7.87a.16.16 0 0 1-.115-.198.16.16 0 0 1 .197-.112.16.16 0 1 1-.083.31M9.454 8.426a.162.162 0 0 1-.058-.22.16.16 0 0 1 .219-.058.161.161 0 0 1-.161.278M7.285 5.195a.161.161 0 1 1-.322 0 .16.16 0 0 1 .161-.16.16.16 0 0 1 .161.16M7.871 5.233a.16.16 0 1 1-.31-.083.161.161 0 0 1 .31.083M8.426 5.419a.16.16 0 1 1-.278-.16.162.162 0 0 1 .22-.06.162.162 0 0 1 .058.22M8.914 5.745a.16.16 0 0 1-.227 0 .162.162 0 0 1 0-.228.16.16 0 0 1 .227 0 .159.159 0 0 1 0 .228M9.303 6.185a.163.163 0 0 1-.22-.058.162.162 0 1 1 .28-.161.16.16 0 0 1-.06.219M9.13 8.916a.161.161 0 0 1 0-.229.159.159 0 0 1 .226 0 .16.16 0 0 1 0 .227.163.163 0 0 1-.226.002M8.69 9.303a.159.159 0 0 1 .058-.22.161.161 0 0 1 .162.279.163.163 0 0 1-.22-.06M8.164 9.563a.162.162 0 1 1 .313-.082.16.16 0 0 1-.115.195.164.164 0 0 1-.198-.113M7.589 9.678c0-.09.073-.16.16-.16a.16.16 0 1 1 0 .32.163.163 0 0 1-.16-.16M7.004 9.642a.16.16 0 1 1 .311.083.16.16 0 0 1-.31-.083M6.448 9.453a.16.16 0 0 1 .22-.057.158.158 0 0 1 .059.22.162.162 0 0 1-.22.057.165.165 0 0 1-.06-.22M5.96 9.13a.159.159 0 0 1 .227 0 .157.157 0 0 1 0 .226.16.16 0 0 1-.227 0 .16.16 0 0 1 0-.226M5.572 8.69a.16.16 0 1 1 .16.279.162.162 0 0 1-.218-.06.16.16 0 0 1 .058-.22M5.31 8.163a.161.161 0 1 1-.113.198.163.163 0 0 1 .114-.198M5.195 7.589c.091 0 .161.073.161.16a.161.161 0 0 1-.321 0 .162.162 0 0 1 .16-.16M5.232 7.003a.162.162 0 0 1 .115.198.16.16 0 0 1-.197.113.162.162 0 0 1-.115-.196.165.165 0 0 1 .197-.115M5.42 6.447a.16.16 0 1 1-.22.059.165.165 0 0 1 .22-.06M5.744 5.96a.162.162 0 0 1 0 .227.16.16 0 0 1-.227 0 .163.163 0 0 1 0-.227.16.16 0 0 1 .227 0M6.184 5.572a.16.16 0 1 1-.277.16.16.16 0 0 1 .278-.161M6.71 5.311a.163.163 0 0 1-.113.197.162.162 0 0 1-.084-.312.163.163 0 0 1 .197.115M7.37 7.376l.097-.895-.105-1.35-.094 1.35z"/>
        <path fill="#232856" d="M7.336 7.376l.295-.849.281-1.32-.41 1.287zM7.336 7.376l.505-.744.613-1.203-.73 1.138zM7.336 7.376l.68-.588.904-1.003-.998.91zM7.336 7.376l.808-.393 1.134-.735-1.2.62zM7.336 7.376l.883-.17 1.285-.417-1.32.289zM7.336 7.41l.897.097L9.582 7.4l-1.349-.093z"/>
        <path fill="#232856" d="M7.336 7.376l.85.295 1.323.281-1.288-.41zM7.336 7.376l.745.504 1.204.614-1.138-.73zM7.336 7.376l.59.68 1.003.904-.91-.999zM7.336 7.376l.394.81.736 1.132-.621-1.2zM7.336 7.376l.171.883.418 1.285-.29-1.32z"/>
        <path fill="#232856" d="M7.368 7.376l-.095.897.106 1.35.094-1.35zM7.336 7.376l-.293.85-.282 1.322.411-1.288zM7.336 7.376l-.502.744-.614 1.205.728-1.139zM7.336 7.376l-.678.589-.904 1.004.998-.91zM7.336 7.376l-.807.394-1.134.735 1.201-.62zM7.336 7.376l-.881.172-1.286.416 1.321-.289z"/>
        <path fill="#232856" d="M7.336 7.409l-.895-.097-1.35.107 1.35.094zM7.336 7.376l-.849-.293-1.32-.28 1.286.408zM7.336 7.376l-.743-.503-1.205-.613 1.139.728zM7.336 7.376l-.588-.678-1.003-.904.91.997zM7.336 7.376l-.392-.807-.736-1.133.62 1.2zM7.336 7.376l-.169-.882-.419-1.285.29 1.32z"/>
        <path fill="#232856" d="M6.8 9.566A2.26 2.26 0 1 1 7.97 5.2 2.26 2.26 0 0 1 6.8 9.566M8.042 4.92a2.55 2.55 0 1 0-1.319 4.926 2.55 2.55 0 0 0 1.32-4.926"/>
        <path fill="#232856" d="M7.823 7.501a.454.454 0 1 1-.877-.236.454.454 0 0 1 .877.236M8.426 5.419a.16.16 0 1 1-.278-.16.162.162 0 0 1 .22-.06.162.162 0 0 1 .058.22M8.914 5.745a.16.16 0 0 1-.227 0 .162.162 0 0 1 0-.228.16.16 0 0 1 .227 0 .159.159 0 0 1 0 .228M9.303 6.185a.163.163 0 0 1-.22-.058.162.162 0 1 1 .28-.161.16.16 0 0 1-.06.219M9.13 8.916a.161.161 0 0 1 0-.229.159.159 0 0 1 .226 0 .16.16 0 0 1 0 .227.163.163 0 0 1-.226.002M8.69 9.303a.159.159 0 0 1 .058-.22.161.161 0 0 1 .162.279.163.163 0 0 1-.22-.06M8.164 9.563a.162.162 0 1 1 .313-.082.16.16 0 0 1-.115.195.164.164 0 0 1-.198-.113M7.589 9.678c0-.09.073-.16.16-.16a.16.16 0 1 1 0 .32.163.163 0 0 1-.16-.16M7.004 9.642a.16.16 0 1 1 .311.083.16.16 0 0 1-.31-.083M6.448 9.453a.16.16 0 0 1 .22-.057.158.158 0 0 1 .059.22.162.162 0 0 1-.22.057.165.165 0 0 1-.06-.22M5.96 9.13a.159.159 0 0 1 .227 0 .157.157 0 0 1 0 .226.16.16 0 0 1-.227 0 .16.16 0 0 1 0-.226M5.572 8.69a.16.16 0 1 1 .16.279.162.162 0 0 1-.218-.06.16.16 0 0 1 .058-.22M5.31 8.163a.161.161 0 1 1-.113.198.163.163 0 0 1 .114-.198M5.195 7.589c.091 0 .161.073.161.16a.161.161 0 0 1-.321 0 .162.162 0 0 1 .16-.16M5.232 7.003a.162.162 0 0 1 .115.198.16.16 0 0 1-.197.113.162.162 0 0 1-.115-.196.165.165 0 0 1 .197-.115M5.42 6.447a.16.16 0 1 1-.22.059.165.165 0 0 1 .22-.06M5.744 5.96a.162.162 0 0 1 0 .227.16.16 0 0 1-.227 0 .163.163 0 0 1 0-.227.16.16 0 0 1 .227 0M6.184 5.572a.16.16 0 1 1-.277.16.16.16 0 0 1 .278-.161M6.71 5.311a.163.163 0 0 1-.113.197.162.162 0 0 1-.084-.312.163.163 0 0 1 .197.115M7.285 5.195a.163.163 0 0 1-.16.162.16.16 0 1 1 0-.322.162.162 0 0 1 .16.16"/>
    </g>
</svg>
