<svg xmlns="http://www.w3.org/2000/svg" width="15" height="15" viewBox="0 0 15 15">
    <g fill="none" fill-rule="evenodd">
        <path fill="#020203" d="M14.768 7.384A7.384 7.384 0 1 1 0 7.383a7.384 7.384 0 0 1 14.768.001"/>
        <path fill="#019144" d="M7.385 14.67a7.287 7.287 0 0 0 6.623-4.25H.76a7.29 7.29 0 0 0 6.625 4.25"/>
        <path fill="#E52C2D" d="M7.385.097A7.29 7.29 0 0 0 .76 4.347h13.248A7.287 7.287 0 0 0 7.385.098"/>
        <path fill="#FEFEFE" d="M.097 7.384c0 1.084.238 2.112.662 3.036h13.25a7.253 7.253 0 0 0 .661-3.036 7.25 7.25 0 0 0-.662-3.036H.76a7.256 7.256 0 0 0-.662 3.036"/>
    </g>
</svg>
