<svg xmlns="http://www.w3.org/2000/svg" width="15" height="15" viewBox="0 0 15 15">
    <g fill="none" fill-rule="evenodd">
        <path fill="#020203" d="M14.773 7.385c0 4.078-3.234 7.383-7.223 7.383-3.99 0-7.224-3.305-7.224-7.383C.326 3.307 3.56 0 7.55 0s7.223 3.307 7.223 7.385"/>
        <path fill="#009745" d="M.42 7.385c0 2.94 1.706 5.472 4.16 6.623V.76C2.126 1.912.42 4.444.42 7.385"/>
        <path fill="#E62F38" d="M14.678 7.385c0-2.94-1.705-5.473-4.158-6.625v13.248c2.453-1.151 4.158-3.683 4.158-6.623"/>
        <path fill="#FEFEFE" d="M7.55.098c-1.06 0-2.066.237-2.97.662v13.248c.904.425 1.91.664 2.97.664 1.06 0 2.065-.24 2.97-.664V.76A6.965 6.965 0 0 0 7.55.098"/>
    </g>
</svg>
