<svg xmlns="http://www.w3.org/2000/svg" width="15" height="15" viewBox="0 0 15 15">
    <g fill="none" fill-rule="evenodd">
        <path fill="#FEFEFE" d="M14.67 7.384a7.287 7.287 0 1 1-14.573 0 7.287 7.287 0 0 1 14.574 0"/>
        <path fill="#E41F22" d="M10.265 7.199a2.894 2.894 0 1 1-5.764.525 2.894 2.894 0 0 1 5.764-.525"/>
        <path fill="#2A3B89" d="M4.91 5.967a1.445 1.445 0 1 0 2.47 1.498 1.443 1.443 0 0 1 1.984-.486 1.44 1.44 0 0 1 .487 1.983 2.888 2.888 0 1 1-4.942-2.995"/>
        <path fill="#020203" d="M1.235 5.132l.375.253L3.233 2.98l-.375-.254zM1.814 5.523l.375.253L3.813 3.37l-.376-.254zM2.392 5.912l.375.254L4.39 3.758l-.375-.252zM11.248 9.873l.376.254.751-1.115-.374-.254zM10.377 11.165l.375.252.753-1.114-.375-.253zM11.827 10.263l.375.255.752-1.116-.375-.254zM10.956 11.554l.375.254.753-1.114-.376-.254zM12.405 10.654l.376.253.751-1.115-.375-.253zM11.534 11.945l.375.253.752-1.115-.375-.253zM12.579 5.774l.375-.252-1.622-2.407-.376.253zM12.287 4.093l.374-.253-.752-1.115-.375.253zM13.158 5.385l.374-.253-.751-1.115-.376.253zM11.13 4.874l.375-.253-.753-1.116-.375.253zM12 6.166l.375-.254-.75-1.115-.376.253zM4.015 11.417l.375-.252-1.623-2.407-.375.254zM2.858 12.198l.375-.253L1.61 9.539l-.375.253zM2.565 10.518l.376-.255-.752-1.114-.375.252zM3.437 11.807l.376-.253-.753-1.114-.376.253z"/>
    </g>
</svg>
