<svg xmlns="http://www.w3.org/2000/svg" width="15" height="15" viewBox="0 0 15 15">
    <g fill="none" fill-rule="evenodd">
        <path fill="#FAB712" d="M7.384.096A7.287 7.287 0 0 0 .76 4.347h13.248A7.287 7.287 0 0 0 7.384.097"/>
        <path fill="#176C44" d="M.097 7.384c0 1.084.239 2.11.663 3.035h13.248a7.256 7.256 0 0 0 .663-3.035 7.256 7.256 0 0 0-.663-3.036H.76a7.261 7.261 0 0 0-.663 3.036"/>
        <path fill="#E12426" d="M7.384 14.67a7.287 7.287 0 0 0 6.624-4.25H.76a7.287 7.287 0 0 0 6.624 4.25"/>
    </g>
</svg>
