<svg xmlns="http://www.w3.org/2000/svg" width="15" height="15" viewBox="0 0 15 15">
    <g fill="none" fill-rule="evenodd">
        <path fill="#020203" d="M14.768 7.383a7.383 7.383 0 0 1-7.384 7.384A7.383 7.383 0 1 1 7.384 0a7.384 7.384 0 0 1 7.384 7.383"/>
        <path fill="#FEFEFE" d="M3.503 13.55h7.763a7.33 7.33 0 0 0 1.373-1.122H2.129c.41.426.87.805 1.374 1.122M.294 9.065h14.18c.086-.363.144-.738.173-1.12H.121c.029.382.087.757.173 1.12M1.245 11.307h12.278c.227-.354.424-.729.59-1.12H.655c.164.392.362.767.59 1.12M11.266 1.219H3.502a7.278 7.278 0 0 0-1.373 1.12h10.51a7.267 7.267 0 0 0-1.373-1.12"/>
        <path fill="#E52E27" d="M.656 10.186h13.456c.15-.36.27-.734.362-1.12H.294c.092.386.213.76.362 1.12M2.129 12.428h10.51c.33-.342.626-.718.884-1.12H1.245c.258.402.554.778.884 1.12M7.384 14.67a7.254 7.254 0 0 0 3.882-1.12H3.502a7.253 7.253 0 0 0 3.882 1.12M.294 5.703h14.18a7.283 7.283 0 0 0-.362-1.121H.656c-.15.36-.27.734-.362 1.12M.097 7.383c0 .19.01.375.024.561h14.526c.014-.186.024-.372.024-.56 0-.19-.01-.376-.024-.56H.121a7.23 7.23 0 0 0-.024.56M2.129 2.34c-.33.343-.626.718-.884 1.12h12.278a7.33 7.33 0 0 0-.884-1.12H2.13zM7.384.097A7.243 7.243 0 0 0 3.502 1.22h7.764A7.243 7.243 0 0 0 7.384.097"/>
        <path fill="#FEFEFE" d="M.12 6.823h14.527a7.288 7.288 0 0 0-.173-1.12H.294a7.288 7.288 0 0 0-.173 1.12M.656 4.582h13.456a7.292 7.292 0 0 0-.589-1.122H1.245a7.266 7.266 0 0 0-.59 1.122"/>
        <path fill="#393F91" d="M7.38.097A7.286 7.286 0 0 0 .121 7.953h7.257V.097z"/>
        <path fill="#FED108" d="M3.878 6.302a1.642 1.642 0 1 1 .74-3.106 1.858 1.858 0 1 0 0 2.928 1.62 1.62 0 0 1-.74.178"/>
        <path fill="#FED108" d="M5.344 3.102l.133.978.544-.824-.306.939.848-.507-.683.714.984-.089-.925.347.925.347-.984-.088.683.713-.848-.507.306.94-.544-.824-.133.978-.132-.978-.544.823.305-.939-.847.507.682-.713-.983.088.924-.347-.924-.347.983.089-.682-.714.847.507-.305-.939.544.824z"/>
    </g>
</svg>
