<svg xmlns="http://www.w3.org/2000/svg" width="15" height="15" viewBox="0 0 15 15">
    <g fill="none" fill-rule="evenodd">
        <path fill="#284290" d="M7.384 14.671a7.285 7.285 0 0 0 6.624-4.251H.76a7.287 7.287 0 0 0 6.623 4.251"/>
        <path fill="#CB1E1F" d="M7.384.097a7.287 7.287 0 0 0-6.623 4.25h13.247A7.286 7.286 0 0 0 7.384.097"/>
        <path fill="#FEFEFE" d="M.098 7.384c0 1.084.238 2.111.663 3.036h13.246a7.25 7.25 0 0 0 .664-3.036 7.253 7.253 0 0 0-.664-3.036H.761a7.257 7.257 0 0 0-.663 3.036"/>
    </g>
</svg>
