<svg xmlns="http://www.w3.org/2000/svg" width="15" height="15" viewBox="0 0 15 15">
    <g fill="none" fill-rule="evenodd">
        <path fill="#020203" d="M14.768 7.384a7.383 7.383 0 0 1-7.384 7.383A7.384 7.384 0 1 1 7.384 0a7.383 7.383 0 0 1 7.384 7.384"/>
        <path fill="#E63334" d="M14.442 5.562A7.29 7.29 0 0 0 7.384.096v5.466h7.058zM.327 9.204a7.302 7.302 0 0 0 3.414 4.488V9.204H.327zM3.741 1.074A7.299 7.299 0 0 0 .327 5.562H3.74V1.074zM14.442 9.204H7.384v5.466a7.29 7.29 0 0 0 7.058-5.466"/>
        <path fill="#FEFEFE" d="M4.652.628c-.315.128-.62.276-.91.446v4.488H.326c-.076.295-.132.6-.17.91h4.495V.628zM.156 8.294c.039.31.095.614.17.91h3.415v4.488c.291.17.596.318.911.446V8.294H.156zM14.442 9.204c.076-.296.132-.6.17-.91H6.475v6.318c.297.037.601.058.91.058V9.204h7.058zM14.613 6.472a7.272 7.272 0 0 0-.171-.91H7.384V.096a7.26 7.26 0 0 0-.91.059v6.317h8.139z"/>
        <path fill="#2C2765" d="M14.613 8.294c.037-.299.058-.603.058-.91 0-.31-.021-.613-.058-.912h-8.14V.155c-.636.08-1.247.24-1.82.473v5.844H.155c-.037.299-.058.602-.058.911 0 .308.02.612.058.911h4.496v5.844a7.26 7.26 0 0 0 1.821.474V8.294h8.14z"/>
    </g>
</svg>
