<svg xmlns="http://www.w3.org/2000/svg" width="15" height="15" viewBox="0 0 15 15">
    <g fill="none" fill-rule="evenodd">
        <path fill="#E4251D" d="M7.385.097c-.457 0-.904.044-1.337.125v14.325a7.286 7.286 0 0 0 8.623-7.163A7.287 7.287 0 0 0 7.385.097"/>
        <path fill="#1C692F" d="M.097 7.384a7.288 7.288 0 0 0 5.951 7.163V.222a7.286 7.286 0 0 0-5.95 7.162"/>
        <path fill="#FBD756" d="M8.933 9.68C7.821 9.647 2.72 6.463 2.684 5.957l.283-.47c.504.735 5.719 3.83 6.231 3.722l-.265.471z"/>
        <path fill="#020203" d="M2.69 5.956c.03.497 5.127 3.683 6.24 3.719l.269-.46a.22.22 0 0 1-.031.002C8.502 9.215 3.462 6.216 2.97 5.49l-.282.466zm-.011-.002l.292-.47c.492.72 5.542 3.723 6.197 3.722.01 0 .02-.002.034.005l-.264.472-.005-.002v.005C7.815 9.65 2.72 6.473 2.679 5.954z"/>
        <path fill="#FBD756" d="M8.96 9.695c-.02.034-.054.035-.122.03-.416-.048-1.679-.662-3.172-1.556-1.738-1.04-3.174-1.989-3.019-2.237l.042-.075.01.003c-.14.42 2.833 2.12 3.007 2.23 1.72 1.065 3.171 1.687 3.3 1.525l-.047.08zM2.906 5.423c-.1.268 1.33 1.153 3.053 2.2C7.68 8.67 9.166 9.316 9.275 9.224a.961.961 0 0 0 .05-.094c-.02.031-.07.041-.149.018-.466-.134-1.678-.69-3.18-1.602-1.502-.91-2.81-1.75-3.013-2.106a.223.223 0 0 1-.021-.105h-.005l-.044.075-.006.012z"/>
        <path fill="#020203" d="M2.962 5.342v-.004l-.002.003h.002zm-.055.109c-.004.29 1.39 1.156 3.055 2.166 1.61.982 3.018 1.61 3.275 1.61.018 0 .028-.002.033-.006l.038-.067a.112.112 0 0 1-.057.014.252.252 0 0 1-.076-.014c-.468-.134-1.679-.69-3.183-1.602C4.49 6.64 3.184 5.803 2.978 5.444a.227.227 0 0 1-.023-.096l-.037.065-.006.012a.065.065 0 0 0-.005.026zm3.049 2.176C4.29 6.613 2.899 5.757 2.896 5.45c0-.01.002-.02.005-.03l.006.001-.005-.002.006-.012.048-.078.011.007v.008c0 .032.009.072.021.093.2.354 1.509 1.194 3.01 2.104 1.502.912 2.714 1.468 3.18 1.602a.258.258 0 0 0 .073.012.125.125 0 0 0 .064-.015l.005-.01h.005v-.005s.005-.001.006.005a.767.767 0 0 1-.053.098c-.01.007-.022.01-.04.01-.266 0-1.669-.63-3.282-1.612zm3.003 2.069l-.003-.002.009.002h-.006zm-6.308-3.76a.063.063 0 0 0-.01.039c-.004.292 1.377 1.202 3.028 2.19 1.492.892 2.757 1.507 3.169 1.553l.05.003c.036 0 .054-.007.066-.03v.002l.055-.074c-.016.019-.046.027-.087.027-.358 0-1.68-.6-3.218-1.552-.172-.11-3.013-1.727-3.017-2.203 0-.012.002-.022.008-.025l-.001-.006-.043.076zm6.237 3.796l-.05-.003c-.42-.046-1.681-.662-3.176-1.555-1.651-.992-3.03-1.89-3.032-2.2 0-.016.003-.031.012-.043l.049-.08.012.011a.104.104 0 0 0-.005.03c-.004.457 2.84 2.086 3.011 2.192 1.537.953 2.863 1.55 3.213 1.55.04 0 .066-.007.088-.016l-.055.075h.001-.001l-.001.003h.005l.005.002c-.014.026-.038.034-.073.034h-.003z"/>
        <path fill="#FBD756" d="M5.997 9.896c1.343.007 2.514-.19 3.049-.468l.194-.34c-.464.253-1.728.516-3.24.477-1.234-.009-2.551-.137-3.183-.494l.285.396c.515.284 1.74.427 2.895.429"/>
        <path fill="#020203" d="M5.997 9.901v-.01h.067c1.314 0 2.454-.195 2.977-.465l.202-.334c-.435.237-1.563.482-2.94.482-.101 0-.203 0-.304-.004-1.233-.008-2.55-.137-3.177-.503l.283.395c.512.283 1.738.427 2.892.428v.011c-1.155-.001-2.38-.144-2.899-.43l-.278-.405c.63.355 1.947.485 3.18.493.1.003.202.004.302.004 1.376 0 2.505-.245 2.944-.474l-.198.344c-.529.274-1.669.468-2.984.468h-.067z"/>
        <path fill="#FBD756" d="M6.015 9.927c-.774-.003-1.488-.05-2.044-.152-.403-.08-.67-.176-.87-.281l-.075-.113c.146.092.432.212.958.313.552.102 1.262.15 2.031.152C6.748 9.84 7.44 9.8 8 9.703c.479-.085 1.021-.239 1.164-.4l-.084.135c-.16.121-.6.259-1.046.346-.563.103-1.286.144-2.019.143m0-.313c-.853-.006-1.532-.038-2.128-.148a4.019 4.019 0 0 1-1.135-.392L2.717 9c.105.078.577.271 1.185.386.576.102 1.248.148 2.111.145.761.002 1.5-.034 2.084-.145.58-.11 1.032-.245 1.215-.365l-.058.104c-.075.083-.597.238-1.145.34-.589.108-1.329.151-2.094.15"/>
        <path fill="#020203" d="M6.051 9.608c.752 0 1.478-.044 2.057-.148.546-.104 1.072-.26 1.14-.34l.067-.096c-.185.122-.636.256-1.217.366-.572.108-1.292.145-2.036.145h-.129c-.825 0-1.473-.046-2.033-.145-.608-.115-1.08-.308-1.178-.394l.033.073c.204.105.595.293 1.134.391.594.11 1.273.143 2.126.148H6.051zm-.035.011v-.005.005c-.855-.005-1.533-.038-2.13-.147a3.999 3.999 0 0 1-1.14-.396l-.026-.083c.103.077.575.272 1.183.387.558.098 1.205.144 2.03.144h.13c.743 0 1.462-.036 2.033-.145.58-.11 1.031-.245 1.22-.357l-.058.105c-.078.086-.6.239-1.148.343-.58.105-1.306.15-2.059.15h-.035zm0 .308v.005c-.776-.003-1.49-.05-2.046-.152-.404-.078-.671-.176-.874-.284l-.066-.12c.144.091.43.212.955.313.55.101 1.26.148 2.03.15C6.747 9.835 7.44 9.795 8 9.7c.477-.086 1.02-.24 1.17-.393-.148.165-.69.317-1.168.404-.56.096-1.253.135-1.986.141-.77-.002-1.48-.049-2.032-.152-.527-.1-.814-.22-.952-.322l.073.112c.199.104.466.201.868.28.556.102 1.269.149 2.044.151h.042c.716 0 1.423-.041 1.975-.141.444-.088.885-.226 1.042-.344l.093-.13h.001l-.086.138c-.162.123-.602.259-1.048.347-.554.1-1.26.141-1.978.141h-.042v-.004z"/>
        <path fill="#FBD756" d="M6.038 8.142c1.243-.01 2.785-.175 3.666-.534v-.315c-.52.294-2.261.49-3.676.518-1.671-.016-3.031-.245-3.623-.65l-.008.405c1.087.47 2.209.57 3.641.576"/>
        <path fill="#020203" d="M2.399 7.56c1.086.47 2.207.57 3.64.576 1.24-.01 2.783-.175 3.659-.528l.008-.31c-.522.295-2.262.49-3.679.519C4.356 7.8 2.995 7.572 2.41 7.16l-.011.4zm-.008.006l.017-.41c.59.405 1.949.634 3.62.649 1.413-.028 3.155-.224 3.682-.512l-.004.32c-.883.36-2.424.524-3.667.534v-.006.006c-1.433-.005-2.556-.105-3.648-.58z"/>
        <path fill="#FBD756" d="M9.746 7.616c-.03.05-.607.251-1.453.402-.573.09-1.323.166-2.258.167-.888 0-1.613-.064-2.162-.14-.89-.143-1.349-.341-1.519-.411.017-.033-.014-.056 0-.088.49.2.992.32 1.532.404.546.076 1.263.142 2.146.14.93 0 1.671-.083 2.242-.17.87-.141 1.406-.327 1.472-.413v.109z"/>
        <path fill="#020203" d="M2.355 7.564c0 .014.01.03.01.05 0 .006-.002.014-.008.015.17.07.628.267 1.516.41.546.075 1.266.14 2.147.14h.015c.934 0 1.684-.077 2.258-.167.842-.148 1.42-.353 1.447-.399l.01-.102c-.07.089-.605.272-1.475.415a14.69 14.69 0 0 1-2.244.17h-.032c-.87 0-1.574-.066-2.114-.14a6.436 6.436 0 0 1-1.526-.406.024.024 0 0 0-.004.014m3.665.627c-.882 0-1.602-.065-2.148-.14-.89-.144-1.35-.342-1.523-.42a.04.04 0 0 0 .004-.018c0-.015-.01-.03-.01-.049 0-.006.002-.014.014-.022.488.199.99.32 1.53.402.539.075 1.244.14 2.112.14h.032c.931 0 1.671-.082 2.242-.169.868-.142 1.406-.33 1.478-.408v.109h-.005l.004.002c-.035.055-.607.254-1.456.405-.574.09-1.324.167-2.26.168H6.02"/>
        <path fill="#FBD756" d="M9.746 7.295c-.094.078-.731.247-1.556.383a14.46 14.46 0 0 1-2.145.154c-.85 0-1.545-.057-2.073-.137-.839-.112-1.618-.489-1.618-.489v-.122s.777.398 1.627.52c.522.076 1.218.133 2.064.131.89-.001 1.582-.074 2.13-.155.83-.116 1.504-.333 1.57-.387v.102zm0 .32c-.03.05-.607.252-1.453.403-.573.09-1.323.166-2.258.167-.888 0-1.613-.064-2.162-.14-.89-.143-1.349-.341-1.519-.411.017-.034-.014-.056 0-.088.49.2.993.32 1.532.404.546.076 1.263.142 2.146.14.93 0 1.671-.083 2.242-.17.87-.141 1.406-.327 1.472-.413v.109z"/>
        <path fill="#020203" d="M2.357 7.202s.778.376 1.615.488c.522.077 1.206.136 2.042.136h.03c.895 0 1.595-.073 2.145-.154.82-.134 1.457-.304 1.551-.38l.008-.095c-.069.056-.742.272-1.573.388-.547.082-1.24.155-2.13.156H6.01c-.832 0-1.516-.057-2.031-.131-.844-.122-1.615-.513-1.62-.526l-.003.118zm3.657.635c-.837 0-1.522-.058-2.043-.136a5.901 5.901 0 0 1-1.623-.495l.008-.126c.002 0 .776.396 1.626.518.515.075 1.198.131 2.029.131h.033c.89 0 1.583-.074 2.13-.155.828-.115 1.505-.334 1.578-.381v.102h-.006l.003.004c-.097.08-.732.248-1.558.384a14.53 14.53 0 0 1-2.147.154h-.03zm-3.66-.273c0 .014.01.03.01.048 0 .008 0 .016-.007.017.17.07.628.267 1.516.41.546.075 1.266.14 2.147.14h.015c.934 0 1.683-.077 2.258-.167.842-.148 1.42-.354 1.447-.399l.01-.102c-.07.089-.605.272-1.475.415a14.69 14.69 0 0 1-2.244.17h-.032c-.87 0-1.574-.066-2.114-.14a6.46 6.46 0 0 1-1.526-.406.022.022 0 0 0-.004.014zm3.666.627a15.74 15.74 0 0 1-2.148-.14c-.89-.144-1.35-.342-1.523-.42a.044.044 0 0 0 .004-.019c0-.014-.01-.03-.01-.048 0-.006.002-.013.014-.022.487.199.99.32 1.53.402.539.075 1.243.14 2.111.14h.033c.931 0 1.671-.083 2.242-.169.868-.142 1.406-.33 1.479-.408v.109h-.006l.004.002c-.035.055-.607.254-1.456.405a14.72 14.72 0 0 1-2.26.168H6.02z"/>
        <path fill="#FBD756" d="M6.058 6.263c1.113-.008 2.488-.152 3.278-.467l-.17-.276c-.468.257-1.85.428-3.118.454C4.55 5.96 3.49 5.82 2.96 5.464l-.162.294c.975.413 1.975.501 3.26.505"/>
        <path fill="#020203" d="M2.8 5.753c.975.413 1.973.5 3.258.505 1.112-.009 2.486-.152 3.273-.46l-.163-.273c-.47.258-1.85.429-3.12.454-1.5-.013-2.56-.153-3.084-.512l-.163.286zm3.258.51v.006c-1.285-.004-2.286-.092-3.264-.513l.169-.297c.526.355 1.586.495 3.085.51 1.267-.027 2.65-.198 3.122-.452l.168.285c-.792.315-2.167.458-3.28.467v-.006z"/>
        <path fill="#FBD756" d="M9.232 5.523c-.085.067-.505.216-1.245.333-.494.073-1.122.136-1.925.137a12.82 12.82 0 0 1-1.859-.12 6.153 6.153 0 0 1-1.295-.327c.014-.025.03-.05.045-.074.111.057.498.212 1.259.32.468.067 1.091.116 1.85.115.8 0 1.42-.065 1.91-.136.744-.102 1.145-.291 1.206-.34l.054.092zm.149.28c-.027.043-.542.22-1.301.352-.516.079-1.188.146-2.026.147-.797 0-1.448-.056-1.94-.123-.796-.125-1.208-.3-1.36-.36l.036-.078c.439.176.852.28 1.336.355a14.269 14.269 0 0 0 3.936-.027c.78-.124 1.205-.287 1.265-.361l.054.095z"/>
        <path fill="#020203" d="M2.91 5.54c.144.053.543.23 1.295.327.47.068 1.086.12 1.841.12h.016c.802 0 1.43-.064 1.924-.136.729-.117 1.148-.263 1.239-.33l-.044-.086c-.062.051-.463.24-1.208.342-.49.07-1.112.136-1.911.136h-.016c-.752 0-1.37-.049-1.836-.115-.761-.109-1.148-.264-1.252-.323-.016.024-.031.048-.048.065zm3.136.457c-.755 0-1.372-.05-1.843-.119-.752-.098-1.154-.276-1.3-.335a.413.413 0 0 1 .052-.076c.11.056.497.211 1.257.32a13.28 13.28 0 0 0 1.85.115c.799 0 1.42-.066 1.91-.136.742-.102 1.144-.292 1.21-.338l.055.091-.005.003.004.004c-.088.07-.507.217-1.25.336-.492.073-1.12.135-1.924.135h-.016zm-3.291-.184c.153.062.564.235 1.36.36.489.066 1.135.123 1.924.123h.015c.837 0 1.51-.068 2.024-.147.743-.128 1.257-.304 1.296-.348l-.043-.09c-.064.078-.487.239-1.268.364a13.6 13.6 0 0 1-2.012.15h-.014c-.787 0-1.425-.057-1.912-.124a5.615 5.615 0 0 1-1.33-.358c-.013.028-.022.049-.04.07zm3.284.494c-.79 0-1.437-.057-1.925-.123-.798-.125-1.21-.299-1.366-.368.014-.03.023-.049.044-.08.439.175.852.28 1.335.354a14.172 14.172 0 0 0 1.924.124 13.435 13.435 0 0 0 2.01-.15c.779-.124 1.205-.288 1.27-.36l.055.096-.005.002.005.003c-.032.05-.545.222-1.306.355a13.35 13.35 0 0 1-2.026.147h-.015z"/>
        <path fill="#FBD756" d="M6.048 10.629a3.244 3.244 0 1 1 0-6.488 3.244 3.244 0 0 1 0 6.488m0-6.834a3.59 3.59 0 1 0 .003 7.18 3.59 3.59 0 0 0-.003-7.18"/>
        <path fill="#FBD756" d="M6.048 3.832a3.554 3.554 0 1 0 .001 7.107 3.554 3.554 0 0 0-.001-7.107m3.626 3.552a3.626 3.626 0 1 1-7.252 0 3.626 3.626 0 0 1 7.252 0"/>
        <path fill="#020203" d="M2.489 7.384a3.56 3.56 0 0 1 3.559-3.558v.012A3.553 3.553 0 0 0 2.5 7.384a3.553 3.553 0 0 0 3.548 3.548 3.552 3.552 0 0 0 3.547-3.548 3.552 3.552 0 0 0-3.547-3.546v-.012a3.559 3.559 0 1 1-3.56 3.558m-.06 0a3.625 3.625 0 0 0 3.62 3.62c2-.003 3.616-1.62 3.62-3.62a3.625 3.625 0 0 0-3.62-3.62 3.625 3.625 0 0 0-3.62 3.62m-.012 0a3.632 3.632 0 1 1 7.264 0 3.632 3.632 0 0 1-7.264 0"/>
        <path fill="#FBD756" d="M6.048 4.175a3.21 3.21 0 1 0 .002 6.419 3.21 3.21 0 0 0-.002-6.419m3.282 3.21a3.281 3.281 0 1 1-6.563-.001 3.281 3.281 0 0 1 6.563 0"/>
        <path fill="#020203" d="M2.833 7.384A3.215 3.215 0 0 1 6.048 4.17v.011a3.209 3.209 0 0 0-3.204 3.203 3.207 3.207 0 0 0 3.204 3.203A3.207 3.207 0 0 0 9.25 7.384a3.209 3.209 0 0 0-3.203-3.203V4.17a3.214 3.214 0 1 1 0 6.428 3.213 3.213 0 0 1-3.215-3.214m-.06 0a3.28 3.28 0 0 0 3.275 3.276 3.28 3.28 0 0 0 3.275-3.276A3.28 3.28 0 0 0 6.048 4.11a3.28 3.28 0 0 0-3.276 3.275m-.01 0a3.286 3.286 0 1 1 6.573 0 3.286 3.286 0 1 1-6.574 0"/>
        <path fill="#FBD756" d="M6.01 6.62c1.513-.01 3.09.215 3.694.532v.388c-.525-.288-1.985-.589-3.69-.544-1.39.01-2.873.157-3.617.562V7.11c.611-.325 2.313-.488 3.614-.49"/>
        <path fill="#020203" d="M2.402 7.11l-.008.443c.747-.407 2.23-.554 3.618-.563.114-.003.229-.004.342-.004 1.557 0 2.861.28 3.344.554l.003-.384c-.59-.31-2.123-.532-3.608-.532H6.01c-1.3.003-3.003.167-3.609.485zm-.008-.006c.614-.325 2.314-.488 3.616-.49l.083-.001c1.487 0 3.018.221 3.616.538l-.008.394c-.488-.268-1.791-.548-3.347-.548-.113 0-.227.002-.34.004-1.39.01-2.872.157-3.623.557l.003-.454z"/>
        <path fill="#FBD756" d="M6.03 6.584c.826-.002 1.641.046 2.277.162.501.1 1.258.255 1.439.394v.154c-.162-.183-.938-.358-1.478-.456-.63-.11-1.412-.155-2.238-.162-.866.003-1.667.057-2.288.172-.594.116-1.225.252-1.387.358v-.129c.224-.12.918-.23 1.373-.32.626-.118 1.431-.17 2.302-.173m0 .356c.863-.002 1.697.047 2.36.171.618.116 1.272.293 1.356.388v.117c-.205-.136-.714-.288-1.368-.416-.657-.125-1.491-.167-2.35-.165-.972-.003-1.73.05-2.379.165-.685.13-1.176.32-1.294.408v-.123c.228-.12.668-.264 1.278-.376.671-.126 1.436-.163 2.397-.169"/>
        <path fill="#020203" d="M8.269 6.832c.54.099 1.315.272 1.471.462l.002-.15c-.177-.137-.935-.293-1.436-.392-.622-.115-1.415-.163-2.22-.163H6.03c-.87.003-1.676.056-2.302.172-.454.09-1.149.202-1.369.316l-.008.125c.166-.108.796-.243 1.39-.36.621-.114 1.424-.17 2.29-.171.824.006 1.607.05 2.238.16m-.002.012c-.63-.11-1.412-.155-2.237-.16-.865.001-1.667.056-2.287.17-.593.116-1.226.253-1.395.353l.003-.134c.227-.12.92-.232 1.375-.321.626-.117 1.433-.17 2.304-.173v.011-.01h.055c.807 0 1.6.047 2.223.162.502.099 1.257.254 1.443.4l-.01.157c-.158-.18-.935-.358-1.474-.455m.109.363c-.639-.122-1.445-.165-2.28-.165h-.164c-.927 0-1.656.053-2.282.164-.685.131-1.177.32-1.302.403l.003-.128c.23-.12.67-.265 1.28-.376.673-.126 1.437-.164 2.4-.17v.011c-.963.006-1.727.044-2.398.17-.608.111-1.048.255-1.274.37l-.008.118c.12-.09.61-.278 1.297-.41.627-.11 1.357-.164 2.284-.164l.096.001h.069c.834 0 1.642.043 2.281.165.655.128 1.164.28 1.362.421v-.113c-.078-.092-.734-.27-1.351-.387-.65-.121-1.463-.17-2.306-.17H6.03v-.012h.053c.844 0 1.658.05 2.308.171.619.117 1.27.292 1.36.394l-.009.122c-.202-.135-.712-.288-1.366-.415"/>
        <path fill="#FBD756" d="M6.032 4.928c1.357-.007 2.541.19 3.082.467l.198.342c-.47-.253-1.748-.518-3.278-.478-1.246.008-2.578.136-3.246.494l.235-.395c.549-.284 1.843-.429 3.01-.43"/>
        <path fill="#020203" d="M3.027 5.361l-.243.385c.67-.356 2.003-.485 3.25-.493a9.43 9.43 0 0 1 .306-.004c1.393 0 2.533.245 2.967.49L9.11 5.4c-.53-.27-1.683-.466-3.01-.466h-.069c-1.166.001-2.46.147-3.005.428zm-.007-.008c.551-.285 1.845-.43 3.012-.43V4.92h.07c1.327 0 2.48.195 3.017.471l.19.35c-.438-.236-1.578-.483-2.969-.482-.101 0-.204 0-.306.004-1.246.008-2.578.137-3.252.486l.238-.397z"/>
        <path fill="#FBD756" d="M6.05 4.898c.74-.002 1.472.039 2.042.141.45.088.894.225 1.057.346l.086.138c-.146-.163-.693-.317-1.178-.403-.566-.097-1.266-.136-2.007-.142-.778.002-1.496.05-2.052.152-.533.101-.875.22-1.02.314l.074-.114c.201-.105.524-.202.933-.281.56-.103 1.283-.15 2.065-.151m0 .312c.774-.002 1.522.042 2.118.149.552.103 1.082.258 1.157.34l.058.105c-.184-.121-.64-.252-1.228-.364-.59-.113-1.336-.148-2.107-.147-.872-.003-1.551.043-2.134.146-.615.116-1.042.279-1.149.357l.059-.11c.203-.103.53-.23 1.076-.328.601-.11 1.288-.143 2.15-.148"/>
        <path fill="#020203" d="M9.229 5.525zm0 0l-.083-.136c-.162-.12-.606-.258-1.056-.344-.56-.101-1.276-.142-2.004-.142H6.05c-.782.003-1.504.048-2.064.15-.41.08-.73.178-.93.28l-.081.106c.146-.095.488-.213 1.022-.315.556-.102 1.275-.15 2.053-.151.74.005 1.44.044 2.008.141.484.087 1.03.238 1.17.41-.143-.159-.69-.314-1.173-.399C7.49 5.03 6.79 4.99 6.05 4.984c-.777.001-1.495.048-2.051.15-.532.103-.875.221-1.026.307l.076-.117c.203-.105.526-.202.935-.281.56-.103 1.283-.15 2.066-.15v-.001h.036c.728 0 1.444.04 2.006.141.451.088.896.224 1.062.348l.077.145H9.23zm-1.072-.091c.587.111 1.043.244 1.22.372l-.057-.103c-.07-.08-.602-.236-1.154-.339-.581-.104-1.305-.149-2.058-.149H6.05V5.21v.006c-.862.005-1.55.037-2.15.147-.545.099-.871.224-1.072.326l-.066.102c.108-.08.535-.242 1.151-.358.56-.1 1.21-.146 2.037-.146h.162c.748 0 1.47.037 2.045.147zm-.003.01c-.572-.108-1.295-.146-2.042-.146H5.95c-.826 0-1.475.046-2.035.146-.614.115-1.042.28-1.155.35l.06-.112c.206-.104.532-.232 1.078-.33.603-.11 1.29-.143 2.152-.147h.058c.753 0 1.479.043 2.06.149.554.103 1.081.256 1.162.343l.049.11c-.182-.118-.638-.25-1.225-.362z"/>
        <path fill="#FBD756" d="M6.05 4.898c.74-.002 1.472.039 2.042.141.45.088.894.225 1.057.346l.086.138c-.146-.163-.693-.317-1.178-.403-.565-.097-1.266-.136-2.007-.142-.778.002-1.496.05-2.052.152-.533.1-.875.22-1.02.314l.074-.114c.201-.105.524-.202.933-.281.56-.103 1.283-.15 2.065-.151m0 .312c.774-.002 1.522.042 2.117.149.553.103 1.083.258 1.158.34l.058.105c-.184-.121-.64-.252-1.228-.365-.59-.112-1.336-.148-2.107-.146-.872-.003-1.551.043-2.133.146-.616.116-1.043.279-1.15.357l.059-.11c.203-.103.53-.23 1.076-.328.601-.11 1.288-.143 2.15-.148"/>
        <path fill="#020203" d="M9.229 5.525zm0 0l-.083-.136c-.162-.12-.606-.258-1.056-.344-.56-.101-1.276-.142-2.004-.142H6.05v-.005.006c-.782.002-1.504.047-2.064.15-.41.08-.73.176-.93.279l-.081.106c.146-.095.488-.214 1.022-.315.556-.102 1.275-.15 2.053-.151.74.005 1.442.044 2.008.141.484.087 1.03.238 1.17.41-.143-.159-.69-.314-1.173-.399-.564-.096-1.265-.135-2.005-.141-.777.001-1.495.048-2.051.15-.532.101-.875.221-1.026.307l.076-.117c.203-.105.526-.202.935-.281.56-.103 1.284-.15 2.066-.151h.036c.728 0 1.444.04 2.006.141.451.088.896.224 1.062.348l.077.145H9.23zm-1.072-.092c.587.112 1.043.245 1.22.373l-.057-.103c-.07-.08-.602-.236-1.154-.339-.581-.104-1.305-.149-2.058-.149H6.05V5.21v.006c-.862.005-1.55.037-2.15.147-.545.099-.871.224-1.072.326l-.066.102c.108-.08.535-.242 1.151-.358.56-.1 1.21-.146 2.037-.146h.18c.741 0 1.457.038 2.027.146zm-.003.011c-.568-.107-1.283-.146-2.024-.146h-.18c-.826 0-1.475.046-2.034.146-.615.115-1.043.28-1.156.35l.06-.112c.206-.104.532-.232 1.078-.33.603-.11 1.29-.143 2.152-.147h.058c.753 0 1.479.043 2.06.149.554.103 1.081.256 1.162.343l.049.11c-.182-.118-.638-.25-1.225-.363z"/>
        <path fill="#FBD756" d="M6.022 8.553c1.113.008 2.488.151 3.277.466l-.17.279c-.467-.26-1.848-.43-3.117-.455-1.5.014-2.54.168-3.058.46l-.145-.246c.928-.413 1.928-.5 3.213-.504"/>
        <path fill="#020203" d="M2.814 9.054l.137.244c.522-.294 1.56-.447 3.061-.46 1.27.025 2.65.194 3.112.457l.173-.27c-.789-.315-2.163-.458-3.276-.466-1.284.003-2.282.091-3.207.495zm-.007-.002c.93-.412 1.93-.5 3.215-.504v.011-.011c1.114.008 2.488.151 3.283.474l-.18.28c-.463-.258-1.845-.428-3.113-.453-1.5.013-2.538.167-3.064.457l-.141-.254z"/>
        <path fill="#FBD756" d="M9.04 9.347c-.15-.076-.527-.219-1.134-.303a13.222 13.222 0 0 0-1.9-.135c-.753 0-1.374.049-1.839.115-.757.108-1.142.265-1.253.321L2.87 9.27c.144-.05.542-.228 1.29-.326.47-.069 1.09-.12 1.847-.119.798.001 1.423.064 1.913.135.61.097 1.001.216 1.165.293l-.046.094zm.268-.333l-.055.095c-.06-.076-.484-.237-1.258-.363a13.246 13.246 0 0 0-1.999-.148 13.85 13.85 0 0 0-1.913.122 5.88 5.88 0 0 0-1.329.354L2.717 9c.152-.062.56-.237 1.353-.361a14.42 14.42 0 0 1 1.928-.123c.834 0 1.501.068 2.014.146.755.131 1.268.31 1.296.353z"/>
        <path fill="#020203" d="M5.996 8.593c.83 0 1.49.07 2 .148.775.126 1.197.286 1.251.365l.053-.092c-.04-.042-.55-.22-1.29-.347A13.224 13.224 0 0 0 6 8.52h-.015c-.785 0-1.426.057-1.913.122-.793.125-1.2.299-1.35.353a.335.335 0 0 1 .03.073 5.882 5.882 0 0 1 1.331-.353c.48-.067 1.11-.123 1.886-.123h.028zm1.998.16a13.234 13.234 0 0 0-1.998-.15h-.029c-.774 0-1.404.056-1.883.123a6.2 6.2 0 0 0-1.335.35.444.444 0 0 1-.034-.083c.151-.062.56-.236 1.354-.36A14.248 14.248 0 0 1 6 8.51c.833 0 1.5.068 2.013.145.758.133 1.268.308 1.3.355l-.004.004.004.002-.064.097c-.057-.073-.48-.236-1.253-.36zM4.16 8.95c-.748.098-1.144.275-1.285.318.014.025.03.05.037.072.112-.056.496-.214 1.254-.322a13.16 13.16 0 0 1 1.822-.115h.019c.794.002 1.412.066 1.9.137.6.082.975.223 1.129.3l.047-.081c-.164-.077-.555-.196-1.164-.294-.49-.07-1.114-.134-1.912-.135H5.99c-.75 0-1.364.05-1.831.12zm3.745.1a13.162 13.162 0 0 0-1.899-.135h-.018c-.745 0-1.36.049-1.82.115-.758.108-1.142.265-1.259.319-.015-.026-.03-.05-.04-.084.143-.051.541-.229 1.289-.327A12.851 12.851 0 0 1 5.99 8.82h.016c.798 0 1.423.064 1.913.135.61.098 1.002.216 1.17.302l-.046.093-.005-.002-.003.005c-.15-.075-.524-.218-1.13-.302z"/>
        <path fill="#FBD756" d="M6.193 11.028h.116V3.742h-.116z"/>
        <path fill="#020203" d="M6.196 11.022h.107l.008-7.275-.107-.006-.008 7.281zm-.01.006l.01-7.293.124.006v7.287H6.31v.005l-.124-.005z"/>
        <path fill="#FBD756" d="M5.826 11.028h.116V3.742h-.116z"/>
        <path fill="#020203" d="M5.829 11.022h.108l.007-7.275-.106-.006-.01 7.28zm-.008.006l.008-7.293.124.006v7.287h-.01v.005l-.122-.005z"/>
        <path fill="#FBD756" d="M5.903 10.992h.434V3.777h-.434z"/>
        <path fill="#020203" d="M5.906 10.986h.426l.009-7.203-.426-.006-.01 7.21zm-.009.006l.009-7.221.443.006v7.215h-.008v.005l-.444-.005z"/>
        <path fill="#FBD756" d="M2.992 5.354c1.12-.016 6.293 3.16 6.308 3.744l-.32.492c-.145-.678-5.393-3.77-6.26-3.71l.272-.526z"/>
        <path fill="#020203" d="M2.992 5.359zm5.982 4.227l.32-.488C9.285 8.525 4.13 5.355 3 5.358h-.004l-.275.516.026-.002c.942.003 6.09 3.037 6.228 3.714zM2.746 5.884c-.01 0-.018 0-.03-.008l.27-.526.006.004-.001-.006h.008C4.14 5.35 9.284 8.505 9.305 9.1l-.331.49c-.138-.665-5.297-3.71-6.228-3.706z"/>
        <path fill="#FBD756" d="M9.333 9.134c.13-.258-1.286-1.325-3.044-2.366C4.492 5.75 3.197 5.15 2.961 5.328l-.053.097c0 .005.002-.007.014-.016.042-.038.113-.035.145-.035.408.007 1.57.542 3.205 1.477.713.417 3.02 1.896 3.012 2.313 0 .036.003.042-.01.06l.059-.09zM2.688 5.861c.208-.142 1.736.539 3.335 1.503 1.594.967 3.116 2.06 2.98 2.263l-.045.072-.02.017c.004-.003.027-.032-.003-.108-.068-.223-1.15-1.085-2.943-2.168-1.748-1.043-3.204-1.671-3.35-1.49l.046-.09z"/>
        <path fill="#020203" d="M9.29 9.164v.025l.037-.058a.082.082 0 0 0 .008-.036c.002-.305-1.37-1.329-3.048-2.322-1.586-.897-2.781-1.47-3.2-1.47-.057 0-.097.01-.122.029l-.036.064a.225.225 0 0 1 .126-.029l.012.001c.41.007 1.573.542 3.207 1.478.713.418 3.011 1.887 3.015 2.315h-.002l.002.003zm-.022.056l.006-.008c.004-.006.004-.012.004-.022l.001-.024c-.003-.004 0-.005 0-.005.003-.41-2.3-1.891-3.01-2.305C4.635 5.92 3.47 5.386 3.066 5.38l-.012-.001c-.036 0-.094.003-.13.035-.008.005-.008.007-.011.01h-.002a.023.023 0 0 1-.01.002v-.004l.055-.098c.03-.022.072-.032.13-.032.426 0 1.62.574 3.206 1.471 1.68.997 3.05 2.012 3.053 2.332a.098.098 0 0 1-.009.042l-.004-.003.004.003-.048.058c0 .012-.004.02-.02.025zM5.995 7.435C7.79 8.52 8.869 9.38 8.94 9.607c.01.029.015.05.015.068a.11.11 0 0 1-.003.021h.001l.044-.072a.048.048 0 0 0 .007-.027c.004-.256-1.458-1.304-2.984-2.229-1.457-.878-2.857-1.52-3.247-1.52a.15.15 0 0 0-.08.017l-.056.08c.018-.023.054-.032.104-.032.387 0 1.706.598 3.254 1.522zm2.938 2.276h.001s.01-.01.01-.036a.19.19 0 0 0-.015-.065c-.065-.219-1.147-1.083-2.94-2.165-1.546-.924-2.869-1.522-3.248-1.521a.22.22 0 0 0-.105.022l.047-.087.004.002-.002-.005a.16.16 0 0 1 .088-.02c.398.001 1.794.644 3.252 1.523 1.527.928 2.988 1.964 2.991 2.238a.067.067 0 0 1-.009.033l-.046.073-.013.004c-.003.003-.006.005-.01.005h-.005z"/>
        <path fill="#FEFEFE" d="M3.896 7.747c0 .588.242 1.122.633 1.512.392.391.925.637 1.515.637a2.153 2.153 0 0 0 2.157-2.149V4.872H3.896v2.875z"/>
        <path fill="#020203" d="M4.533 9.255c.39.39.923.636 1.511.636.593 0 1.13-.24 1.52-.629.39-.389.631-.925.631-1.514l.006-2.87-4.3-.006v2.874c0 .587.242 1.12.632 1.51m-.008.008a2.134 2.134 0 0 1-.635-1.518l.006-2.88 4.31.006v2.876a2.16 2.16 0 0 1-2.162 2.154 2.145 2.145 0 0 1-1.519-.638"/>
        <path fill="#CE1427" d="M3.983 7.747c0 .565.233 1.079.608 1.451a2.066 2.066 0 0 0 2.916.003c.373-.372.606-.885.606-1.452V4.964H3.986l-.003 2.782z"/>
        <path fill="#020203" d="M3.989 7.747c0 .563.232 1.076.606 1.447A2.054 2.054 0 0 0 8.107 7.75l.006-2.78-4.122-.005-.002 2.782v.001zm.598 1.456a2.047 2.047 0 0 1-.61-1.455v-.002l.008-2.788 4.134.006V7.75c0 .568-.234 1.083-.608 1.456a2.064 2.064 0 0 1-2.924-.002z"/>
        <path fill="#FEFEFE" d="M4.827 7.62c0 .367.138.7.36.943.22.244.527.395.862.395.337 0 .642-.15.863-.392.22-.243.358-.576.358-.944V5.81H4.828l-.001 1.808z"/>
        <path fill="#020203" d="M4.832 7.62c0 .366.137.698.358.94.22.242.526.392.86.392.333 0 .637-.148.858-.39.22-.242.356-.574.356-.94l.006-1.805-2.436-.006-.002 1.808zm.35.947a1.402 1.402 0 0 1-.36-.947h.01l-.01-.001.006-1.813 2.448.005v1.81c0 .37-.139.705-.36.948a1.17 1.17 0 0 1-.867.395c-.337 0-.645-.153-.867-.397z"/>
        <path fill="#1F70B7" d="M5.78 7.436c0 .081.03.154.078.208a.256.256 0 0 0 .19.086.255.255 0 0 0 .19-.086.303.303 0 0 0 .078-.208v-.398H5.78v.398z"/>
        <path fill="#FEFEFE" d="M6.223 7.125a.08.08 0 0 0 0 .16.08.08 0 1 0 0-.16M6.071 7.27a.08.08 0 1 0 0 .162.082.082 0 0 0 .082-.082.081.081 0 0 0-.082-.08M6.222 7.42a.081.081 0 0 0-.08.082.081.081 0 0 0 .161 0 .08.08 0 0 0-.08-.081M5.93 7.42a.083.083 0 0 0-.083.083c0 .044.036.08.082.08a.081.081 0 0 0 0-.162M5.928 7.125a.08.08 0 0 0-.081.08c0 .045.036.08.08.08a.08.08 0 0 0 .082-.08.08.08 0 0 0-.081-.08"/>
        <path fill="#1F70B7" d="M5.024 7.436c0 .081.03.154.079.208a.259.259 0 0 0 .19.086.257.257 0 0 0 .19-.086.307.307 0 0 0 .08-.208v-.398h-.54v.398z"/>
        <path fill="#FEFEFE" d="M5.467 7.125a.08.08 0 0 0-.08.08c0 .045.036.08.08.08a.08.08 0 0 0 .08-.08.08.08 0 0 0-.08-.08M5.316 7.27a.081.081 0 1 0 0 .161.081.081 0 0 0 0-.162M5.467 7.42a.082.082 0 0 0-.081.082.08.08 0 0 0 .162 0 .08.08 0 0 0-.08-.081M5.173 7.42a.083.083 0 0 0-.081.083.081.081 0 0 0 .163 0 .082.082 0 0 0-.082-.082M5.173 7.125a.08.08 0 0 0-.081.08c0 .045.036.08.08.08a.08.08 0 0 0 .082-.08.08.08 0 0 0-.081-.08"/>
        <path fill="#1F70B7" d="M6.535 7.436c0 .081.03.154.079.208a.26.26 0 0 0 .19.086.258.258 0 0 0 .19-.086.308.308 0 0 0 .08-.208v-.398h-.539v.398z"/>
        <path fill="#FEFEFE" d="M6.978 7.125a.081.081 0 0 0-.08.08.08.08 0 0 0 .162 0 .08.08 0 0 0-.082-.08M6.827 7.27a.08.08 0 1 0 .082.08.081.081 0 0 0-.082-.08M6.977 7.42a.08.08 0 0 0-.08.082c0 .044.036.08.08.08a.082.082 0 0 0 .082-.08.082.082 0 0 0-.082-.081M6.685 7.42a.083.083 0 0 0-.082.083.081.081 0 1 0 .082-.082M6.683 7.125a.081.081 0 0 0-.081.08c0 .045.037.08.081.08a.08.08 0 0 0 .082-.08.081.081 0 0 0-.082-.08"/>
        <path fill="#1F70B7" d="M5.78 8.346c0 .081.03.155.078.208a.254.254 0 0 0 .19.087.254.254 0 0 0 .19-.086.304.304 0 0 0 .078-.208v-.398l-.536-.001v.398z"/>
        <path fill="#FEFEFE" d="M6.223 8.035a.081.081 0 1 0 0 .162.081.081 0 0 0 0-.162M6.071 8.18a.08.08 0 1 0 0 .161.081.081 0 0 0 .082-.079.082.082 0 0 0-.082-.082M6.222 8.33a.082.082 0 0 0-.08.082c0 .044.036.08.08.08a.08.08 0 0 0 .081-.08.08.08 0 0 0-.08-.082M5.93 8.331a.082.082 0 0 0-.083.081c0 .045.036.082.082.082a.082.082 0 0 0 .081-.082.082.082 0 0 0-.08-.08M5.928 8.035a.082.082 0 0 0-.081.08c0 .045.036.082.08.082a.082.082 0 0 0 .082-.081.082.082 0 0 0-.081-.081"/>
        <path fill="#1F70B7" d="M5.78 6.526c0 .08.03.154.078.208a.26.26 0 0 0 .19.085.26.26 0 0 0 .19-.085.308.308 0 0 0 .078-.208v-.399H5.78v.399z"/>
        <path fill="#FEFEFE" d="M6.223 6.215a.08.08 0 0 0-.081.08.08.08 0 0 0 .081.081.08.08 0 0 0 .08-.08.08.08 0 0 0-.08-.081M6.071 6.36a.08.08 0 0 0 0 .16.081.081 0 0 0 .082-.081.081.081 0 0 0-.082-.08M6.222 6.51a.08.08 0 1 0 0 .162.08.08 0 0 0 .081-.08.08.08 0 0 0-.08-.081M5.93 6.511a.082.082 0 0 0-.083.081c0 .045.036.08.082.08a.08.08 0 0 0 .081-.08.082.082 0 0 0-.08-.08M5.928 6.215a.08.08 0 0 0-.081.08c0 .044.036.081.08.081a.081.081 0 0 0 .082-.08.081.081 0 0 0-.081-.081"/>
        <path fill="#FBD756" d="M7.395 5.8h.596l-.028-.343h-.544z"/>
        <path fill="#020203" d="M7.985 5.805l-.022-.337-.539-.008-.024.336.585.009zm-.59.007v-.008l-.006-.002.03-.351.55.007.022.354h-.597z"/>
        <path fill="#FBD756" d="M7.762 5.476c.112.002.225.181.226.315h-.444c0-.14.109-.315.218-.315"/>
        <path fill="#020203" d="M7.538 5.793c.002-.143.11-.321.227-.323v.017c-.1 0-.21.171-.218.298l.436.008c0-.128-.115-.307-.218-.306V5.47c.12.003.232.187.226.332l-.453-.009z"/>
        <path fill="#FBD756" d="M7.731 5.526s.13.063.13.24h-.253c0-.177.123-.24.123-.24"/>
        <path fill="#020203" d="M7.611 5.76c.122 0 .123 0 .245.009 0-.154-.1-.218-.122-.23a.268.268 0 0 0-.123.221m-.009.009c0-.182.127-.248.127-.248h.001l.004.008.004-.008c.001 0 .135.065.127.256-.132 0-.13 0-.263-.008"/>
        <path fill="#FBD756" d="M7.398 5.354h.589c.012 0 .022.016.022.037 0 .023-.01.04-.022.04h-.589c-.012 0-.022-.017-.022-.04 0-.021.01-.037.022-.037"/>
        <path fill="#020203" d="M7.398 5.442c-.016 0-.027-.023-.027-.048s.011-.046.027-.046v.017c-.01 0-.016.011-.017.03 0 .018.009.03.017.03h.589c.008 0 .017-.013.017-.03 0-.018-.008-.03-.017-.03h-.59v-.017h.59c.015 0 .029.02.029.046 0 .027-.014.047-.03.048h-.588z"/>
        <path fill="#FBD756" d="M7.383 5.687h.619c.013 0 .024.017.024.04 0 .024-.01.04-.024.04h-.619c-.013 0-.024-.016-.024-.04 0-.023.01-.04.024-.04"/>
        <path fill="#020203" d="M7.383 5.778c-.017 0-.03-.021-.03-.048 0-.026.013-.048.03-.048v.017c-.01 0-.018.012-.02.03.002.02.01.033.02.033h.619c.009 0 .017-.012.018-.032 0-.019-.01-.031-.018-.031h-.62v-.017h.62c.016 0 .03.022.03.048 0 .027-.014.048-.03.048h-.62z"/>
        <path fill="#FBD756" d="M7.41 5.405h.564c.012 0 .021.017.021.038 0 .021-.01.038-.021.038H7.41c-.012 0-.021-.017-.021-.038 0-.02.01-.038.02-.038"/>
        <path fill="#020203" d="M7.41 5.493c-.014 0-.026-.022-.026-.047s.012-.046.027-.047V5.417c-.008 0-.016.012-.016.029 0 .019.008.03.016.03h.563c.008 0 .015-.011.015-.03 0-.018-.007-.03-.015-.03H7.41V5.4h.563c.016 0 .027.022.027.047s-.011.047-.027.047H7.41z"/>
        <path fill="#FBD756" d="M7.837 5.114l.014.36h-.234l.017-.36z"/>
        <path fill="#020203" d="M7.62 5.467l.226.01-.014-.352-.186-.008-.026.35zm-.009.009l.026-.369.203.002v.008h.009l.006.368-.244-.01z"/>
        <path fill="#FBD756" d="M7.598 5.022h.066v.048h.048v-.048h.066v.048h.049v-.048h.068v.11c0 .016-.015.028-.031.028h-.236c-.015 0-.03-.014-.03-.029v-.11z"/>
        <path fill="#020203" d="M7.61 5.134c0 .01.01.02.02.02h.237c.011-.001.02-.008.022-.02l.008-.102-.06-.008-.008.057-.057-.009.009-.04-.059-.008-.008.057-.057-.009.009-.04h-.057v.102zm.02.037a.04.04 0 0 1-.038-.037v-.11H7.6v-.008l.074.008-.008.04.04.008.008-.056.074.008-.007.04.04.008.008-.056.076.008v.11a.038.038 0 0 1-.038.037H7.63zM7.68 5.224c-.002-.034.048-.036.048 0v.082H7.68v-.082z"/>
        <path fill="#FBD756" d="M7.789 5.137h.067v.048h.047v-.05h.066v.05h.047v-.05h.068v.112c0 .017-.014.027-.029.027H7.82c-.016 0-.031-.013-.031-.027v-.11z"/>
        <path fill="#020203" d="M7.8 5.25c0 .009.01.018.023.018h.235c.01 0 .02-.007.02-.019l.009-.102-.06-.008-.008.057-.056-.009.01-.04-.06-.008-.007.057-.056-.009.009-.039H7.8v.101zm.023.035c-.02 0-.04-.015-.04-.036V5.14h.008v-.008l.076.008-.008.039.038.008.01-.057.072.009-.007.04.038.008.009-.057.077.009v.11c0 .023-.02.036-.038.036h-.235z"/>
        <path fill="#FBD756" d="M8.031 5.228l.006.19h-.224l.007-.19z"/>
        <path fill="#020203" d="M7.815 5.41l.215.01-.005-.182-.195-.007-.015.18zm-.008.01l.015-.198h.212v.008h.007l-.003.198-.231-.008z"/>
        <path fill="#FBD756" d="M7.405 5.137h.064v.048h.05v-.05l.064.002v.048h.048v-.05h.067v.112c0 .017-.013.027-.028.027h-.235c-.015 0-.03-.013-.03-.027v-.11z"/>
        <path fill="#020203" d="M7.415 5.25c0 .008.012.017.023.017h.235c.01 0 .02-.006.02-.018l.008-.102-.059-.009-.008.058-.056-.008.007-.04-.056-.01-.008.058-.058-.008.009-.04h-.057v.101zm.023.035c-.02 0-.039-.015-.04-.036v-.11h.01V5.13l.072.008-.008.04.04.009.009-.058.073.009-.008.04.04.009.008-.058.075.008v.111a.036.036 0 0 1-.036.036h-.235z"/>
        <path fill="#FBD756" d="M7.644 5.228l.008.19h-.224l.007-.19z"/>
        <path fill="#020203" d="M7.638 5.232zm-.207.18l.214.009-.006-.182-.194-.007-.014.18zm-.008.008l.015-.198h.209v.01h.008l-.001.197-.231-.009zM7.872 5.29c-.001-.033.047-.033.047 0v.052h-.047V5.29z"/>
        <path fill="#020203" d="M7.487 5.29c-.001-.033.048-.033.047 0v.052h-.047V5.29z"/>
        <path fill="#FBD756" d="M7.395 7.528h.596l-.028-.345h-.544z"/>
        <path fill="#020203" d="M7.985 7.533l-.022-.34-.539-.007-.024.337.585.01zm-.59.007v-.008l-.006-.002.03-.353.55.008.022.355h-.597z"/>
        <path fill="#FBD756" d="M7.762 7.202c.112 0 .225.182.226.317h-.444c0-.142.109-.317.218-.317"/>
        <path fill="#020203" d="M7.538 7.522c.002-.146.11-.323.227-.325v.017c-.1-.001-.21.17-.218.299l.436.009c0-.131-.115-.31-.218-.308v-.018c.12.004.232.187.226.334l-.453-.008z"/>
        <path fill="#FBD756" d="M7.731 7.253s.13.06.13.24h-.253c0-.18.123-.24.123-.24"/>
        <path fill="#020203" d="M7.611 7.487c.122 0 .123 0 .245.01 0-.156-.1-.22-.122-.232a.267.267 0 0 0-.123.222m-.009.01c0-.184.127-.25.127-.25h.001l.004.008.004-.007c.001 0 .135.064.127.256-.132 0-.13 0-.263-.008"/>
        <path fill="#FBD756" d="M7.398 7.081h.589c.012 0 .022.016.022.037 0 .022-.01.04-.022.04h-.589c-.012 0-.022-.018-.022-.04 0-.02.01-.037.022-.037"/>
        <path fill="#020203" d="M7.398 7.169c-.016 0-.027-.023-.027-.048 0-.026.011-.046.027-.046V7.093c-.01 0-.016.01-.017.028 0 .019.009.031.017.031h.589c.008 0 .017-.013.017-.031 0-.017-.008-.028-.017-.028h-.59V7.075h.59c.015 0 .029.02.029.046s-.014.047-.03.048h-.588z"/>
        <path fill="#FBD756" d="M7.383 7.414h.619c.013 0 .024.018.024.04 0 .024-.01.04-.024.04h-.619c-.013 0-.024-.016-.024-.04 0-.022.01-.04.024-.04"/>
        <path fill="#020203" d="M7.383 7.506c-.017 0-.03-.022-.03-.05 0-.026.013-.047.03-.047v.016c-.01 0-.018.013-.02.032.002.02.01.032.02.032h.619c.009 0 .017-.012.018-.032 0-.019-.01-.032-.018-.032h-.62V7.41h.62c.016 0 .03.021.03.048s-.014.049-.03.049h-.62z"/>
        <path fill="#FBD756" d="M7.41 7.132h.564c.012 0 .021.016.021.036 0 .023-.01.039-.021.039H7.41c-.012 0-.021-.016-.021-.039 0-.02.01-.036.02-.036"/>
        <path fill="#020203" d="M7.41 7.218c-.014 0-.026-.021-.026-.047 0-.023.012-.045.027-.045v.018c-.008 0-.016.01-.016.027 0 .018.008.03.016.03h.563c.008 0 .015-.012.015-.03 0-.017-.007-.027-.015-.027H7.41V7.126h.563c.016 0 .027.022.027.045 0 .026-.011.047-.027.047H7.41z"/>
        <path fill="#FBD756" d="M7.837 6.84l.014.362-.234-.001.017-.36z"/>
        <path fill="#020203" d="M7.62 7.196l.226.01-.014-.354-.186-.008-.026.352zm-.009.007l.026-.37.203.002v.008h.009l.006.37-.244-.01z"/>
        <path fill="#FBD756" d="M7.598 6.748h.066v.05h.048v-.05h.066v.05h.049v-.05h.068v.11c0 .017-.015.029-.031.029h-.236c-.015 0-.03-.015-.03-.029v-.11z"/>
        <path fill="#020203" d="M7.61 6.86c0 .009.01.02.02.02h.237c.011 0 .02-.008.022-.02l.008-.1-.06-.01-.008.057-.057-.007.009-.04-.059-.01-.008.057-.057-.007.009-.04h-.057v.1zm.02.037a.039.039 0 0 1-.038-.037v-.11H7.6v-.007l.074.008-.008.039.04.01.008-.057.074.008-.007.039.04.01.008-.057.076.008v.109a.037.037 0 0 1-.038.037H7.63zM7.68 6.95c-.002-.034.048-.036.048 0v.083H7.68V6.95z"/>
        <path fill="#FBD756" d="M7.789 6.863h.067v.048h.047v-.049h.066v.049h.047v-.049h.068v.111c0 .017-.014.027-.029.027H7.82c-.016 0-.031-.012-.031-.027v-.11z"/>
        <path fill="#020203" d="M7.8 6.975c0 .01.01.02.023.02h.235c.01 0 .02-.008.02-.02l.009-.102-.06-.008-.008.057-.056-.009.01-.04-.06-.008-.007.057-.056-.009.009-.04H7.8v.102zm.023.036c-.02 0-.04-.015-.04-.036v-.11h.008v-.008l.076.009-.008.039.038.008.01-.057.072.01-.007.039.038.008.009-.057.077.01v.11c0 .022-.02.035-.038.035h-.235z"/>
        <path fill="#FBD756" d="M8.031 6.954l.006.19h-.224l.007-.19z"/>
        <path fill="#020203" d="M7.815 7.14l.215.008-.005-.183-.195-.008-.015.182zm-.008.007l.015-.199h.212v.009h.007l-.003.199-.231-.009z"/>
        <path fill="#FBD756" d="M7.405 6.863h.064v.048h.05v-.049l.064.001v.048h.048v-.049h.067v.111c0 .017-.013.027-.028.027h-.235c-.015 0-.03-.012-.03-.027v-.11z"/>
        <path fill="#020203" d="M7.415 6.976c0 .009.012.018.023.018h.235c.01 0 .02-.007.02-.018l.008-.102-.059-.01-.008.059-.056-.01.007-.04-.056-.008-.008.058-.058-.01.009-.04h-.057v.103zm.023.035c-.02 0-.039-.014-.04-.035v-.11h.01v-.009l.072.008-.008.04.04.008.009-.057.073.01-.008.038.04.01.008-.058.075.009v.111c0 .022-.018.035-.036.035h-.235z"/>
        <path fill="#FBD756" d="M7.644 6.954l.008.19h-.224l.007-.19z"/>
        <path fill="#020203" d="M7.638 6.958zm-.207.181l.214.009-.006-.183-.194-.008-.014.182zm-.008.008l.015-.199h.209v.01h.008l-.001.198-.231-.009zM7.872 7.017c-.001-.034.047-.034.047 0v.052h-.047v-.052z"/>
        <path fill="#020203" d="M7.487 7.017c-.001-.034.048-.034.047 0v.052h-.047v-.052z"/>
        <path fill="#FBD756" d="M4.107 7.528h.596l-.027-.345H4.13z"/>
        <path fill="#020203" d="M4.697 7.533l-.021-.34-.54-.007-.023.337.584.01zm-.59.007v-.008l-.006-.002.03-.353.55.008.022.355h-.596z"/>
        <path fill="#FBD756" d="M4.474 7.202c.113 0 .224.182.226.317h-.444c0-.142.11-.317.218-.317"/>
        <path fill="#020203" d="M4.25 7.522c.001-.146.11-.323.227-.325v.017c-.1-.001-.21.17-.218.299l.435.009c0-.131-.114-.31-.217-.308v-.018c.12.004.23.187.225.334l-.452-.008z"/>
        <path fill="#FBD756" d="M4.444 7.253s.128.06.128.24h-.251c0-.18.123-.24.123-.24"/>
        <path fill="#020203" d="M4.324 7.487c.121 0 .123 0 .243.01a.257.257 0 0 0-.12-.232.262.262 0 0 0-.123.222m-.01.01c0-.184.128-.25.129-.25l.004.008.003-.007s.134.064.125.256c-.13 0-.128 0-.26-.008"/>
        <path fill="#FBD756" d="M4.111 7.081H4.7c.012 0 .023.016.023.037 0 .022-.01.04-.023.04h-.588c-.013 0-.023-.018-.023-.04 0-.02.01-.037.023-.037"/>
        <path fill="#020203" d="M4.11 7.169c-.016 0-.028-.023-.028-.048 0-.026.012-.046.028-.046V7.093c-.01 0-.016.01-.017.028 0 .019.008.031.017.031h.59c.007 0 .016-.013.016-.031 0-.017-.008-.028-.017-.028H4.11V7.075h.59c.014 0 .027.02.027.046s-.013.047-.028.048H4.11z"/>
        <path fill="#FBD756" d="M4.096 7.414h.618c.013 0 .023.018.023.04 0 .024-.01.04-.023.04h-.618c-.014 0-.025-.016-.025-.04 0-.022.011-.04.025-.04"/>
        <path fill="#020203" d="M4.095 7.506c-.017 0-.03-.022-.03-.05 0-.026.013-.047.03-.047v.016c-.009 0-.018.013-.019.032 0 .02.01.032.02.032h.618c.01 0 .017-.012.018-.032 0-.019-.009-.032-.018-.032h-.619V7.41h.619c.016 0 .029.021.029.048s-.013.049-.03.049h-.618z"/>
        <path fill="#FBD756" d="M4.122 7.132h.564c.013 0 .021.016.021.036 0 .023-.008.039-.021.039h-.564c-.01 0-.02-.016-.02-.039 0-.02.01-.036.02-.036"/>
        <path fill="#020203" d="M4.122 7.218c-.014 0-.026-.021-.026-.047 0-.023.012-.045.026-.045v.018c-.007 0-.015.01-.015.027 0 .018.008.03.015.03h.564c.008 0 .015-.012.015-.03 0-.017-.007-.027-.015-.027h-.564V7.126h.564c.016 0 .027.022.027.045 0 .026-.01.047-.027.047h-.564z"/>
        <path fill="#FBD756" d="M4.55 6.84l.014.362L4.33 7.2l.017-.36z"/>
        <path fill="#020203" d="M4.332 7.196l.226.01-.014-.354-.186-.008-.026.352zm-.008.007l.025-.37.203.002v.008h.008l.007.37-.243-.01z"/>
        <path fill="#FBD756" d="M4.31 6.748h.066v.05h.048v-.05h.066v.05h.049v-.05h.066v.11c0 .017-.013.029-.03.029h-.234c-.015 0-.03-.015-.03-.029v-.11z"/>
        <path fill="#020203" d="M4.321 6.86c0 .009.012.02.022.02h.236c.011 0 .02-.008.021-.02l.008-.1-.059-.01-.008.057-.057-.007.009-.04-.058-.01-.009.057L4.37 6.8l.008-.04h-.057v.1zm.022.037a.04.04 0 0 1-.039-.037v-.11h.009v-.007l.073.008-.008.039.04.01.008-.057.074.008-.007.039.04.01.008-.057.076.008v.109c0 .022-.02.037-.038.037h-.236zM4.392 6.95c-.001-.034.049-.036.049 0v.083h-.049V6.95z"/>
        <path fill="#FBD756" d="M4.5 6.863h.067v.048h.048v-.049h.066v.049h.048v-.049h.069v.111c0 .017-.015.027-.031.027h-.235c-.016 0-.031-.012-.031-.027v-.11z"/>
        <path fill="#020203" d="M4.512 6.975c0 .01.01.02.022.02h.236c.011 0 .022-.008.022-.02l.008-.102-.06-.008-.009.057-.056-.009.009-.04-.058-.008-.008.057-.057-.009.009-.04h-.058v.102zm.022.036c-.02 0-.038-.015-.038-.036v-.11h.007v-.008l.075.009-.008.039.039.008.009-.057.074.01-.008.039.04.008.007-.057.078.01v.11c0 .022-.02.035-.04.035h-.235z"/>
        <path fill="#FBD756" d="M4.743 6.954l.006.19h-.224l.006-.19z"/>
        <path fill="#020203" d="M4.527 7.14l.216.008-.005-.183-.196-.008-.015.182zm-.009.007l.015-.199h.213v.009h.008l-.003.199-.233-.009z"/>
        <path fill="#FBD756" d="M4.117 6.863h.064v.048h.05v-.049l.065.001v.048h.048v-.049h.067v.111c0 .017-.013.027-.028.027h-.235c-.016 0-.031-.012-.031-.027v-.11z"/>
        <path fill="#020203" d="M4.127 6.976c0 .009.011.018.023.018h.236a.02.02 0 0 0 .02-.018l.008-.102-.059-.01-.01.059-.055-.01.008-.04-.057-.008-.009.058-.057-.01.008-.04h-.056v.103zm.023.035c-.02 0-.038-.014-.039-.035v-.11h.008v-.009l.073.008-.009.04.04.008.01-.057.073.01-.007.038.04.01.007-.058.076.009v.111c0 .022-.018.035-.036.035H4.15z"/>
        <path fill="#FBD756" d="M4.358 6.954l.006.19H4.14l.008-.19z"/>
        <path fill="#020203" d="M4.351 6.958zm-.21.181l.216.009-.006-.183-.194-.008-.015.182zm-.007.008l.016-.199h.21v.01h.008l-.002.198-.232-.009zM4.584 7.017c-.002-.034.047-.034.047 0v.052h-.047v-.052z"/>
        <path fill="#020203" d="M4.199 7.017c-.002-.034.047-.034.046 0v.052H4.2v-.052z"/>
        <path fill="#FBD756" d="M5.75 5.802h.597l-.027-.345h-.546z"/>
        <path fill="#020203" d="M6.341 5.805l-.02-.337-.541-.008-.024.336.585.01zm-.59.007v-.008l-.006-.002.03-.351.55.008.022.353H5.75z"/>
        <path fill="#FBD756" d="M6.118 5.476c.112.002.224.183.226.316H5.9c0-.14.109-.316.218-.316"/>
        <path fill="#020203" d="M5.895 5.794c0-.144.109-.322.225-.323v.017c-.1-.001-.209.17-.217.297l.435.009c0-.129-.115-.308-.218-.306V5.47c.12.004.232.187.227.333l-.452-.009z"/>
        <path fill="#FBD756" d="M6.087 5.526s.13.063.13.24h-.252c0-.177.122-.24.122-.24"/>
        <path fill="#020203" d="M5.967 5.76c.122 0 .123 0 .244.01 0-.155-.1-.22-.121-.231a.267.267 0 0 0-.123.221m-.008.01c0-.183.125-.25.127-.25l.004.01.003-.01s.135.066.127.257c-.131 0-.13 0-.26-.007"/>
        <path fill="#FBD756" d="M5.754 5.354h.59c.011 0 .022.016.022.038s-.01.039-.023.039h-.589c-.013 0-.022-.017-.022-.039s.009-.038.022-.038"/>
        <path fill="#020203" d="M5.754 5.441c-.017 0-.028-.022-.028-.046 0-.027.011-.046.028-.046v.016c-.01 0-.017.011-.017.03 0 .018.008.03.017.03h.59c.007 0 .016-.013.016-.03 0-.018-.008-.03-.017-.03h-.589V5.35h.59c.014 0 .027.018.027.046 0 .025-.012.046-.028.046h-.589z"/>
        <path fill="#FBD756" d="M5.739 5.687h.62c.012 0 .022.018.022.04 0 .024-.01.04-.023.04h-.62c-.013 0-.024-.016-.024-.04 0-.022.011-.04.025-.04"/>
        <path fill="#020203" d="M5.739 5.779c-.017 0-.03-.021-.03-.049 0-.026.012-.048.03-.048v.017c-.01 0-.019.013-.02.031.001.02.01.032.02.032h.62c.008 0 .016-.011.016-.032 0-.018-.008-.031-.017-.031h-.62v-.017h.62c.016 0 .029.022.029.048 0 .028-.013.049-.029.049h-.62z"/>
        <path fill="#FBD756" d="M5.767 5.405h.564c.012 0 .02.017.02.038 0 .021-.008.039-.02.039h-.564c-.012 0-.022-.018-.022-.04 0-.02.01-.037.022-.037"/>
        <path fill="#020203" d="M5.767 5.493c-.016 0-.028-.022-.028-.047s.012-.047.028-.047V5.417c-.008 0-.017.011-.017.029 0 .018.01.03.017.03h.563c.008 0 .015-.012.016-.03-.001-.018-.008-.03-.016-.03h-.563V5.4h.563c.016 0 .027.022.027.047s-.01.047-.027.047h-.563z"/>
        <path fill="#FBD756" d="M6.193 5.114l.015.36h-.234l.017-.36z"/>
        <path fill="#020203" d="M5.976 5.468l.225.01-.013-.353L6 5.118l-.025.35zm-.008.008l.025-.369.203.002v.008h.008l.006.369-.242-.01z"/>
        <path fill="#FBD756" d="M5.955 5.022h.064v.048h.047v-.048h.066v.048h.05v-.048h.067v.11c0 .017-.014.028-.03.028h-.236c-.014 0-.028-.014-.028-.028v-.11z"/>
        <path fill="#020203" d="M5.966 5.134c0 .01.012.02.02.02h.236c.011-.001.021-.008.022-.02l.008-.1-.06-.01-.007.058-.057-.01.008-.039-.058-.009-.009.058-.056-.01.008-.039h-.055v.1zm.02.037a.04.04 0 0 1-.037-.037v-.11h.008v-.007l.073.007-.009.04.04.008.008-.055.074.007-.007.04.039.008.01-.055.075.007v.11a.038.038 0 0 1-.038.037h-.236zM6.036 5.224a.024.024 0 0 1 .047 0v.082h-.047v-.082z"/>
        <path fill="#FBD756" d="M6.145 5.137h.066v.048h.048v-.05h.066v.05h.048v-.05h.069v.112c0 .017-.015.027-.03.027h-.236c-.017 0-.031-.013-.031-.027v-.11z"/>
        <path fill="#020203" d="M6.156 5.25c0 .01.01.019.022.019h.237c.01 0 .02-.008.02-.02l.01-.102-.061-.008-.008.057-.056-.008.008-.04-.058-.009-.008.057-.056-.008.008-.04h-.058v.102zm.022.035c-.02 0-.04-.015-.04-.035v-.11h.01v-.008l.075.008-.01.039.04.009.01-.058.073.01-.008.039.04.009.008-.058.077.01v.11c0 .023-.02.035-.038.035h-.237z"/>
        <path fill="#FBD756" d="M6.388 5.228l.006.19h-.225l.007-.19z"/>
        <path fill="#020203" d="M6.171 5.411l.217.01-.005-.183-.196-.007-.016.18zm-.009.01l.017-.198h.212v.008h.008l-.003.197-.234-.008z"/>
        <path fill="#FBD756" d="M5.76 5.137h.065v.048h.05v-.05l.066.002v.048h.047v-.05h.068v.112c0 .017-.014.027-.03.027h-.235c-.015 0-.03-.013-.03-.027v-.11z"/>
        <path fill="#020203" d="M5.77 5.25c0 .008.013.017.024.017h.236c.01 0 .02-.006.02-.018l.008-.102L6 5.138l-.009.058-.056-.008.008-.04-.057-.01-.008.058-.058-.008.008-.04H5.77v.101zm.024.035c-.02 0-.04-.015-.04-.036v-.11h.009v-.007l.073.008-.01.038.042.01.009-.058.074.01-.007.038.038.01.008-.058.076.008v.111a.036.036 0 0 1-.036.036h-.236z"/>
        <path fill="#FBD756" d="M6.001 5.228l.007.19h-.224l.006-.19z"/>
        <path fill="#020203" d="M5.996 5.232zm-.21.18l.216.008-.006-.181-.195-.008-.014.18zm-.008.008l.015-.198h.211v.01h.008l-.001.198-.233-.01zM6.228 5.29c-.002-.033.047-.033.047 0v.052h-.047V5.29z"/>
        <path fill="#020203" d="M5.843 5.29c-.002-.033.048-.033.047 0v.052h-.047V5.29z"/>
        <path fill="#FBD756" d="M4.107 5.8h.596l-.027-.343H4.13z"/>
        <path fill="#020203" d="M4.697 5.805l-.021-.337-.54-.008-.023.336.584.009zm-.59.007v-.008l-.006-.002.03-.351.55.007.022.354h-.596z"/>
        <path fill="#FBD756" d="M4.474 5.476c.113.002.224.181.226.315h-.444c0-.14.11-.315.218-.315"/>
        <path fill="#020203" d="M4.25 5.793c.001-.143.11-.321.227-.323v.017c-.1 0-.21.171-.218.298l.435.008c0-.128-.114-.307-.217-.306V5.47c.12.003.23.187.225.332l-.452-.009z"/>
        <path fill="#FBD756" d="M4.444 5.526s.128.063.128.24h-.251c0-.177.123-.24.123-.24"/>
        <path fill="#020203" d="M4.324 5.76c.121 0 .123 0 .243.009a.256.256 0 0 0-.12-.23.264.264 0 0 0-.123.221m-.01.009c0-.182.128-.248.129-.248l.004.008.003-.008s.134.065.125.256c-.13 0-.128 0-.26-.008"/>
        <path fill="#FBD756" d="M4.111 5.354H4.7c.012 0 .023.016.023.037 0 .023-.01.04-.023.04h-.588c-.013 0-.023-.017-.023-.04 0-.021.01-.037.023-.037"/>
        <path fill="#020203" d="M4.11 5.442c-.016 0-.028-.023-.028-.048s.012-.046.028-.046v.017c-.01 0-.016.011-.017.03 0 .018.008.03.017.03h.59c.007 0 .016-.013.016-.03 0-.018-.008-.03-.017-.03H4.11v-.017h.59c.014 0 .027.02.027.046 0 .027-.013.047-.028.048H4.11z"/>
        <path fill="#FBD756" d="M4.096 5.687h.618c.013 0 .023.017.023.04 0 .024-.01.04-.023.04h-.618c-.014 0-.025-.016-.025-.04 0-.023.011-.04.025-.04"/>
        <path fill="#020203" d="M4.095 5.778c-.017 0-.03-.021-.03-.048 0-.026.013-.048.03-.048v.017c-.009 0-.018.012-.019.03 0 .02.01.033.02.033h.618c.01 0 .017-.012.018-.032 0-.019-.009-.031-.018-.031h-.619v-.017h.619c.016 0 .029.022.029.048 0 .027-.013.048-.03.048h-.618z"/>
        <path fill="#FBD756" d="M4.122 5.405h.564c.013 0 .021.017.021.038 0 .021-.008.038-.021.038h-.564c-.01 0-.02-.017-.02-.038 0-.02.01-.038.02-.038"/>
        <path fill="#020203" d="M4.122 5.493c-.014 0-.026-.022-.026-.047s.012-.046.026-.047V5.417c-.007 0-.015.012-.015.029 0 .019.008.03.015.03h.564c.008 0 .015-.011.015-.03 0-.018-.007-.03-.015-.03h-.564V5.4h.564c.016 0 .027.022.027.047s-.01.047-.027.047h-.564z"/>
        <path fill="#FBD756" d="M4.55 5.114l.014.36H4.33l.017-.36z"/>
        <path fill="#020203" d="M4.332 5.467l.226.01-.014-.352-.186-.008-.026.35zm-.008.009l.025-.369.203.002v.008h.008l.007.368-.243-.01z"/>
        <path fill="#FBD756" d="M4.31 5.022h.066v.048h.048v-.048h.066v.048h.049v-.048h.066v.11c0 .016-.013.028-.03.028h-.234c-.015 0-.03-.014-.03-.029v-.11z"/>
        <path fill="#020203" d="M4.321 5.134c0 .01.012.02.022.02h.236c.011-.001.02-.008.021-.02l.008-.102-.059-.008-.008.057-.057-.009.009-.04-.058-.008-.009.057-.056-.009.008-.04h-.057v.102zm.022.037a.04.04 0 0 1-.039-.037v-.11h.009v-.008l.073.008-.008.04.04.008.008-.056.074.008-.007.04.04.008.008-.056.076.008v.11c0 .021-.02.037-.038.037h-.236zM4.392 5.224c-.001-.034.049-.036.049 0v.082h-.049v-.082z"/>
        <path fill="#FBD756" d="M4.5 5.137h.067v.048h.048v-.05h.066v.05h.048v-.05h.069v.112c0 .017-.015.027-.031.027h-.235c-.016 0-.031-.013-.031-.027v-.11z"/>
        <path fill="#020203" d="M4.512 5.25c0 .009.01.018.022.018h.236c.011 0 .022-.007.022-.019l.008-.102-.06-.008-.009.057-.056-.009.009-.04-.058-.008-.008.057-.057-.009.009-.039h-.058v.101zm.022.035c-.02 0-.038-.015-.038-.036V5.14h.007v-.008l.075.008-.008.039.039.008.009-.057.074.009-.008.04.04.008.007-.057.078.009v.11c0 .023-.02.036-.04.036h-.235z"/>
        <path fill="#FBD756" d="M4.743 5.228l.006.19h-.224l.006-.19z"/>
        <path fill="#020203" d="M4.527 5.41l.216.01-.005-.182-.196-.007-.015.18zm-.009.01l.015-.198h.213v.008h.008l-.003.198-.233-.008z"/>
        <path fill="#FBD756" d="M4.117 5.137h.064v.048h.05v-.05l.065.002v.048h.048v-.05h.067v.112c0 .017-.013.027-.028.027h-.235c-.016 0-.031-.013-.031-.027v-.11z"/>
        <path fill="#020203" d="M4.127 5.25c0 .008.011.017.023.017h.236a.02.02 0 0 0 .02-.018l.008-.102-.059-.009-.01.058-.055-.008.008-.04-.057-.01-.009.058-.057-.008.008-.04h-.056v.101zm.023.035c-.02 0-.038-.015-.039-.036v-.11h.008V5.13l.073.008-.009.04.04.009.01-.058.073.009-.007.04.04.009.007-.058.076.008v.111a.035.035 0 0 1-.036.036H4.15z"/>
        <path fill="#FBD756" d="M4.358 5.228l.006.19H4.14l.008-.19z"/>
        <path fill="#020203" d="M4.351 5.232zm-.21.18l.216.009-.006-.182-.194-.007-.015.18zm-.007.008l.016-.198h.21v.01h.008l-.002.197-.232-.009zM4.584 5.29c-.002-.033.047-.033.047 0v.052h-.047V5.29z"/>
        <path fill="#020203" d="M4.199 5.29c-.002-.033.047-.033.046 0v.052H4.2V5.29z"/>
        <path fill="#FBD756" d="M4.805 9.19l.421-.422-.181-.143-.386.385z"/>
        <path fill="#020203" d="M5.223 8.773l-.174-.144-.386.377.142.176.418-.41zm-.414.42l-.004-.003-.005.003-.145-.188.393-.385.183.152-.422.422z"/>
        <path fill="#FBD756" d="M4.877 8.845c.08-.079.287-.03.384.064l-.315.313c-.098-.1-.146-.3-.069-.377"/>
        <path fill="#020203" d="M4.942 9.23c-.1-.103-.15-.304-.068-.388l.012.012c-.071.07-.029.268.056.365l.315-.302c-.093-.092-.3-.137-.371-.063l-.012-.012c.087-.083.295-.032.395.075l-.327.314z"/>
        <path fill="#FBD756" d="M4.902 8.87s.136-.048.262.078c-.09.092-.09.092-.178.179-.126-.127-.084-.258-.084-.258"/>
        <path fill="#020203" d="M4.983 9.123c.087-.085.087-.086.179-.165-.11-.111-.226-.086-.25-.078-.005.022-.03.134.071.243m0 .012c-.13-.129-.087-.264-.086-.265l.008.002-.002-.008s.14-.048.27.094c-.092.092-.091.091-.19.177"/>
        <path fill="#FBD756" d="M4.573 8.985l.448-.449c.009-.009.025-.01.037.002.01.01.01.028 0 .037l-.447.448c-.009.01-.025.008-.036-.002-.012-.012-.012-.027-.002-.036"/>
        <path fill="#020203" d="M4.615 9.016c-.013.012-.032.01-.044-.002-.013-.013-.014-.032-.003-.044l.005.004.004.005c-.007.007-.007.017.002.027.01.008.021.008.028.002l.438-.438c.005-.006.006-.019-.003-.028-.009-.008-.02-.008-.027-.001l-.438.438-.004-.005-.005-.004.438-.438c.012-.01.03-.012.044.002a.033.033 0 0 1 .003.045l-.438.437z"/>
        <path fill="#FBD756" d="M4.798 9.208l.448-.448c.009-.01.026-.008.036.003.011.011.011.027.003.036l-.448.448c-.01.01-.026.01-.038-.002-.01-.01-.011-.028-.001-.037"/>
        <path fill="#020203" d="M4.84 9.24c-.012.012-.032.011-.045-.002-.012-.012-.014-.032-.002-.044l.005.004.004.004c-.008.007-.008.02 0 .028.011.01.022.01.03.002l.437-.438c.006-.006.007-.017-.003-.028-.008-.008-.02-.008-.027-.002l-.437.438-.004-.004-.005-.004.438-.438c.012-.011.032-.01.044.003.012.013.013.031.002.043l-.438.438z"/>
        <path fill="#FBD756" d="M4.618 9.029l.447-.448c.01-.01.026-.007.037.004.012.01.013.027.003.037l-.447.447c-.009.01-.025.008-.037-.003-.011-.01-.012-.027-.003-.037"/>
        <path fill="#020203" d="M4.662 9.062c-.012.012-.033.01-.045-.003-.013-.013-.015-.033-.003-.045l.004.005.005.005c-.006.005-.006.017.002.027.01.008.022.008.028.003l.437-.437c.005-.006.005-.018-.004-.028-.009-.008-.021-.009-.027-.002l-.436.437-.005-.005-.004-.005.436-.436c.013-.013.032-.01.045.003.013.013.015.032.003.045l-.436.436z"/>
        <path fill="#FBD756" d="M4.71 8.524l.265.244-.167.164-.242-.265z"/>
        <path fill="#020203" d="M4.804 8.929l.167-.153-.26-.239-.138.128.231.264zm0 .011l-.242-.277.143-.143.006.005.005-.006.266.257-.178.164z"/>
        <path fill="#FBD756" d="M4.479 8.645l.046-.046.034.034.033-.034-.033-.034.046-.047.035.034.034-.034-.034-.034.047-.048.078.078c.012.012.01.03-.001.04l-.167.168c-.01.01-.03.01-.041 0l-.077-.077z"/>
        <path fill="#020203" d="M4.564 8.719c.006.007.023.006.03 0l.166-.168a.023.023 0 0 0 0-.03l-.064-.076-.049.035.035.046-.046.034-.023-.034-.046.036.033.045-.046.035-.022-.035-.04.04.072.072zm.042.01a.037.037 0 0 1-.054 0l-.077-.076.006-.005-.006-.006.057-.046.022.033.034-.021-.033-.046.058-.047.022.033.035-.022-.034-.046.06-.048.077.078c.015.015.012.04 0 .053l-.167.167z"/>
        <path fill="#020203" d="M4.675 8.668c-.024-.022.01-.057.034-.034l.06.059-.035.033-.059-.058z"/>
        <path fill="#FBD756" d="M4.695 8.592l.046-.047.035.034.033-.034-.034-.035.046-.047.035.035.034-.033-.035-.035.049-.049.078.079c.012.012.008.03-.002.04l-.166.167c-.011.011-.031.013-.042.003l-.077-.078z"/>
        <path fill="#020203" d="M4.78 8.665c.006.007.02.006.03-.002l.166-.167c.008-.008.01-.02 0-.029l-.065-.078-.048.037.034.046-.045.034-.023-.035-.046.036.034.045-.046.034-.022-.033-.04.04.071.072zm.04.01c-.013.014-.037.017-.052.002L4.691 8.6l.006-.007-.006-.006.058-.046.022.033.034-.022-.035-.046.06-.047.022.034.034-.02-.035-.048.06-.047.077.077c.017.017.012.04 0 .053l-.167.167z"/>
        <path fill="#FBD756" d="M4.928 8.466l.14.131-.159.158-.13-.138z"/>
        <path fill="#020203" d="M4.905 8.751l.158-.145-.132-.126-.144.133.118.138zm0 .013l-.13-.15.15-.151.006.006.005-.007.138.143-.169.159z"/>
        <path fill="#FBD756" d="M4.424 8.864l.045-.046.033.033.036-.035-.035-.034.047-.046.033.034.034-.034-.034-.035.047-.047.078.078c.013.012.01.03 0 .04l-.167.167c-.01.01-.03.013-.04.002l-.077-.077z"/>
        <path fill="#020203" d="M4.508 8.937c.006.006.021.005.03-.003l.166-.167a.02.02 0 0 0 .001-.027l-.066-.08-.048.037.034.047-.045.034-.022-.034-.047.034.034.046-.046.036-.022-.035-.04.04.071.072zm.041.01c-.014.013-.038.017-.052.002L4.42 8.87l.007-.006-.007-.005.058-.046.02.033.037-.023-.035-.046.06-.046.02.033.035-.022-.035-.046.06-.047.077.079c.016.015.013.037 0 .051l-.167.167z"/>
        <path fill="#FBD756" d="M4.656 8.739l.14.13-.159.159-.13-.14z"/>
        <path fill="#020203" d="M4.652 8.747zm-.02.276l.16-.146-.134-.125-.143.132.117.14zm0 .012l-.13-.152.15-.148.006.006.005-.006.14.142-.171.158zM4.86 8.58c-.026-.023.009-.057.032-.034l.037.037-.034.034-.036-.036z"/>
        <path fill="#020203" d="M4.587 8.852c-.025-.023.01-.058.033-.033l.037.036-.034.034-.036-.037z"/>
        <path fill="#FBD756" d="M6.89 8.766l.422.422.144-.182-.385-.385z"/>
        <path fill="#020203" d="M7.308 9.184l.144-.174-.378-.385-.176.141.41.418zm-.422-.414l.004-.004-.003-.004.188-.145.385.392-.152.183-.422-.422z"/>
        <path fill="#FBD756" d="M7.373 8.839c.079.08.031.286-.064.382l-.313-.313c.101-.1.301-.146.377-.07"/>
        <path fill="#020203" d="M6.993 8.905c.103-.102.304-.152.388-.07l-.011.012c-.07-.07-.268-.027-.366.058l.302.313c.092-.093.137-.299.064-.37l.012-.014c.083.089.032.296-.076.395l-.313-.324z"/>
        <path fill="#FBD756" d="M7.298 8.865s.048.135-.078.26l-.178-.177c.125-.127.256-.083.256-.083"/>
        <path fill="#020203" d="M7.05 8.946c.086.085.087.086.166.177a.256.256 0 0 0 .078-.249.267.267 0 0 0-.244.072m-.012 0c.128-.13.264-.088.265-.087l-.003.01.01-.004s.048.14-.094.27c-.092-.092-.09-.091-.178-.19"/>
        <path fill="#FBD756" d="M7.13 8.535l.45.448c.009.01.009.026-.001.036-.012.01-.029.011-.037.002l-.449-.448c-.01-.01-.008-.026.002-.036.012-.012.027-.012.036-.002"/>
        <path fill="#020203" d="M7.088 8.577c-.012-.013-.01-.033.003-.045.013-.013.032-.014.044-.002l-.005.005-.004.004c-.007-.008-.017-.008-.027.001-.008.01-.009.021-.002.028l.437.438c.007.006.02.006.029-.003.008-.009.008-.02 0-.027l-.437-.437.004-.004.005-.005.437.438c.012.011.012.03-.001.044-.013.012-.032.013-.045.002l-.438-.437z"/>
        <path fill="#FBD756" d="M6.883 8.758l.447.448c.01.01.008.026-.002.037-.012.011-.027.012-.037.002l-.447-.447c-.01-.01-.01-.026.002-.038.01-.01.027-.011.037-.002"/>
        <path fill="#020203" d="M6.84 8.8c-.012-.011-.011-.031.002-.044.012-.013.032-.014.044-.002l-.004.004-.004.005c-.007-.007-.02-.007-.029.001-.008.01-.008.02-.001.028l.438.438c.006.007.018.007.028-.002.008-.01.008-.021.002-.027l-.438-.438.004-.005.004-.004.438.438c.01.012.01.032-.002.044-.013.013-.033.014-.044.002L6.84 8.8z"/>
        <path fill="#FBD756" d="M7.106 8.579l.447.448c.01.01.008.025-.003.037-.01.01-.027.013-.036.003l-.448-.447c-.009-.01-.008-.026.003-.037.012-.012.028-.012.037-.004"/>
        <path fill="#020203" d="M7.062 8.623c-.012-.011-.01-.032.003-.044.013-.013.033-.015.045-.004l-.004.005-.005.005c-.005-.006-.018-.006-.027.002-.01.01-.01.022-.003.028l.437.436c.005.006.018.006.027-.004.008-.008.009-.02.003-.026L7.1 8.585l.005-.005.004-.005.437.437c.012.013.009.032-.004.045-.012.013-.031.015-.044.002l-.437-.436z"/>
        <path fill="#FBD756" d="M7.693 8.671l-.244.265-.165-.168.266-.24z"/>
        <path fill="#020203" d="M7.291 8.764l.154.168.238-.259-.125-.139-.267.23zm-.01 0l.278-.241.141.143-.005.006.005.006-.255.265-.165-.18z"/>
        <path fill="#FBD756" d="M7.533 8.44l.045.046-.034.034.034.033.034-.033.047.047-.034.033.034.036.034-.035.048.048-.077.077a.028.028 0 0 1-.042 0l-.165-.167c-.01-.01-.01-.03 0-.041l.076-.077z"/>
        <path fill="#020203" d="M7.465 8.526c-.007.006-.006.023 0 .03l.166.167c.008.006.02.008.03 0l.077-.065-.036-.048-.046.034-.035-.047.035-.022-.035-.046-.046.033-.034-.046.034-.021-.04-.04-.07.07zm-.01.041a.038.038 0 0 1-.002-.053l.076-.078.006.006.006-.006.045.059-.032.02.021.035.046-.033.046.058-.033.022.022.035.046-.034.048.06-.077.077a.04.04 0 0 1-.054-.001l-.165-.167zM7.446 8.637c.023-.025.058.01.034.033l-.06.059-.033-.034.06-.058z"/>
        <path fill="#FBD756" d="M7.586 8.656l.047.047-.033.034.033.033.035-.034.047.047-.035.034.034.034.034-.034.049.048-.078.078c-.013.012-.03.009-.04-.002l-.167-.166c-.012-.011-.014-.03-.003-.042l.077-.077z"/>
        <path fill="#020203" d="M7.518 8.74c-.007.008-.006.022.002.03l.166.167c.009.008.02.01.03.002l.078-.067-.037-.048-.046.035-.035-.046.036-.023-.037-.046-.045.034-.034-.046.033-.022-.04-.04-.071.07zm-.01.042c-.014-.014-.016-.038-.002-.053l.077-.077.006.006.005-.006.047.058-.033.022.021.034.047-.035.047.06-.034.022.02.033.048-.034.048.061-.078.078c-.016.016-.04.01-.053-.002l-.166-.167z"/>
        <path fill="#FBD756" d="M7.71 8.89l-.131.14-.158-.16.138-.13z"/>
        <path fill="#020203" d="M7.43 8.866l.145.16.125-.134-.133-.144-.137.118zm-.012 0l.149-.13.15.15-.006.006.007.005-.143.14-.157-.171z"/>
        <path fill="#FBD756" d="M7.315 8.384l.046.046-.034.033.035.035.034-.034.046.047-.034.034.034.034.035-.035.047.048-.078.078c-.012.013-.03.01-.04 0l-.167-.167c-.01-.011-.012-.031-.002-.042l.078-.077z"/>
        <path fill="#020203" d="M7.245 8.469c-.006.006-.004.022.003.03l.168.166c.007.008.018.01.027.001L7.52 8.6l-.036-.048-.046.034-.034-.045.034-.022-.034-.047-.046.034-.036-.047.034-.022-.04-.04-.072.072zm-.01.042c-.013-.015-.016-.039-.001-.054l.077-.077.007.006.005-.006.046.057-.033.021.023.036.046-.035.045.06-.032.022.021.034.046-.034.048.06-.078.077a.036.036 0 0 1-.052 0l-.167-.167z"/>
        <path fill="#FBD756" d="M7.437 8.618l-.13.139-.158-.159.139-.13z"/>
        <path fill="#020203" d="M7.156 8.595l.146.157.126-.132-.132-.144-.14.119zm-.01 0l.15-.13.15.15-.007.005.006.005-.142.14-.158-.17zM7.526 8.82c.023-.024.057.01.033.034l-.037.037-.032-.034.036-.037z"/>
        <path fill="#020203" d="M7.254 8.549c.023-.026.058.01.033.033l-.037.036-.033-.033.037-.036z"/>
    </g>
</svg>
