<svg xmlns="http://www.w3.org/2000/svg" width="15" height="15" viewBox="0 0 15 15">
    <g fill="none" fill-rule="evenodd">
        <path fill="#2E2B7B" d="M.097 7.384a7.286 7.286 0 0 0 4.251 6.624V.76A7.286 7.286 0 0 0 .097 7.384"/>
        <path fill="#E42123" d="M14.67 7.384A7.286 7.286 0 0 0 10.42.76v13.248a7.286 7.286 0 0 0 4.25-6.624"/>
        <path fill="#FFD10B" d="M7.384.097A7.263 7.263 0 0 0 4.348.76v13.248a7.243 7.243 0 0 0 3.036.663 7.248 7.248 0 0 0 3.036-.663V.76A7.268 7.268 0 0 0 7.384.097"/>
    </g>
</svg>
