<svg xmlns="http://www.w3.org/2000/svg" width="15" height="15" viewBox="0 0 15 15">
    <g fill="none" fill-rule="evenodd">
        <path fill="#E4251D" d="M7.384 14.671a7.287 7.287 0 0 0 6.624-4.25H.76a7.286 7.286 0 0 0 6.624 4.25"/>
        <path fill="#FEFEFE" d="M7.384.098A7.286 7.286 0 0 0 .76 4.348h13.248A7.286 7.286 0 0 0 7.384.098"/>
        <path fill="#3D4898" d="M.097 7.385c0 1.083.239 2.111.663 3.036h13.248a7.26 7.26 0 0 0 .663-3.036 7.258 7.258 0 0 0-.663-3.037H.76a7.253 7.253 0 0 0-.663 3.037"/>
    </g>
</svg>
