<svg xmlns="http://www.w3.org/2000/svg" width="15" height="15" viewBox="0 0 15 15">
    <g fill="none" fill-rule="evenodd">
        <path fill="#E42123" d="M7.384 14.67a7.284 7.284 0 0 0 6.623-4.25H.76a7.285 7.285 0 0 0 6.624 4.25"/>
        <path fill="#FEFEFE" d="M7.384.097A7.286 7.286 0 0 0 .76 4.348h13.247A7.285 7.285 0 0 0 7.384.098"/>
        <path fill="#373F92" d="M.097 7.384c0 1.085.238 2.112.663 3.036h13.247a7.249 7.249 0 0 0 .664-3.036 7.25 7.25 0 0 0-.664-3.036H.76a7.25 7.25 0 0 0-.663 3.036"/>
        <path fill="#FEFEFE" d="M8.982 3.158H2.628c-.093 1.302-.24 2.617-.09 3.923.097.861.36 1.721.853 2.444.59.874 1.476 1.505 2.415 1.96.937-.459 1.824-1.086 2.414-1.96.493-.723.756-1.583.853-2.444.15-1.306 0-2.621-.09-3.923"/>
        <path fill="#E42123" d="M2.78 3.356h6.051c.087 1.24.229 2.493.087 3.736-.093.822-.343 1.64-.812 2.327.064-.366-.182-.744-.534-.851a.786.786 0 0 0-.804.197c-.108-.286-.329-.54-.626-.64-.003-.384 0-.767 0-1.151.155-.003.312 0 .467 0 .377.004.749.074 1.119.142a1.444 1.444 0 0 1-.003-.957c-.358.068-.721.136-1.087.142-.163.005-.327 0-.491.005-.008-.261-.008-.52-.002-.778.42-.003.836.065 1.245.145a1.446 1.446 0 0 1 .005-.958c-.414.08-.83.155-1.253.143-.003-.405.068-.803.145-1.199a1.491 1.491 0 0 1-.964 0c.078.396.15.794.146 1.199-.423.012-.839-.062-1.252-.143.11.31.107.649.004.958.412-.076.829-.157 1.252-.142-.01.26.005.517-.01.775-.163-.005-.327 0-.49-.005-.366-.006-.729-.074-1.087-.142.107.31.107.648-.002.957a6.144 6.144 0 0 1 1.585-.138c-.003.382.004.763 0 1.148a.992.992 0 0 0-.564.503c-.022.046-.037.094-.063.136a.788.788 0 0 0-.83-.188c-.337.116-.57.488-.506.842-.47-.688-.72-1.505-.812-2.327-.143-1.243-.004-2.495.086-3.736"/>
        <path fill="#FEFEFE" d="M5.323 3.66c.313.106.652.106.964 0-.077.395-.148.793-.145 1.198.423.012.839-.062 1.253-.143-.111.31-.111.649-.005.958-.41-.08-.825-.148-1.245-.145-.006.258-.006.517.002.778.164-.005.328 0 .491-.005.366-.006.73-.074 1.087-.142-.108.31-.108.648.003.957-.37-.068-.742-.138-1.12-.143-.154 0-.311-.002-.466 0 0 .385-.003.768 0 1.152a.991.991 0 0 0-.673 0c.004-.384-.003-.765 0-1.147a6.13 6.13 0 0 0-1.585.138c.109-.309.109-.648.002-.957.358.068.721.136 1.087.142.163.005.327 0 .49.005.015-.258 0-.516.01-.775-.423-.015-.84.066-1.252.142.103-.31.106-.648-.004-.958.413.08.83.155 1.252.143.004-.405-.068-.803-.146-1.199"/>
        <path fill="#373F92" d="M5.47 8.125a.991.991 0 0 1 .672 0c.297.1.517.354.626.64a.787.787 0 0 1 .804-.198c.352.108.598.486.533.851-.562.833-1.408 1.431-2.299 1.868-.893-.433-1.738-1.035-2.3-1.868-.063-.354.169-.725.506-.841a.786.786 0 0 1 .83.188c.025-.042.041-.09.063-.136a.991.991 0 0 1 .564-.504"/>
    </g>
</svg>
