<svg xmlns="http://www.w3.org/2000/svg" width="15" height="15" viewBox="0 0 15 15">
    <g fill="none" fill-rule="evenodd">
        <path fill="#E42720" d="M7.384 14.671a7.286 7.286 0 0 0 6.624-4.25H.76a7.284 7.284 0 0 0 6.624 4.25"/>
        <path fill="#FEFEFE" d="M7.384.098A7.285 7.285 0 0 0 .76 4.348h13.248A7.287 7.287 0 0 0 7.384.098"/>
        <path fill="#3E4898" d="M.097 7.385c0 1.084.239 2.111.663 3.035h13.248a7.242 7.242 0 0 0 .663-3.035 7.246 7.246 0 0 0-.663-3.037H.76a7.256 7.256 0 0 0-.663 3.037"/>
        <path fill="#E42720" d="M2.946 2.26l4.207.004.099.036c-.047.768-.097 1.503-.143 2.27-.013.628-.191 1.26-.574 1.767A2.9 2.9 0 0 1 5.05 7.382a2.872 2.872 0 0 1-1.741-1.47c-.21-.415-.295-.878-.313-1.342-.045-.771-.142-2.27-.142-2.27l.09-.04z"/>
        <path fill="#3E4898" d="M2.946 2.26a5.362 5.362 0 0 1 4.207.004l-.136 2.318c-.013.6-.184 1.206-.55 1.69a2.778 2.778 0 0 1-1.421 1A2.752 2.752 0 0 1 3.38 5.864c-.2-.396-.282-.838-.3-1.282L2.947 2.26"/>
        <path fill="#FCE309" d="M4.436 2.205c.025-.046.056-.092.081-.14.014.035.054.106.07.14l.177-.017c-.034.043-.069.084-.105.127.036.038.07.08.105.122a7.357 7.357 0 0 1-.177-.016c-.026.048-.05.098-.076.144-.024-.046-.05-.096-.07-.144a8.07 8.07 0 0 1-.177.016c.035-.042.068-.084.104-.122-.026-.034-.08-.093-.104-.127l.172.017M5.667 2.065l.075.14c.046-.004.135-.01.18-.016a6.348 6.348 0 0 1-.104.128l.104.124a9.108 9.108 0 0 1-.18-.017c-.02.035-.05.108-.07.141a1.35 1.35 0 0 0-.08-.136 2.712 2.712 0 0 1-.17.008 1.71 1.71 0 0 0 .096-.124c-.024-.03-.075-.094-.096-.124l.175.017c.02-.034.057-.106.07-.14M5.02 2.977c.016-.034.052-.105.072-.14.025.047.05.094.085.136.04-.003.125-.008.165-.008l-.095.12c.025.034.074.099.095.13a16.36 16.36 0 0 0-.176-.019 4.4 4.4 0 0 0-.074.141c-.026-.046-.046-.093-.072-.14-.044.003-.133.012-.178.017.034-.044.07-.086.104-.129-.025-.03-.08-.094-.104-.125l.178.017"/>
        <path fill="#FEFEFE" d="M4.559 4.624l.493-.99c.169.33.333.657.498.99l.33-.443c.277.371.55.738.828 1.105a.562.562 0 0 1-.517.543c-.215.035-.38-.155-.595-.143-.194-.004-.35.161-.549.148-.197.004-.35-.156-.547-.148-.211-.004-.38.182-.594.143-.279-.017-.493-.269-.507-.543.278-.363.552-.734.831-1.105l.329.443"/>
        <path fill="#FEFEFE" d="M4.12 6.026c.14-.076.273-.208.426-.177.178.018.32.22.501.214.198.02.35-.22.55-.214.197-.02.354.22.546.214.132.012.25-.084.367-.157-.046.113-.084.233-.14.327-.175.127-.372.064-.534-.071-.172-.132-.375-.087-.54.053-.172.139-.383.095-.552-.045-.173-.14-.38-.095-.545.045-.146.12-.318.101-.475.025a4.291 4.291 0 0 0-.127-.334c.16.12.347.22.523.12"/>
        <path fill="#FEFEFE" d="M3.867 6.31c.198.026.368-.092.551-.138.242-.06.431.164.672.134.168-.005.3-.13.463-.14.245-.028.439.182.689.144a2.68 2.68 0 0 1-1.19.84 2.667 2.667 0 0 1-1.185-.84"/>
    </g>
</svg>
