<svg xmlns="http://www.w3.org/2000/svg" width="15" height="15" viewBox="0 0 15 15">
    <g fill="none" fill-rule="evenodd">
        <path fill="#224D8E" d="M4.834.556A7.294 7.294 0 0 0 .21 6.108h4.623V.556zM.211 8.658a7.294 7.294 0 0 0 4.623 5.551V8.658H.21zM14.558 6.108A7.288 7.288 0 0 0 7.385.096v6.012h7.173zM14.558 8.658H7.385v6.012a7.287 7.287 0 0 0 7.173-6.012"/>
        <path fill="#FBC00D" d="M14.558 8.658c.073-.414.113-.84.113-1.274 0-.436-.04-.862-.113-1.276H7.385V.096a7.28 7.28 0 0 0-2.551.46v5.552H.21c-.073.414-.114.84-.114 1.276 0 .434.04.86.114 1.274h4.623v5.551c.794.298 1.653.46 2.55.46V8.659h7.174z"/>
    </g>
</svg>
