<svg xmlns="http://www.w3.org/2000/svg" width="15" height="15" viewBox="0 0 15 15">
    <g fill="none" fill-rule="evenodd">
        <path fill="#FEFEFE" d="M14.27 10.01H.498a7.482 7.482 0 0 0 1.413 2.485h10.947a7.477 7.477 0 0 0 1.414-2.484"/>
        <path fill="#E42824" d="M12.857 12.495H1.91a7.226 7.226 0 0 0 4.638 2.484H8.22a7.222 7.222 0 0 0 4.638-2.484M7.384.125c-2.134 0-4.054.938-5.387 2.433H12.77C11.438 1.063 9.518.125 7.384.125"/>
        <path fill="#FEFEFE" d="M12.77 2.558H1.997A7.5 7.5 0 0 0 .53 5.043h13.707a7.483 7.483 0 0 0-1.467-2.485"/>
        <path fill="#302874" d="M14.67 7.577c0-.89-.153-1.743-.433-2.534H.53a7.575 7.575 0 0 0-.433 2.534c0 .853.142 1.67.4 2.434H14.27c.258-.763.4-1.581.4-2.434"/>
    </g>
</svg>
