<svg xmlns="http://www.w3.org/2000/svg" width="15" height="15" viewBox="0 0 15 15">
    <g fill="none" fill-rule="evenodd">
        <path fill="#E42724" d="M14.67 7.384a7.286 7.286 0 0 1-7.286 7.286 7.287 7.287 0 1 1 0-14.573 7.287 7.287 0 0 1 7.287 7.287"/>
        <path fill="#FEFEFE" d="M6.296 10.032a2.648 2.648 0 1 1 1.87-4.524 3.279 3.279 0 1 0 0 3.752c-.48.477-1.14.772-1.87.772M9.471 5.978l.612.883 1.03-.31-.651.855.612.884-1.015-.356-.65.856.022-1.075-1.013-.355 1.03-.308z"/>
    </g>
</svg>
