<svg xmlns="http://www.w3.org/2000/svg" width="15" height="15" viewBox="0 0 15 15">
    <g fill="none" fill-rule="evenodd">
        <path fill="#E42720" d="M14.67 7.384a7.287 7.287 0 1 1-14.573 0 7.287 7.287 0 0 1 14.574 0"/>
        <path fill="#38277F" d="M7.38.098A7.286 7.286 0 0 0 .121 7.953h7.257V.098z"/>
        <path fill="#FEFEFE" d="M3.93 3.435l.3-1.11.298 1.11zM3.268 3.769l-.301-1.11.82.814zM2.864 4.385l-.823-.81 1.122.297zM2.826 5.117l-1.123-.294 1.123-.296zM3.164 5.772l-1.122.299.822-.81zM3.786 6.172l-.82.813.302-1.107zM4.528 6.21l-.299 1.109-.298-1.11zM5.19 5.878l.303 1.107-.821-.813zM5.595 5.26l.823.81-1.121-.298zM5.633 4.527l1.122.296-1.122.294zM5.296 3.872l1.121-.298-.822.81zM4.672 3.473l.821-.812-.303 1.108z"/>
        <path fill="#293377" d="M5.689 4.822a1.45 1.45 0 0 1-1.46 1.443 1.45 1.45 0 0 1-1.458-1.443 1.45 1.45 0 0 1 1.458-1.441c.806 0 1.46.646 1.46 1.441"/>
        <path fill="#FEFEFE" d="M5.526 4.822c0 .707-.58 1.282-1.297 1.282a1.29 1.29 0 0 1-1.296-1.282c0-.707.58-1.28 1.296-1.28.717 0 1.297.573 1.297 1.28"/>
    </g>
</svg>
