<svg xmlns="http://www.w3.org/2000/svg" width="15" height="15" viewBox="0 0 15 15">
    <g fill="none" fill-rule="evenodd">
        <path fill="#FEFEFE" d="M.097 7.384a7.279 7.279 0 0 0 4.08 6.536V.848a7.28 7.28 0 0 0-4.08 6.536"/>
        <path fill="#1D692F" d="M7.384 14.67a7.287 7.287 0 1 0 0-14.573 7.258 7.258 0 0 0-3.206.75V13.92a7.24 7.24 0 0 0 3.206.75"/>
        <path fill="#FEFEFE" d="M12.442 8.94a3.282 3.282 0 0 1-4.636-.273 3.282 3.282 0 0 1 .273-4.634c.059-.054.12-.1.182-.147a3.582 3.582 0 0 0 1.084 6.996 3.58 3.58 0 0 0 3.26-2.102c-.054.055-.106.11-.163.16"/>
        <path fill="#FEFEFE" d="M10.622 4.657l.58.622.77-.36-.411.745.58.622-.835-.163-.413.745-.103-.845-.835-.16.77-.361z"/>
    </g>
</svg>
