<svg xmlns="http://www.w3.org/2000/svg" width="15" height="15" viewBox="0 0 15 15">
    <g fill="none" fill-rule="evenodd">
        <path fill="#FEFEFE" d="M.294 9.065h14.18a7.3 7.3 0 0 0 .174-1.12H.12c.03.382.087.756.173 1.12M1.245 11.308h12.278c.227-.355.424-.73.589-1.122H.656c.165.393.362.767.589 1.122M3.502 13.55h7.764a7.278 7.278 0 0 0 1.373-1.121H2.129c.41.426.87.804 1.373 1.12M11.267 1.219H3.502a7.254 7.254 0 0 0-1.373 1.12h10.51a7.25 7.25 0 0 0-1.372-1.12"/>
        <path fill="#DD162B" d="M.656 10.186h13.456a7.2 7.2 0 0 0 .361-1.12H.294c.092.386.212.76.362 1.12M2.129 12.429h10.51c.33-.343.626-.72.884-1.121H1.245c.258.402.554.778.884 1.12M7.384 14.67a7.25 7.25 0 0 0 3.882-1.12H3.502a7.251 7.251 0 0 0 3.882 1.12M.294 5.703h14.18a7.237 7.237 0 0 0-.362-1.121H.656c-.15.36-.27.734-.362 1.12M.097 7.384c0 .188.01.375.024.56h14.526c.014-.185.024-.372.024-.56 0-.189-.01-.376-.024-.56H.121a7.231 7.231 0 0 0-.024.56M2.128 2.34c-.33.343-.625.718-.883 1.12h12.278a7.242 7.242 0 0 0-.884-1.12H2.13zM7.384.097A7.247 7.247 0 0 0 3.502 1.22h7.764A7.25 7.25 0 0 0 7.384.097"/>
        <path fill="#FEFEFE" d="M.12 6.824h14.527a7.368 7.368 0 0 0-.173-1.121H.294a7.286 7.286 0 0 0-.173 1.12M.656 4.582h13.456a7.273 7.273 0 0 0-.589-1.121H1.245a7.276 7.276 0 0 0-.59 1.12"/>
        <path fill="#2C2766" d="M7.38.097A7.287 7.287 0 0 0 .12 7.953H7.38V.097z"/>
        <path fill="#FEFEFE" d="M.555 4.872l-.041.122h.002l.04-.122zM.498 5.107c-.037.117-.074.234-.109.353l.113-.35-.004-.003zM.814 7.532l-.216-.156-.216.156.082-.253-.215-.156h.266l.083-.253.082.253h.266l-.215.156zM1.79 6.439l-.216-.157-.216.157.083-.254-.216-.156h.266l.083-.252.082.252h.266l-.215.156zM1.726 3.964l.083.253-.216-.158-.215.158.082-.253-.215-.157h.266l.082-.252.083.252h.266zM2.805 7.532l-.215-.156-.216.156.083-.253-.216-.156h.266l.083-.253.083.253h.266l-.216.156zM2.82 5.039l-.097.07.082.254-.214-.157-.217.157.083-.254-.097-.07-.119-.086h.266l.084-.254.082.254h.266zM2.723 2.836l.082.252-.214-.156-.217.156.083-.252-.216-.158h.266l.084-.252.082.252h.266zM3.781 6.519l-.215-.158-.215.158.082-.255-.215-.155h.265l.083-.255.082.255h.267l-.216.155zM3.72 4.043l.082.253-.216-.157-.215.157.082-.253-.215-.157h.265l.083-.253.082.253h.267zM3.74 1.795l.081.253-.214-.156-.217.156.082-.253-.214-.157h.265l.084-.253.08.253h.267zM4.797 7.532l-.215-.156-.215.156.082-.253-.215-.156H4.5l.082-.253.082.253h.266l-.215.156zM4.812 5.039l-.097.07.082.254-.214-.157-.216.157.082-.254-.096-.07-.119-.086H4.5l.083-.254.081.254h.266zM4.715 2.836l.082.252-.214-.156-.216.156.082-.252-.215-.158H4.5l.083-.252.081.252h.267zM5.775 6.519l-.217-.158-.214.158.082-.255-.216-.155h.266l.082-.255.083.255h.266l-.215.155zM5.712 4.043l.082.253-.216-.157-.215.157.082-.253-.215-.157h.266l.082-.253.083.253h.265zM5.732 1.795l.082.253-.215-.156-.216.156.082-.253-.215-.157h.266l.083-.253.081.253h.267zM6.79 7.532l-.214-.156-.217.156.083-.253-.215-.156h.265l.084-.253.08.253h.267l-.215.156zM6.805 5.039l-.097.07.083.254-.215-.157-.217.157.083-.254-.096-.07-.12-.086h.266l.084-.254.08.254h.267zM6.708 2.836l.083.252-.215-.156-.217.156.083-.252-.215-.158h.265l.084-.252.08.252h.267zM6.708.613l.083.253-.215-.157-.217.157.083-.253-.215-.157h.265l.084-.253.08.253h.267zM4.617.768l.25.236-.096-.38.035-.032a7.134 7.134 0 0 0-.39.209l-.05.203.251-.236z"/>
        <path fill="#FEFEFE" d="M4.583 2.426l-.083.253h-.266l.215.157-.082.252.216-.155.215.155-.083-.252.216-.157h-.267zM4.583 4.7l-.083.253h-.266l.119.086.096.07-.082.254.216-.157.215.157-.083-.254.097-.07.119-.086h-.267zM4.664 7.123l-.081-.253-.083.253h-.266l.215.156-.082.253.216-.156.214.156-.082-.253.216-.156zM2.59 2.426l-.083.253h-.266l.216.157-.083.252.216-.155.215.155-.083-.252.217-.157h-.267zM2.59 4.7l-.083.253h-.266l.12.086.096.07-.083.254.216-.157.215.157-.083-.254.097-.07.12-.086h-.267zM2.672 7.123L2.59 6.87l-.083.253h-.266l.216.156-.083.253.216-.156.215.156-.083-.253.217-.156zM.382 5.373l.002-.001a.35.35 0 0 0 .009-.03l-.011.031zM.627 4.7l-.086.258c.03-.08.063-.157.094-.234l-.008-.025z"/>
        <path fill="#FEFEFE" d="M.814 5.363L.73 5.109l.096-.07.119-.086H.68l-.077-.237c-.02.051-.043.103-.062.156l-.026.081H.514l-.053.153.003.003-.075.233a.482.482 0 0 1-.006.02l.215-.157.216.158zM.68 7.123L.598 6.87l-.083.253H.249l.215.156-.082.253.216-.156.216.156L.73 7.28l.215-.156zM5.578 3.633l-.081.254H5.23l.215.156-.082.253.215-.157.216.157-.082-.253.214-.156h-.265zM5.641 6.109l-.083-.255-.082.255H5.21l.216.155-.083.255.215-.157.216.157-.083-.255.216-.155zM3.586 3.633l-.083.254h-.266l.216.156-.083.253.216-.157.216.157-.083-.253.216-.156h-.267zM3.648 6.109l-.082-.255-.082.255h-.266l.215.155-.082.255.215-.157.215.157-.082-.255.216-.155zM1.593 3.555l-.081.252h-.267l.215.157-.082.253.215-.157.216.157-.083-.253.216-.157h-.266zM1.656 6.029l-.082-.252-.083.252h-.267l.216.157-.082.253.216-.157.215.157-.083-.253.216-.157zM6.575 2.426l-.083.253h-.266l.216.157-.083.252.216-.155.216.155-.083-.252.215-.157h-.266zM3.607 1.385l-.084.254h-.265l.215.156-.082.253.216-.156.215.156-.083-.253.215-.156h-.266zM5.6 1.385l-.084.254H5.25l.215.156-.082.253.216-.156.215.156-.082-.253.215-.156H5.68zM6.575.203l-.083.253h-.266l.216.157-.083.253.216-.156.216.156-.083-.253.215-.157h-.266zM6.575 4.7l-.083.253h-.266l.12.086.096.07-.083.254.216-.157.216.157-.083-.254.096-.07.119-.086h-.266zM6.657 7.123l-.082-.253-.083.253h-.266l.216.156-.083.253.216-.156.216.156-.083-.253.215-.156z"/>
    </g>
</svg>
