<?xml version="1.0" encoding="utf-8"?>
<!-- Generator: Adobe Illustrator 22.1.0, SVG Export Plug-In . SVG Version: 6.00 Build 0)  -->
<svg version="1.1" id="Layer_1" xmlns="http://www.w3.org/2000/svg" xmlns:xlink="http://www.w3.org/1999/xlink" x="0px" y="0px"
	 viewBox="0 0 304.3 264.2" style="enable-background:new 0 0 304.3 264.2;" xml:space="preserve">
<style type="text/css">
	.st0{fill:#FFFFFF;}
	.st1{font-family:'Montserrat-Bold';}
	.st2{font-size:25.7972px;}
	.st3{letter-spacing:11;}
</style>
<path class="st0" d="M0,104.4h53c0,0,26.6,0,44.1,14.3c16.2,13.2,16.7,39.8,16.7,39.8s0.8,24.5-16.2,40.1
	c-18.5,16.9-46.8,14.3-46.8,14.3v-88H1.1v139.4h67.3c0,0,30.8-2.5,47.4-12.4c20.7-12.4,29.3-27.2,29.3-27.2s13.2,17,31.5,26.9
	c21.1,11.5,45.5,12.6,45.5,12.6h67.8v-140l-50.6,0.3l0.3,88.3c0,0-33.3,2.4-51.9-18.8c-11.6-13.2-11-34.7-11-34.7s-1.3-21.5,15.6-39
	c15.8-16.3,44.7-15.9,44.7-15.9h53V55.1h-51.9c0,0-30.3,0.9-49.8,8.3c-24.8,9.4-43.2,32.3-43.2,32.3s-15.2-20-40-31.5
	c-19.9-9.2-52.8-9.2-52.8-9.2H0V104.4z"/>
<text transform="matrix(1 0 0 1 1.4699 21.9274)" class="st0 st1 st2 st3">POWERED BY</text>
</svg>
