<svg xmlns="http://www.w3.org/2000/svg" xmlns:xlink="http://www.w3.org/1999/xlink" width="100" height="27" viewBox="0 0 100 27">
    <defs>
        <path id="a" d="M0 .276h10.312V24.19H0z"/>
    </defs>
    <g fill="none" fill-rule="evenodd">
        <g transform="translate(0 2.73)">
            <mask id="b" fill="#fff">
                <use xlink:href="#a"/>
            </mask>
            <path fill="#FFFFFE" d="M1.16 22.265H0L7.97.276l.735 1.355L1.16 22.265M2.923 24.207H1.8l7.834-21.79.677 1.829-7.39 19.961" mask="url(#b)"/>
        </g>
        <path fill="#FFFFFE" d="M5.771 25.76H4.65L10.72 8.774l.677 1.828-5.626 15.156"/>
        <g fill="#FFFFFE">
            <path d="M9.222 3.02H7.955l8.317 21.974h1.123L9.222 3.02M10.789 1H9.512l9.66 25.308h1.123L10.789 1"/>
        </g>
        <path fill="#FFFFFE" d="M13.975 3.059h-1.277l7.935 20.754h1.122L13.975 3.06"/>
        <g fill="#FFFFFE">
            <path d="M35.095 11.867L33.41 15.73h3.37l-1.685-3.862zm2.371 5.455h-4.743l-.777 1.711h-1.853l4.069-9.07h1.866l4.068 9.07h-1.865l-.765-1.71zM45.616 11.517h-2.877V9.963h7.464v1.554h-2.877v7.516h-1.71v-7.516M56.849 11.556v2.903h2.605c1.088 0 1.555-.726 1.555-1.451 0-.726-.48-1.452-1.555-1.452h-2.605zm6.324 7.477h-2.035l-2.643-3.032h-1.646v3.032h-1.71V9.95c1.438 0 2.876.013 4.315.013 2.138.013 3.265 1.438 3.265 3.006 0 1.244-.57 2.5-2.294 2.85l2.748 3.097v.117zM67.772 19.033h1.697v-9.07h-1.697zM82.66 9.976v5.196c0 2.682-1.646 4.055-3.927 4.055-2.177 0-4.03-1.321-4.03-4.055V9.976h1.698v5.196c0 1.633.933 2.5 2.345 2.5 1.413 0 2.216-.945 2.216-2.5V9.976h1.698M93.815 12.152c-.31-.518-1.166-1.01-2.15-1.01-1.27 0-1.88.53-1.88 1.205 0 .79.933 1.01 2.022 1.14 1.892.233 3.654.726 3.654 2.89 0 2.021-1.788 2.89-3.81 2.89-1.853 0-3.278-.57-3.952-2.23l1.425-.738c.402.998 1.452 1.438 2.553 1.438 1.075 0 2.086-.375 2.086-1.36 0-.855-.894-1.205-2.099-1.335-1.853-.22-3.563-.713-3.563-2.747 0-1.866 1.84-2.63 3.511-2.643 1.413 0 2.877.401 3.564 1.8l-1.36.7M98.396 10.158h.335l.366.587.366-.587h.325v1.392h-.298v-.94l-.384.61h-.027l-.384-.61v.94h-.299v-1.392zm-1.026.28h-.416v-.28h1.149v.28h-.417v1.112h-.316v-1.112z"/>
        </g>
        <text fill="#FFFFFE" font-family="Avenir-Medium, Avenir" font-size="4" font-weight="400" letter-spacing=".22" transform="translate(0 -1)">
            <tspan x="49" y="4">ENABLED WIT</tspan> <tspan x="78.236" y="4">H</tspan>
        </text>
    </g>
</svg>
