<?xml version="1.0" encoding="UTF-8" standalone="no"?>
<svg width="11px" height="15px" viewBox="0 0 11 15" version="1.1" xmlns="http://www.w3.org/2000/svg" xmlns:xlink="http://www.w3.org/1999/xlink" xmlns:sketch="http://www.bohemiancoding.com/sketch/ns">
    <!-- Generator: Sketch 3.3.2 (12043) - http://www.bohemiancoding.com/sketch -->
    <title>Fill 2330 + Fill 2331</title>
    <desc>Created with Sketch.</desc>
    <defs></defs>
    <g id="Page-1" stroke="none" stroke-width="1" fill="none" fill-rule="evenodd" sketch:type="MSPage">
        <g id="Weather" sketch:type="MSArtboardGroup" transform="translate(-269.000000, -761.000000)">
            <g id="Group" sketch:type="MSLayerGroup" transform="translate(120.000000, 515.000000)">
                <g id="Fill-2330-+-Fill-2331-+-22°" transform="translate(149.000000, 246.000000)" sketch:type="MSShapeGroup">
                    <g id="Fill-2330-+-Fill-2331">
                        <path d="M4.80000577,10.5152227 C4.82568356,10.5410848 4.85412239,10.5644442 4.88449396,10.5847446 C4.89802311,10.5941996 4.91293279,10.6003175 4.92729026,10.608104 C4.94440878,10.6178371 4.9612512,10.6284044 4.97947414,10.6361908 C4.99769708,10.6436992 5.01674834,10.6481486 5.03552349,10.6537104 C5.05126149,10.6581598 5.06644728,10.6642777 5.08273748,10.6676148 C5.11835505,10.6748451 5.15452483,10.6784602 5.19069461,10.6784602 C5.22714049,10.6784602 5.26331027,10.6748451 5.29892784,10.6676148 C5.31521804,10.6642777 5.33040383,10.6581598 5.34614183,10.6537104 C5.36491698,10.6481486 5.38369213,10.6436992 5.40191507,10.6361908 C5.42041412,10.6284044 5.43698043,10.6178371 5.45437506,10.608104 C5.46845642,10.6003175 5.4833661,10.5941996 5.49717136,10.5847446 C5.52754293,10.5644442 5.55570566,10.5410848 5.58165955,10.5152227 L7.7899488,8.29079836 C8.00586305,8.07361179 8.00586305,7.72183073 7.7899488,7.50436607 C7.57458676,7.2871795 7.22448538,7.2871795 7.00912334,7.50436607 L5.74290497,8.77967671 L5.74290497,1.22347507 C5.74290497,0.916466146 5.49579083,0.667299479 5.19069461,0.667299479 C4.88587449,0.667299479 4.63848424,0.916466146 4.63848424,1.22347507 L4.63848424,8.77967671 L3.37226587,7.50436607 C3.15690383,7.2871795 2.80680246,7.2871795 2.59144042,7.50436607 C2.37580227,7.72183073 2.37580227,8.07361179 2.59144042,8.29079836 L4.80000577,10.5152227 Z" id="Fill-2330" fill="#6BC055"></path>
                        <path d="M10.1606707,12.9032738 L0.441768293,12.9032738 C0.197691311,12.9032738 0,13.1524405 0,13.4594494 C0,13.7664583 0.197691311,14.015625 0.441768293,14.015625 L10.1606707,14.015625 C10.4045268,14.015625 10.602439,13.7664583 10.602439,13.4594494 C10.602439,13.1524405 10.4045268,12.9032738 10.1606707,12.9032738" id="Fill-2331" fill="#2F343A"></path>
                    </g>
                </g>
            </g>
        </g>
    </g>
</svg>