<?xml version="1.0" encoding="UTF-8" standalone="no"?>
<svg width="16px" height="16px" viewBox="0 0 16 16" version="1.1" xmlns="http://www.w3.org/2000/svg" xmlns:xlink="http://www.w3.org/1999/xlink" xmlns:sketch="http://www.bohemiancoding.com/sketch/ns">
    <!-- Generator: Sketch 3.3.2 (12043) - http://www.bohemiancoding.com/sketch -->
    <title>/block-average</title>
    <desc>Created with Sketch.</desc>
    <defs></defs>
    <g id="Page-1" stroke="none" stroke-width="1" fill="none" fill-rule="evenodd" sketch:type="MSPage">
        <g id="Desktop" sketch:type="MSArtboardGroup" transform="translate(-636.000000, -290.000000)">
            <g id="/block-average" sketch:type="MSLayerGroup" transform="translate(636.000000, 290.000000)">
                <rect id="Rectangle-1" fill="#D8D8D8" sketch:type="MSShapeGroup" x="0" y="0" width="16" height="16"></rect>
                <path d="M8.06514053,8.33105469 L9.20771866,6.88085938 C9.33076615,6.72265546 9.43037453,6.5688484 9.50654678,6.41943359 C9.58271904,6.27001878 9.6208046,6.11621173 9.6208046,5.95800781 C9.6208046,5.82324151 9.57100041,5.7119145 9.47139053,5.62402344 C9.37178066,5.53613237 9.21650878,5.47167989 9.00557022,5.43066406 L9.00557022,5 L11.8795937,5 L11.8795937,5.43066406 C11.6569363,5.49511751 11.4298878,5.62109281 11.1984413,5.80859375 C10.9669948,5.99609469 10.6842828,6.29784948 10.3502968,6.71386719 L8.53096085,8.94628906 L10.5348671,11.6445312 C10.8219779,12.0312519 11.0797878,12.3271474 11.3083046,12.5322266 C11.5368214,12.7373057 11.7653347,12.8837886 11.9938515,12.9716797 L11.9938515,13.4023438 L8.46064835,13.4023438 L8.46064835,12.9716797 C8.9469789,12.9130856 9.19014053,12.7314468 9.19014053,12.4267578 C9.19014053,12.3037103 9.16963293,12.186524 9.1286171,12.0751953 C9.08760127,11.9638666 9.01143015,11.8349617 8.90010147,11.6884766 L7.62568741,9.91308594 L6.27217178,11.6708984 C6.17256191,11.7998053 6.09492597,11.9184565 6.03926163,12.0268555 C5.98359729,12.1352544 5.95576553,12.2568353 5.95576553,12.3916016 C5.95576553,12.5498055 6.00996421,12.6801753 6.11836319,12.7827148 C6.22676217,12.8852544 6.39814717,12.9482421 6.63252335,12.9716797 L6.63252335,13.4023438 L3.69697647,13.4023438 L3.69697647,12.9716797 C3.89033681,12.9013668 4.06465148,12.8134771 4.21992569,12.7080078 C4.3751999,12.6025385 4.53340145,12.4663094 4.69453506,12.2993164 C4.85566868,12.1323234 5.0680689,11.8876969 5.3317421,11.5654297 L7.1598671,9.29785156 L5.28779678,6.73144531 C5.02998299,6.37988105 4.82490692,6.12500079 4.67256241,5.96679688 C4.5202179,5.80859296 4.3795943,5.68847697 4.25068741,5.60644531 C4.12178051,5.52441365 3.99287555,5.46582049 3.86396866,5.43066406 L3.86396866,5 L7.30928116,5 L7.30928116,5.43066406 C6.84638822,5.50097691 6.61494522,5.68261572 6.61494522,5.97558594 C6.61494522,6.11035224 6.64570663,6.24511651 6.70723038,6.37988281 C6.76875412,6.51464911 6.86396801,6.66406168 6.99287491,6.828125 L8.06514053,8.33105469 Z" id="x" fill="#222222" sketch:type="MSShapeGroup"></path>
                <path d="M4.5,2.5 L11.5,2.5" id="Line" stroke="#000000" stroke-linecap="square" sketch:type="MSShapeGroup"></path>
            </g>
        </g>
    </g>
</svg>